<?xml version="1.0" encoding="utf-8"?>
<!-- Generator: Adobe Illustrator 18.1.1, SVG Export Plug-In . SVG Version: 6.00 Build 0)  -->
<svg version="1.1" id="图层_1" xmlns="http://www.w3.org/2000/svg" xmlns:xlink="http://www.w3.org/1999/xlink" x="0px" y="0px"
	 viewBox="0 0 800 800" enable-background="new 0 0 800 800" xml:space="preserve">
<rect x="1.6" fill="#DDDDDD" width="800" height="800"/>
<g>
	<path fill="#EFEFEF" d="M704.3,413H478.5c-9.6,33.5-40.4,57.9-76.9,57.9c-36.5,0-67.3-24.5-76.9-57.9H98.9
		c6.7,165,139.6,296.6,302.7,296.6S697.7,578,704.3,413"/>
	<path fill="#E1B8B3" d="M180.4,264.9c-4.5,0-8.4-1.2-11.2-3.9c-11.2-10.4-1.7-38.7,21.1-63.2c17.1-18.3,36.8-29.3,50.4-29.3
		c4.5,0,8.4,1.2,11.2,3.9c11.2,10.4,1.7,38.7-21.1,63.2C213.6,253.9,193.9,264.9,180.4,264.9 M401.6,90.4
		c-155.1,0-282.9,119.1-300.8,272.6h225.9c11.3-30.3,40.6-51.9,74.9-51.9c34.3,0,63.6,21.6,74.9,51.9h225.9
		C684.6,209.4,556.7,90.4,401.6,90.4"/>
	<path fill="#AAA4A2" d="M400,55.6C213.9,55.6,63,209.8,63,400c0,190.2,150.9,344.4,337,344.4S737,590.2,737,400
		C737,209.8,586.1,55.6,400,55.6z M401.6,90.4c155.1,0,282.9,119.1,300.8,272.6H476.5c-11.3-30.3-40.6-51.9-74.9-51.9
		c-34.3,0-63.6,21.6-74.9,51.9H100.8C118.7,209.4,246.5,90.4,401.6,90.4z M451.4,391c0,27.5-22.3,49.8-49.8,49.8
		c-27.5,0-49.8-22.3-49.8-49.8c0-27.5,22.3-49.8,49.8-49.8C429.1,341.2,451.4,363.5,451.4,391z M401.6,709.6
		c-163.1,0-296-131.6-302.7-296.6h225.8c9.6,33.5,40.4,57.9,76.9,57.9c36.5,0,67.3-24.5,76.9-57.9h225.8
		C697.7,578,564.7,709.6,401.6,709.6z"/>
	<path fill="#EFEFEF" d="M401.6,407.7c-9.2,0-16.7-7.5-16.7-16.7c0-9.2,7.5-16.7,16.7-16.7c9.2,0,16.7,7.5,16.7,16.7
		C418.4,400.3,410.9,407.7,401.6,407.7 M401.6,341.2c-27.5,0-49.8,22.3-49.8,49.8c0,27.5,22.3,49.8,49.8,49.8s49.8-22.3,49.8-49.8
		C451.4,363.5,429.1,341.2,401.6,341.2"/>
	<path fill="#AAA4A2" d="M401.6,374.3c-9.2,0-16.7,7.5-16.7,16.7c0,9.2,7.5,16.7,16.7,16.7c9.2,0,16.7-7.5,16.7-16.7
		C418.4,381.8,410.9,374.3,401.6,374.3"/>
	<path fill="#EED4D3" d="M240.6,168.5c-13.5,0-33.3,11-50.4,29.3c-22.8,24.5-32.3,52.8-21.1,63.2c2.8,2.6,6.7,3.9,11.2,3.9
		c13.5,0,33.3-11,50.4-29.3c22.8-24.5,32.3-52.8,21.1-63.2C249,169.7,245.2,168.5,240.6,168.5"/>
</g>
</svg>
