<?xml version="1.0" encoding="utf-8"?>
<!-- Generator: Adobe Illustrator 18.1.1, SVG Export Plug-In . SVG Version: 6.00 Build 0)  -->
<svg version="1.1" id="Layer_1" xmlns="http://www.w3.org/2000/svg" xmlns:xlink="http://www.w3.org/1999/xlink" x="0px" y="0px"
	 viewBox="0 0 612 792" enable-background="new 0 0 612 792" xml:space="preserve">
<path fill="#8CB8BA" d="M511.6,476.2c0,110.1-104.1,142-219.2,142c-115.2,0-198-31.9-198-142c0-110.1,93.5-199.4,208.7-199.4
	C418.2,276.8,511.6,366.1,511.6,476.2"/>
<path fill="#8CB8BA" d="M406.9,715.4c0,56.4-44.4,76.6-98.6,76.6c-54.4,0-98.6-20.2-98.6-76.6s40.8-139.4,95-139.4
	C359.1,576,406.9,658.7,406.9,715.4"/>
<path fill="#8CB8BA" d="M376.2,134.2c-22.8,88.1-37.8,216.4-77.6,200.2c-73.9-30.7-77.4-142.6-77.4-234.8S256,0,298.6,0
	C341.3-0.4,399.3,44.9,376.2,134.2"/>
<path fill="#4F504F" d="M246.3,436.4c0,10.7-4.9,19.6-10.5,19.6s-10.5-8.7-10.5-19.6c0-10.7,4.9-19.6,10.5-19.6
	C241.3,416.8,246.3,425.7,246.3,436.4"/>
<path fill="#B5B4B5" d="M240.3,425.3c0,4.6-2,8.5-4.6,8.5s-4.6-3.6-4.6-8.5c0-4.9,2-8.5,4.6-8.5S240.3,420.4,240.3,425.3"/>
<path fill="#4F504F" d="M375.6,436.4c0,10.7-5,19.6-10.5,19.6s-10.5-8.7-10.5-19.6c0-10.7,4.9-19.6,10.5-19.6
	C371,416.8,375.6,425.7,375.6,436.4"/>
<path fill="#B5B4B5" d="M369.6,425.3c0,4.6-2,8.5-4.6,8.5s-4.6-3.6-4.6-8.5c0-4.9,2-8.5,4.6-8.5S369.6,420.4,369.6,425.3"/>
<line fill="none" stroke="#666766" stroke-width="0.5" stroke-miterlimit="10" x1="180.2" y1="519.2" x2="425.7" y2="519.2"/>
<path fill="#CD9977" d="M187.9,503.7c0-53.1-35.8-96.4-80.2-96.4c-0.4,0-0.6,0-1,0c-7.7,20.8-12.1,43-12.1,66.5
	c0,54.6,17.8,90.3,54.1,113.7C171.6,570.6,187.9,538.4,187.9,503.7"/>
<path fill="#CD9977" d="M418.7,504.7c0-53.1,35.8-96.4,80.2-96.4c0.4,0,0.6,0,1,0c7.7,20.8,12.1,43,12.1,66.5
	c0,54.6-24.2,87.3-58.6,108.7C430.2,566.9,418.7,539.4,418.7,504.7"/>
<path fill="#4F504F" d="M289.3,489.1c1,1,1.4,2.4,1,2.6c-0.4,0.4-1.4-0.4-2.4-1.6c-1-1-1.4-2.4-1-2.6
	C287.3,487.1,288.3,488.1,289.3,489.1"/>
<path fill="#4F504F" d="M317.6,489.1c-1,1-1.4,2.4-1,2.6c0.4,0.4,1.4-0.4,2.4-1.6c1-1,1.4-2.4,1-2.6
	C319.5,487.1,318.6,488.1,317.6,489.1"/>
<path fill="#CD9977" d="M89.9,448.1c29.9,12.1,50.5,33.5,58,42c1.4,1.6,0.4,4-1.6,4.2c-11.1,1-41,2-71.1-10.1
	c-29.9-12.1-50.5-33.5-58-42c-1.4-1.6-0.4-4,1.6-4.2C30.1,437.4,60,436,89.9,448.1"/>
<path fill="#CD9977" d="M90.9,537.4c29.7-12.1,50.5-33.5,58-42c1.4-1.6,0.4-4-1.6-4.2c-11.5-1-41-2-70.7,10.1
	c-29.7,12.1-50.5,33.5-58,42c-1.4,1.6-0.4,4,1.6,4.2C31.3,548.5,61.2,549.5,90.9,537.4"/>
<path fill="#CD9977" d="M75.2,514.6c31.7-1.4,58.2-14.3,68.3-19.8c2-1,2-4-0.4-4.9c-10.5-5-38-15.6-69.7-14.3
	c-31.7,1.4-58.2,14.3-68.3,19.8c-2,1-2,4,0.4,4.9C16,505.1,43.7,515.8,75.2,514.6"/>
<path fill="#CD9977" d="M502.1,449.5c-29.9,12.1-50.5,33.5-58,42c-1.4,1.6-0.4,4,1.6,4.2c11.1,1,41,2,71.1-10.1
	c29.9-12.1,50.5-33.5,58-42c1.4-1.6,0.4-4-1.6-4.2C562.1,438.6,532.2,437.4,502.1,449.5"/>
<path fill="#CD9977" d="M502.1,540.5c-29.7-12.1-50.5-33.5-58-42c-1.4-1.6-0.4-4,1.6-4.2c11.5-1,41-2,70.7,10.1s50.5,33.5,58,42
	c1.4,1.6,0.4,4-1.6,4.2C561.7,551.2,531.8,552.2,502.1,540.5"/>
<path fill="#CD9977" d="M517.2,515.8c-31.7-1.4-58.2-14.3-68.3-19.8c-2-1-2-4,0.4-5c10.5-4.9,38-15.6,69.7-14.3s58.2,14.3,68.3,19.8
	c2,1,2,4-0.4,5C576.4,506.3,548.8,517.2,517.2,515.8"/>
<path fill="#BA876A" d="M16.2,439.4c-0.6,1-0.6,2.4,0,3c7.5,8.5,25.7,23.8,52.5,41.4c6.5,4.2,12.7,8.1,17.8,10.7
	c2.6,1.4,5.9-1,5.1-4c-0.4-2-0.4-4.6,1.6-7.1c2-3,1.4-4.6,1-5.9c-0.4-1-1.4-2-2.4-2.4C66.1,466.1,32.6,452.6,16.2,439.4"/>
<path fill="#BA876A" d="M4.5,496c-0.4,1,0.4,2.4,1.4,2.6c10.5,4.6,24.2,8.5,55,16.2c7.5,2,22.2,4.2,33.3,5c3,0.4,5-3.2,3.2-5.5
	c-1-1.4-1.6-2.6-2-4.2c-1-5.1,2-9.7,0.4-13.3c-0.4-0.6-1-1.4-2-1C64.5,499,26.1,501.5,4.5,496"/>
<path fill="#BA876A" d="M18,545.1c0,1,1,2.6,2.4,2.6c11.1,1.4,41,2,71.1-9.5c4.2-1.6,8.1-3.2,11.5-5.1c1.6-1,3-3.2,1.6-4.6
	c-1.6-1.6-1.6-2.6-2.4-4.2c-0.6-2-2.4-3.2-4.2-2.6C76.8,532,48.3,542.1,18,545.1"/>
<path fill="#BA876A" d="M97.8,440.6c-0.6,3.2-1.4,7.7-1.6,10.5c2.4,5.1,4,5.1,8.1,6.5c0.4,0,4.9,0.6,4.9,0.6c0-2.6-3-4.9-3.2-10.5
	c-0.4-4-1.6-6.5-3-8.1C101.4,437.4,98,438,97.8,440.6"/>
<path fill="#BA876A" d="M576.7,441.9c0.6,1,0.6,2.4,0,3c-7.5,8.5-25.7,23.8-52.5,41.4c-6.5,4.2-12.7,8.1-17.8,10.7
	c-2.6,1.4-5.9-1-5.1-4c0.4-2,0.4-4.6-1.6-7.1c-2-3-1.4-4.6-1-5.9c0.4-1,1.4-2,2.4-2.4C526.9,468.7,560.5,455.2,576.7,441.9"/>
<path fill="#BA876A" d="M588.4,498.6c0.4,1-0.4,2.4-1.4,2.6c-10.5,4.6-24.2,8.5-55,16.2c-7.5,2-22.2,4.2-33.3,5
	c-3,0.4-4.9-3.2-3.2-5.5c1-1.4,1.6-2.6,2-4.2c1-5.1-2-9.7-0.4-13.3c0.4-0.6,1-1.4,2-1C528.6,501.5,567,504.1,588.4,498.6"/>
<path fill="#BA876A" d="M575.2,547.7c0,1-1,2.6-2.4,2.6c-11.1,1.4-41,2-71.1-9.5c-4.2-1.6-8.1-3.2-11.5-5.1c-1.6-1-3-3.2-1.6-4.6
	c1.6-1.6,1.6-2.6,2.4-4.2c0.6-2,2.4-3.2,4.2-2.6C516.2,534.4,544.9,544.9,575.2,547.7"/>
<path fill="#BA876A" d="M506.5,433.4c0,0,2.4,10.1,2.6,14.7c-5.9,2-9.7,6.9-11.1,9.7c-0.4,0.4-0.6,0.4-0.6,0c0-2.6,0-8.1,2.4-13.1
	C501.5,439,506.5,433.4,506.5,433.4"/>
<path fill="#BA876A" d="M101.4,525.3c8.1,26.7,23.4,46.9,46.3,61.8c0.6,0.4,1.6,0.4,2.4,0c2-1.6,4-3.2,5.9-5c0.6-0.6,0.6-2,0-2.6
	c-20.2-17-37.2-35.8-50.9-55.6C103.3,521.9,100.6,523.3,101.4,525.3"/>
<path fill="#BA876A" d="M96.4,451c0-7.5,4-26.1,9.5-40.4c1-2.4,3.2-3.6,5.9-3.6l0,0c3.2,0.4,5.5,4,4.6,7.1
	c-5.1,17.6-4.6,8.7-15,38.4C101.4,455,96.4,454.6,96.4,451"/>
</svg>
