<?xml version="1.0" encoding="utf-8"?>
<!-- Generator: Adobe Illustrator 18.1.1, SVG Export Plug-In . SVG Version: 6.00 Build 0)  -->
<svg version="1.1" id="Layer_1" xmlns="http://www.w3.org/2000/svg" xmlns:xlink="http://www.w3.org/1999/xlink" x="0px" y="0px"
	 viewBox="0 0 612 792" enable-background="new 0 0 612 792" xml:space="preserve">
<g>
	<path fill="#8CB8BA" d="M436,720.5c0,52.9-68.7,71.5-153.6,71.5c-85.1,0-103.8-69.3-102.8-100.8c1.4-43.6,12.5-100.8,97.2-100.8
		C362,590.2,436,667.6,436,720.5"/>
	<path fill="#8CB8BA" d="M407.3,704.1c0,46.1,50.9,62.6,113.5,62.6s76-62.8,79.6-88.3c5.1-38-6.7-136.8-69.5-136.8
		S407.3,657.9,407.3,704.1"/>
	<path fill="#8CB8BA" d="M450.9,472c0,108.9-95.6,140.4-201.4,140.4c-105.9,0-199.8-35-192.7-140.2
		c7.7-113.7,82.4-188.1,202.4-197.4C364.9,266.5,450.9,363.1,450.9,472"/>
	<path fill="#CD9977" d="M355.4,498.5c0,52.5-35.4,95.4-79.2,95.4S197,551.4,197,498.5s35.4-95.4,79.2-95.4
		C320,403.1,355.4,445.7,355.4,498.5"/>
	<path fill="#CD9977" d="M322,469.4c-29.7,11.9-49.9,33.3-57.4,41.6c-1.4,1.6-0.4,4,1.6,4.2c10.9,1,40.6,2,70.3-9.9
		c29.7-11.9,49.9-33.3,57.4-41.6c1.4-1.6,0.4-4-1.6-4.2C381,458.5,351.7,457.6,322,469.4"/>
	<path fill="#CD9977" d="M322,559.3c-29.3-11.9-49.9-33.3-57.4-41.6c-1.4-1.6-0.4-4,1.6-4.2c11.3-1,40.6-2,69.9,9.9
		c29.3,11.9,49.9,33.3,57.4,41.6c1.4,1.6,0.4,4-1.6,4.2C381,570.4,351.3,571.2,322,559.3"/>
	<path fill="#CD9977" d="M336.8,535c-31.3-1.4-57.6-14.3-67.7-19.6c-2-1-2-4,0.4-4.8c10.3-4.8,37.6-15.4,68.9-14.3
		c31.3,1.4,57.6,14.3,67.7,19.6c2,1,2,4-0.4,4.8C395.4,525.5,368.1,536.2,336.8,535"/>
	<path fill="none" stroke="#666766" stroke-width="0.5" stroke-miterlimit="10" d="M64.6,528.8c0,0,76-6.7,134.2-10.7"/>
	<path fill="#4F504F" d="M110.3,445.1c0,10.7,1.4,18-4.6,18c-5.7,0-10.3-8.7-10.3-19.4c0-10.7,4.8-19.4,10.3-19.4
		C111.3,424.5,110.3,434.4,110.3,445.1"/>
	<path fill="#B5B4B5" d="M108.1,428.6c0,2.2-1,4.2-2.2,4.2c-1.2,0-2.2-2-2.2-4.2s1-4.2,2.2-4.2C107.1,424.5,108.1,426.3,108.1,428.6
		"/>
	<path fill="#8CB8BA" d="M391.3,150.3c-45.1,76-88.3,191.3-134.2,165.9c-85.1-47.3-67.9-152.5-49.9-238S269.3-5.6,321.8,5.3
		C374.8,16.2,437.4,73.2,391.3,150.3"/>
	<path fill="#4F504F" d="M72.7,493.4c-1,1-1.4,2.2-1,2.6c0.4,0.4,1.4-0.4,2.2-1.6c1-1,1.4-2.2,1-2.6
		C74.7,491.8,73.7,492.4,72.7,493.4"/>
	<path fill="#BA876A" d="M394.8,460.5c0.6,1,0.6,2.2,0,3c-7.3,8.3-25.5,23.6-51.9,41c-6.5,4.2-12.5,8.1-17.6,10.7
		c-2.6,1.4-5.7-1-5.1-4c0.4-2,0.4-4.6-1.6-7.1c-2-3-1.4-4.6-1-5.7c0.4-1,1.4-2,2.2-2.2C345.9,486.9,378.8,473.6,394.8,460.5"/>
	<path fill="#BA876A" d="M406.3,516.6c0.4,1-0.4,2.2-1.4,2.6c-10.3,4.6-23.8,8.3-54.4,16c-7.3,2-22,4.2-32.9,4.8
		c-3,0.4-4.8-3.2-3.2-5.5c1-1.4,1.6-2.6,2-4.2c1-5.1-2-9.7-0.4-13.3c0.4-0.6,1-1.4,2-1C347.5,519.3,385.1,521.9,406.3,516.6"/>
	<path fill="#BA876A" d="M393.4,565.1c0,1-1,2.6-2.2,2.6c-10.9,1.4-40.6,2-70.3-9.3c-4.2-1.6-8.1-3.2-11.3-5.1c-1.6-1-3-3.2-1.6-4.6
		c1.6-1.6,1.6-2.6,2.2-4.2c0.6-2,2.2-3.2,4.2-2.6C335.2,552.2,363.5,562.3,393.4,565.1"/>
	<path fill="#BA876A" d="M343.6,447.8c0,0,4.6,9.1,5.5,13.5c-5.1,1.4-12.3,5.1-15,6.7c-1.6,1-6.5,4.6-7.1,4.2c-1.4-1,4-9.1,7.7-14.3
		C338.2,453.4,343.6,447.8,343.6,447.8"/>
</g>
</svg>
