<?xml version="1.0" encoding="utf-8"?>
<!-- Generator: Adobe Illustrator 18.1.1, SVG Export Plug-In . SVG Version: 6.00 Build 0)  -->
<svg version="1.1" id="Layer_1" xmlns="http://www.w3.org/2000/svg" xmlns:xlink="http://www.w3.org/1999/xlink" x="0px" y="0px"
	 viewBox="0 0 612 792" enable-background="new 0 0 612 792" xml:space="preserve">
<g>
	<path fill="#8CB8BA" d="M186.7,720.5c0-52.9,74.1-130.1,158.8-130.1s96,57.4,97.2,100.8c1,31.5-18,100.8-102.8,100.8
		C255.2,792,186.7,773,186.7,720.5"/>
	<path fill="#8CB8BA" d="M215.4,704.1c0-46.1-60.8-162.8-123.4-162.8s-74.4,99.2-69.5,136.8c3.2,25.5,17,88.3,79.6,88.3
		C164.6,766.9,215.4,750.4,215.4,704.1"/>
	<path fill="#8CB8BA" d="M171.5,472.1c0-108.9,85.9-205.1,191.7-197.2c119.8,9.3,194.6,83.8,202.4,197.4
		c7.1,104.9-86.7,140.2-192.7,140.2C267.1,612.6,171.5,581,171.5,472.1"/>
	<path fill="#CD9977" d="M267.1,498.6c0-52.5,35.4-95.4,79.2-95.4s79.2,42.6,79.2,95.4S390.1,594,346.3,594S267.1,551.1,267.1,498.6
		"/>
	<path fill="#CD9977" d="M300.4,469.5c-29.7-11.9-59-10.9-70.3-9.9c-2,0.4-3,2.6-1.6,4.2c7.3,8.3,27.7,29.7,57.4,41.6
		c29.7,11.9,59,10.9,70.3,9.9c2-0.4,3-2.6,1.6-4.2C350.7,502.7,330.1,481.6,300.4,469.5"/>
	<path fill="#CD9977" d="M300.4,559.4c-29.3,11.9-59,10.9-69.9,9.9c-2-0.4-3-2.6-1.6-4.2c7.3-8.3,27.7-29.7,57.4-41.6
		c29.3-11.9,59-10.9,69.9-9.9c2,0.4,3,2.6,1.6,4.2C350.3,526.3,330.1,547.5,300.4,559.4"/>
	<path fill="#CD9977" d="M285.9,535c-31.3,1.4-58.6-9.3-68.9-14.3c-2-1-2-3.6-0.4-4.8c9.9-5.5,36-18.4,67.7-19.6
		c31.3-1.4,58.6,9.3,68.9,14.3c2,1,2.2,3.6,0.4,4.8C343.6,520.8,317.2,533.6,285.9,535"/>
	<path fill="none" stroke="#666766" stroke-width="0.5" stroke-miterlimit="10" d="M423.5,518.2c58.2,4,134.2,10.7,134.2,10.7"/>
	<path fill="#4F504F" d="M512.1,445.1c0-10.7-1.4-20.6,4.6-20.6s10.3,8.7,10.3,19.4s-4.8,19.4-10.3,19.4
		C511.1,463.1,512.1,455.6,512.1,445.1"/>
	<path fill="#B5B4B5" d="M514.2,428.7c0-2.2,1-4.2,2.2-4.2s2.2,2,2.2,4.2s-1,4.2-2.2,4.2S514.2,430.9,514.2,428.7"/>
	<path fill="#8CB8BA" d="M231.1,150.3c-45.7-77,16.8-133.7,69.3-144.9c52.9-10.9,97-13.3,114.6,72.9c17.6,86.1,34.8,190.7-49.9,238
		C319.4,341.8,276.2,226.3,231.1,150.3"/>
	<path fill="#4F504F" d="M549.7,493.4c-1-1-2-2-2.2-1.6c-0.4,0.4,0.4,1.4,1,2.6c1,1,2,2,2.2,1.6
		C551.3,495.6,550.7,494.6,549.7,493.4"/>
	<path fill="#BA876A" d="M227.5,460.6c16,13.3,48.9,26.3,75,35.8c1,0.4,2,1.4,2.2,2.2c0.4,1.4,1,3-1,5.7c-1.6,2.6-2,5.1-1.6,7.1
		c0.6,3-2.6,5.1-5.1,4c-5.1-2.6-11.7-6.5-17.6-10.7c-26.7-17.4-44.7-32.5-51.9-41C226.9,462.7,226.9,461.6,227.5,460.6"/>
	<path fill="#BA876A" d="M216,516.6c21.2,5.5,59.2,3,88.3,0c0.6,0,1.6,0.4,2,1c1.6,3.6-1.4,8.1-0.4,13.3c0.4,1.4,1,3,2,4.2
		c1.6,2.6-0.4,5.7-3.2,5.5c-10.7-1-25.1-3.2-32.9-4.8c-30.9-7.7-44.6-11.7-54.5-16C216.2,518.8,215.6,517.8,216,516.6"/>
	<path fill="#BA876A" d="M229.3,565.3c29.9-3,58.2-12.9,79.2-22.6c2-1,3.6,0.4,4.2,2.6c0.4,1.6,0.6,2.6,2.2,4.2
		c1.4,1.4,0,3.6-1.6,4.6c-3.2,1.6-7.1,3.6-11.3,5.1c-29.7,11.7-59.2,10.7-70.3,9.3C230.1,567.9,229.3,566.1,229.3,565.3"/>
	<path fill="#BA876A" d="M278.8,447.9c0,0,5.5,5.5,9.1,10.3c4,5.1,9.1,13.3,7.7,14.3c-0.6,0.4-5.5-3.2-7.1-4.2c-3-2-9.9-5.7-15-6.7
		C274.3,457,278.8,447.9,278.8,447.9"/>
</g>
</svg>
