<?xml version="1.0" encoding="utf-8"?>
<!-- Generator: Adobe Illustrator 18.1.1, SVG Export Plug-In . SVG Version: 6.00 Build 0)  -->
<svg version="1.1" id="图层_1" xmlns="http://www.w3.org/2000/svg" xmlns:xlink="http://www.w3.org/1999/xlink" x="0px" y="0px"
	 viewBox="0 0 612 792" enable-background="new 0 0 612 792" xml:space="preserve">
<g id="Layer_1">
	<path fill="#8CB8BA" d="M522.2,476c0,110.1-104.3,142.2-219,142.2C187.8,618.2,105,586.3,105,476s93.3-199.4,208.5-199.4
		S522.2,365.7,522.2,476"/>
	<path fill="#8CB8BA" d="M417.2,715.2c0,56-44.4,76.8-99,76.8c-54.1,0-98.4-20.2-98.4-76.8s40.4-139.6,95.2-139.6
		C370.3,576.4,417.2,659.2,417.2,715.2"/>
	<path fill="#8CB8BA" d="M386.6,133.7c-22.8,88.7-37.8,216.4-77.6,200.8c-74.3-30.7-77.6-142.8-77.6-234.6S265.8,0,308.9,0
		C351.9-1.2,409.9,44.4,386.6,133.7"/>
	<path fill="#4F504F" d="M299.8,489.1c0.6,0.6,1.4,2.6,0.6,2.6c0,0-1.4,0-2-1.4c-1.4-0.6-1.4-2.6-1.4-2.6
		C297.9,487.1,298.4,487.7,299.8,489.1"/>
	<path fill="#4F504F" d="M327.9,489.1c-0.6,0.6-1.4,2.6-0.6,2.6c0,0,1.4,0,2-1.4c1.4-0.6,1.4-2.6,1.4-2.6
		C329.7,487.1,329.1,487.7,327.9,489.1"/>
	<path fill="#BA876A" d="M108.2,440.8c-0.6,3.2-1.4,7.9-1.4,10.5c2.6,5.1,4,5.1,7.9,6.5l5.1,0.6c0-2.6-3.2-5.1-3.2-10.5
		c0-4-1.4-6.5-3.2-7.9C111.5,437.6,108.2,437.6,108.2,440.8"/>
	<g opacity="0.52">
		<path fill="#F7F5F5" d="M187.8,512.4c7.1,15.6,5.9,50.9,124.5,50.9c111.5,0,123.2-36.4,124.5-53.5c-31.3,2.6-77.6,11.7-124.5,11.7
			C266,521.5,219,513.8,187.8,512.4z"/>
	</g>
	<g>
		<path fill="#CD9977" d="M198.9,503.3c0-52.9-35.8-96.4-80.2-96.4h-0.6c-7.9,20.8-12.5,43-12.5,66.5c0,54.8,18.2,90.7,54.1,114
			C182.4,570.4,198.9,538.6,198.9,503.3"/>
		<path fill="#CD9977" d="M429.5,504.7c0-52.9,35.8-96.4,80.2-96.4h0.6c7.9,20.8,12.5,43,12.5,66.5c0,54.8-24.2,87.3-58.6,108.9
			C440.6,567.3,429.5,539.2,429.5,504.7"/>
		<path fill="#CD9977" d="M100.4,447.9c29.9,12.5,50.9,33.3,58,41.8c1.4,1.4,0,4-1.4,4.6c-11.1,0.6-41,2-71.1-10.5
			c-29.9-12.5-50.9-33.3-58-41.8c-1.4-1.4,0-4,1.4-4.6C40.5,437.6,70.4,435.6,100.4,447.9"/>
		<path fill="#CD9977" d="M101.6,537.2c29.3-11.7,50.9-33.3,58-41.8c1.4-1.4,0-4-1.4-4c-11.7-0.6-41-2-71.1,9.7
			c-29.3,12.5-50.9,33.9-58,42.4c-1.4,1.4,0,4,1.4,4C41.6,548.3,71.7,549.1,101.6,537.2"/>
		<path fill="#CD9977" d="M86,514.4c31.9-1.4,58.6-14.3,68.5-19.6c2-0.6,2-4,0-5.1c-10.5-5.1-38.4-15.6-69.7-14.3
			c-31.9,1.4-58.6,14.3-68.5,20.2c-2,0.6-2,4,0,5.1C26,505.3,54.1,515.8,86,514.4"/>
		<path fill="#CD9977" d="M512.9,449.3c-29.9,12.5-50.9,33.9-58,42.4c-1.4,1.4,0,4,1.4,4c11.1,0.6,41,2,71.1-10.5
			c29.9-11.7,50.9-33.3,58-41.8c1.4-1.4,0-4-1.4-4C572.9,438.2,543,437.6,512.9,449.3"/>
		<path fill="#CD9977" d="M512.9,540.6c-29.9-11.7-50.9-33.3-58-41.8c-1.4-1.4,0-4,1.4-4c11.7-0.6,41-2,70.5,9.7
			c29.9,12.5,50.9,33.9,58,42.4c1.4,1.4,0,4-1.4,4C572.3,551.6,543,552.2,512.9,540.6"/>
		<path fill="#CD9977" d="M527.9,515.8c-31.9-1.4-58.6-14.3-68.5-19.6c-2-1.4-2-4,0-5.1c10.5-5.1,37.8-15.6,69.7-14.3
			c31.9,1.4,58.6,14.3,68.5,19.6c2,1.4,2,4,0,5.1C587.3,505.9,559.2,517,527.9,515.8"/>
		<path fill="#BA876A" d="M26.8,439.4c-0.6,0.6-0.6,2.6,0,3.2c7.1,8.5,26.1,23.6,52.1,41c6.5,4.6,13.1,7.9,18.2,11.1
			c2.6,1.4,5.9-1.4,5.1-4c0-2,0-4.6,1.4-7.1c2-3.2,1.4-4.6,0.6-5.9c0-0.6-1.4-2-2-2C76.9,466.1,43,452.4,26.8,439.4"/>
		<path fill="#BA876A" d="M14.9,496.2c0,0.6,0,2,1.4,2.6c10.5,4.6,24.2,8.5,55.4,16.2c7.1,2,22.2,4.6,33.3,5.1
			c3.2,0.6,5.1-3.2,3.2-5.1c-0.6-1.4-1.4-2.6-2-4.6c-1.4-5.1,2-9.7,0-13.1c0-0.6-0.6-1.4-2-0.6C74.9,498.8,36.5,501.3,14.9,496.2"/>
		<path fill="#BA876A" d="M28,545.1c0,0.6,0.6,2.6,2.6,2.6c11.1,1.4,41,2,71.1-9.1c4-1.4,7.9-3.2,11.7-5.1c1.4-0.6,3.2-3.2,1.4-4.6
			c-1.4-1.4-1.4-2.6-2.6-4.6c-0.6-2-2-3.2-4-2.6C87.4,532,58.7,541.7,28,545.1"/>
		<path fill="#BA876A" d="M587.3,441.4c0.6,0.6,0.6,2.6,0,2.6c-7.1,8.5-25.3,24.2-52.1,41.8c-6.5,4-13.1,7.9-18.2,10.5
			c-2.6,1.4-5.9-0.6-5.1-4c0.6-2,0.6-4.6-1.4-7.1c-2-2.6-1.4-4.6-0.6-5.9c0-1.4,1.4-2,2.6-2.6C537.8,468.1,570.9,455,587.3,441.4"/>
		<path fill="#BA876A" d="M599.6,498.8c0,0.6-0.6,2.6-1.4,2.6c-10.5,4.6-24.2,8.5-54.8,16.2c-7.9,2-22.2,4-33.3,5.1
			c-3.2,0-5.1-3.2-3.2-5.9c0.6-1.4,1.4-2.6,2-4c1.4-5.1-2-9.7,0-13.1c0-0.6,0.6-1.4,2-1.4C539.6,501.3,577.4,503.9,599.6,498.8"/>
		<path fill="#BA876A" d="M585.9,547.7c0,0.6-0.6,2.6-2,2.6c-11.1,1.4-41,2-71.1-9.7c-4-1.4-7.9-3.2-11.7-5.1
			c-1.4-0.6-2.6-3.2-1.4-4.6s1.4-2.6,2.6-4c0.6-2,2.6-3.2,4-2.6C526.7,534.6,556,545.1,585.9,547.7"/>
		<path fill="#BA876A" d="M516.8,433.6c0,0,2.6,10.5,2.6,14.3c-5.9,2-9.7,7.1-11.1,9.7c-0.6,0.6-0.6,0.6-0.6,0c0-2.6,0-7.9,2.6-13.1
			C512.3,438.8,516.8,433.6,516.8,433.6"/>
		<path fill="#BA876A" d="M111.5,525.5c7.9,26.7,23.6,46.9,46.3,62c0.6,0,1.4,0,2.6,0c2-1.4,4-3.2,5.9-5.1c0.6-0.6,0.6-2,0-2.6
			c-20.2-17-37.2-35.8-50.9-55.4C114.1,522.3,110.7,522.9,111.5,525.5"/>
		<path fill="#BA876A" d="M107,450.5c0-7.1,4-26.1,9.7-40.4c0.6-2.6,3.2-4,5.9-4l0,0c3.2,0.6,5.9,4,4.6,7.1
			c-5.1,17.6-4.6,8.5-15,38.4C111.5,454.4,107,454.4,107,450.5"/>
	</g>
	<g>
		<path fill="#4F504F" d="M368.3,447.3c0,0-0.6-3.2-0.6-7.9c0-2.6,0-5.1,0.6-7.9c0.6-1.4,0.6-3.2,1.4-4.6c0.6-1.4,1.4-3.2,3.2-4.6
			c0.6,0,1.4-0.6,2-0.6c0.6,0,0,0,0.6,0h0.6c0.6,0,0.6,0.6,0.6,0.6c0.6,0.6,1.4,1.4,2,2c0.6,1.4,1.4,2.6,2,4c1.4,2.6,2,5.1,2,7.9
			c0.6,2.6,0.6,4.6,0.6,5.9c0,1.4,0,2,0,2s-0.6-3.2-2-7.1c-0.6-2-2-4.6-3.2-7.1c-0.6-1.4-1.4-2.6-2-4c-0.6-0.6-0.6-1.4-1.4-1.4l0,0
			l0,0c0,0-0.6,0,0,0c0,0,0,0-0.6,0c-0.6,0-1.4,1.4-2,2.6c-0.6,1.4-1.4,2.6-1.4,4c-0.6,2.6-1.4,5.1-2,7.1
			C368.9,444.1,368.3,447.3,368.3,447.3z"/>
	</g>
	<g>
		<path fill="#4F504F" d="M246.4,449.9c0,0-0.6-3.2-0.6-7.9c0-2.6,0-5.1,0.6-7.9c0.6-1.4,0.6-3.2,1.4-4.6c0.6-1.4,1.4-3.2,3.2-4.6
			c0.6,0,1.4-0.6,2-0.6s0,0,0.6,0h0.6c0.6,0,0.6,0.6,0.6,0.6c0.6,0.6,1.4,1.4,2,2c0.6,1.4,1.4,2.6,2,4c1.4,2.6,2,5.1,2,7.9
			c0.6,2.6,0.6,4.6,0.6,5.9c0,1.4,0,2,0,2s-0.6-3.2-2-7.1c-0.6-2-2-4.6-3.2-7.1c-0.6-1.4-1.4-2.6-2-4c-0.6-0.6-0.6-1.4-1.4-1.4l0,0
			l0,0c0,0-0.6,0,0,0c0,0,0,0-0.6,0s-1.4,1.4-2,2.6c-0.6,1.4-1.4,2.6-1.4,4c-0.6,2.6-1.4,5.1-2,7.1
			C247,446.7,246.4,449.9,246.4,449.9z"/>
	</g>
	<path opacity="0.14" fill="#BA876A" enable-background="new    " d="M104.2,487.1c0,1.4,0,2-1.4,2.6c-9.7,4.6-23.6,8.5-54.1,16.2
		c-7.1,2-21.6,4-32.7,5.1c-3.2,0-4.6-3.2-3.2-5.1c0.6-1.4,1.4-2.6,2-4c1.4-5.1-2-9.7,0-13.1c0.6-0.6,1.4-1.4,2-1.4
		C46.2,489.7,83.4,492.2,104.2,487.1"/>
</g>
<g id="图层_2" display="none">
	<g display="inline">
		<path opacity="0.14" fill="#8CB8BA" enable-background="new    " d="M767.7,551.9c0,32.7-30.9,42.2-65.1,42.2
			c-34.3,0-58.8-9.5-58.8-42.2s27.7-59.2,62-59.2C740,492.7,767.7,519.2,767.7,551.9"/>
		<path opacity="0.14" fill="#8CB8BA" enable-background="new    " d="M736.7,622.9c0,16.8-13.1,22.8-29.3,22.8s-29.3-5.9-29.3-22.8
			s12.1-41.4,28.3-41.4S736.7,606.1,736.7,622.9"/>
		<path opacity="0.14" fill="#8CB8BA" enable-background="new    " d="M727.6,450.5c-6.7,26.1-11.3,64.4-23,59.4
			c-22-9.1-23-42.4-23-69.7c0-27.5,10.3-29.7,23-29.7C717.3,410.5,734.5,424,727.6,450.5"/>
		<path opacity="0.14" fill="#4F504F" enable-background="new    " d="M689.1,540.2c0,3.2-1.4,5.7-3.2,5.7c-1.8,0-3.2-2.6-3.2-5.7
			c0-3.2,1.4-5.7,3.2-5.7C687.6,534.2,689.1,536.8,689.1,540.2"/>
		<path opacity="0.14" fill="#B5B4B5" enable-background="new    " d="M687.4,536.8c0,1.4-0.6,2.4-1.4,2.4s-1.4-1.2-1.4-2.4
			c0-1.2,0.6-2.4,1.4-2.4C686.6,534.2,687.4,535.4,687.4,536.8"/>
		<path opacity="0.14" fill="#4F504F" enable-background="new    " d="M727.4,540.2c0,3.2-1.4,5.7-3.2,5.7s-3.2-2.6-3.2-5.7
			c0-3.2,1.4-5.7,3.2-5.7S727.4,536.8,727.4,540.2"/>
		<path opacity="0.14" fill="#B5B4B5" enable-background="new    " d="M725.6,536.8c0,1.4-0.6,2.4-1.4,2.4s-1.4-1.2-1.4-2.4
			c0-1.2,0.6-2.4,1.4-2.4S725.6,535.4,725.6,536.8"/>
		
			<line opacity="0.14" fill="none" stroke="#666766" stroke-width="0.5" stroke-miterlimit="10" enable-background="new    " x1="669.3" y1="564.7" x2="742.4" y2="564.7"/>
		<path opacity="0.14" fill="#CD9977" enable-background="new    " d="M671.7,560.2c0-15.8-10.7-28.5-23.8-28.5h-0.2
			c-2.4,6.1-3.6,12.9-3.6,19.6c0,16.2,5.3,26.7,16,33.7C667,580,671.7,570.3,671.7,560.2"/>
		<path opacity="0.14" fill="#CD9977" enable-background="new    " d="M740.2,560.4c0-15.8,10.7-28.5,23.8-28.5h0.2
			c2.4,6.1,3.6,12.9,3.6,19.6c0,16.2-7.1,25.9-17.4,32.3C743.6,578.8,740.2,570.7,740.2,560.4"/>
		<path opacity="0.14" fill="#4F504F" enable-background="new    " d="M701.8,555.8c0.2,0.4,0.4,0.6,0.4,0.8c0,0-0.4-0.2-0.6-0.4
			c-0.2-0.4-0.4-0.6-0.4-0.8S701.4,555.4,701.8,555.8"/>
		<path opacity="0.14" fill="#4F504F" enable-background="new    " d="M710.1,555.8c-0.2,0.4-0.4,0.6-0.4,0.8c0,0,0.4-0.2,0.6-0.4
			c0.2-0.4,0.4-0.6,0.4-0.8S710.5,555.4,710.1,555.8"/>
		<path opacity="0.14" fill="#CD9977" enable-background="new    " d="M642.6,543.5c8.9,3.6,15,9.9,17.2,12.5
			c0.4,0.4,0.2,1.2-0.4,1.2c-3.4,0.2-12.3,0.6-21-3c-8.9-3.6-15-9.9-17.2-12.5c-0.4-0.4-0.2-1.2,0.4-1.2
			C624.8,540.4,633.7,540,642.6,543.5"/>
		<path opacity="0.14" fill="#CD9977" enable-background="new    " d="M642.8,570.1c8.9-3.6,15-9.9,17.2-12.5
			c0.4-0.4,0.2-1.2-0.6-1.2c-3.4-0.2-12.3-0.6-21,3c-8.9,3.6-15,9.9-17.2,12.5c-0.4,0.4-0.2,1.2,0.6,1.2
			C625.2,573.2,634.1,573.6,642.8,570.1"/>
		<path opacity="0.14" fill="#CD9977" enable-background="new    " d="M638.3,563.3c9.5-0.4,17.2-4.4,20.4-5.9
			c0.6-0.4,0.6-1.2,0-1.4c-3.2-1.4-11.3-4.6-20.8-4.2s-17.2,4.4-20.4,5.9c-0.6,0.4-0.6,1.2,0,1.4
			C620.6,560.4,628.7,563.7,638.3,563.3"/>
		<path opacity="0.14" fill="#CD9977" enable-background="new    " d="M765,543.9c-8.9,3.6-15,9.9-17.2,12.5
			c-0.4,0.4-0.2,1.2,0.4,1.2c3.4,0.2,12.3,0.6,21-3c8.9-3.6,15-9.9,17.2-12.5c0.4-0.4,0.2-1.2-0.4-1.2
			C782.8,540.8,773.9,540.4,765,543.9"/>
		<path opacity="0.14" fill="#CD9977" enable-background="new    " d="M765,571.1c-8.9-3.6-15-9.9-17.2-12.5
			c-0.4-0.4-0.2-1.2,0.6-1.2c3.4-0.2,12.3-0.6,21,3c8.9,3.6,15,9.9,17.2,12.5c0.4,0.4,0.2,1.2-0.6,1.2
			C782.6,574.2,773.9,574.6,765,571.1"/>
		<path opacity="0.14" fill="#CD9977" enable-background="new    " d="M769.3,563.7c-9.5-0.4-17.2-4.4-20.4-5.9
			c-0.6-0.4-0.6-1.2,0-1.4c3.2-1.4,11.3-4.6,20.8-4.2c9.5,0.4,17.2,4.4,20.4,5.9c0.6,0.4,0.6,1.2,0,1.4
			C787,560.8,778.8,564.1,769.3,563.7"/>
		<path opacity="0.14" fill="#BA876A" enable-background="new    " d="M645,541.4c-0.2,1-0.4,2.4-0.4,3.2c0.6,1.6,1.2,1.6,2.4,2
			l1.4,0.2c0-0.8-0.8-1.4-1-3.2c-0.2-1.2-0.4-2-0.8-2.4C646,540.4,645,540.6,645,541.4"/>
		<path opacity="0.14" fill="#BA876A" enable-background="new    " d="M646,566.5c2.4,7.9,6.9,13.9,13.7,18.4c0.2,0.2,0.4,0.2,0.6,0
			c0.6-0.4,1.2-1,1.8-1.4c0.2-0.2,0.2-0.6,0-0.8c-5.9-5-11.1-10.7-15-16.4C646.6,565.5,645.8,565.9,646,566.5"/>
		<path opacity="0.14" fill="#BA876A" enable-background="new    " d="M644.6,544.3c0-2.2,1.2-7.7,2.8-11.9c0.2-0.8,1-1.2,1.8-1l0,0
			c1,0.2,1.6,1.2,1.4,2.2c-1.6,5.3-1.4,2.6-4.4,11.5C646,545.5,644.6,545.5,644.6,544.3"/>
	</g>
</g>
</svg>
