<?xml version="1.0" encoding="utf-8"?>
<!-- Generator: Adobe Illustrator 18.1.1, SVG Export Plug-In . SVG Version: 6.00 Build 0)  -->
<svg version="1.1" id="图层_1" xmlns="http://www.w3.org/2000/svg" xmlns:xlink="http://www.w3.org/1999/xlink" x="0px" y="0px"
	 viewBox="0 0 200 300" enable-background="new 0 0 200 300" xml:space="preserve">
<polygon fill="#D76258" points="64.7,38.4 29.8,18.3 29.8,32.2 16,32.2 16,35.3 16,36.7 16,37 16,39.5 16,39.7 16,41.4 16,44.2 
	16,44.5 29.8,44.5 29.8,58.6 "/>
<polygon fill="#D76258" points="16,96.9 50.9,76.8 50.9,90.7 64.7,90.7 64.7,93.8 64.7,95.2 64.7,95.5 64.7,98 64.7,98.2 64.7,99.9 
	64.7,102.7 64.7,103 50.9,103 50.9,117.1 "/>
<polygon fill="#D76258" points="36.2,133.3 56.3,168.2 42.4,168.2 42.4,181.9 39.3,181.9 37.9,181.9 37.6,181.9 35.1,181.9 
	34.8,181.9 33.2,181.9 30.4,181.9 30.1,181.9 30.1,168.2 16,168.2 "/>
<g>
	<path fill="#D76258" d="M11.7,224.1l-0.4-9.3l0.2-0.2c0,0,0.1,0,0.1,0c0,0,0.1,0,0.1-0.1c0.3-0.2,0.6-0.3,0.9-0.3h1.2l1.7,4.9
		l0.7,3.3l0.8,2.2v0.1l0.8-8.2l0.4-2.5l0.2-0.1c0.1,0,0.2-0.1,0.4-0.2l0.1,0c0,0,0.1,0,0.2,0c0.1,0,0.1,0,0.2-0.1
		c0.1,0,0.2-0.1,0.3-0.1c0.1,0,0.2,0,0.3,0c0.2,0,0.5,0.1,0.8,0.2c0.1,0,0.2,0.1,0.3,0.2c0.1,0.1,0.2,0.1,0.3,0.2
		c0,0.1,0.1,0.1,0.2,0.2s0.1,0.1,0.2,0.2l0.1,0.1v5.6c0,0.1,0.1,0.3,0.1,0.4c0,0.2,0.1,0.4,0.1,0.7c0,0.2,0.1,0.5,0.1,0.8
		c0,0.3,0.1,0.6,0.1,0.9c0.1,0.8,0.2,1.6,0.3,2.5l1.1,11.2v0.9l0,0.1c-0.1,0.3-0.2,0.5-0.4,0.7c-0.1,0.2-0.3,0.4-0.4,0.5
		c-0.3,0.2-0.5,0.3-0.9,0.3c-0.3,0-0.5-0.1-0.6-0.2c0,0-0.1-0.1-0.2-0.2s-0.1-0.1-0.2-0.2c-0.1-0.1-0.2-0.3-0.3-0.4l0-0.1V236
		l-0.8-6.7l0-0.3c0,0,0,0.1,0,0.1c0,0.2-0.1,0.5-0.1,0.8c-0.1,0.3-0.1,0.5-0.2,0.7v0.3c0,0.1,0,0.2,0,0.3c0,0.1,0,0.2,0,0.4
		c0,0.2,0,0.3-0.1,0.5c0,0.2,0,0.3,0,0.5l-0.1,1c0,0.4-0.1,0.9-0.1,1.3c0,0.5-0.1,1-0.1,1.5v1.6l-0.1,0.1c-0.1,0.2-0.2,0.3-0.3,0.4
		c-0.1,0.1-0.2,0.1-0.3,0.2s-0.2,0.1-0.3,0.2c-0.2,0.1-0.4,0.2-0.7,0.2c-0.3,0-0.5,0-0.6-0.1c-0.2-0.1-0.3-0.1-0.4-0.2
		c-0.1-0.1-0.1-0.2-0.1-0.3c0-0.1,0-0.1-0.1-0.2c0-0.2-0.1-0.3-0.1-0.5c0-0.2-0.1-0.3-0.1-0.5v0c0-0.1,0-0.2-0.1-0.4
		c0-0.1,0-0.3-0.1-0.4c0-0.1,0-0.2,0-0.3s0-0.2,0-0.3v-3.3l-0.8-2.8v6.5v0.1c0,0.1-0.1,0.2-0.1,0.3s-0.1,0.2-0.1,0.3h0l-0.2,0.5
		c0,0.1-0.1,0.2-0.2,0.3s-0.1,0.2-0.2,0.2c-0.1,0.1-0.3,0.3-0.5,0.4c-0.1,0-0.2,0-0.2,0.1c-0.1,0-0.1,0-0.2,0
		c-0.2,0.1-0.4,0.1-0.6,0.1l-0.4-0.1V224.1z"/>
	<path fill="#D76258" d="M32.7,214.6c0.2,0.2,0.5,0.4,0.6,0.6c0.1,0.1,0.2,0.2,0.3,0.4c0.1,0.1,0.2,0.2,0.3,0.4l0.1,0.1l0.4,1.7v0.5
		l-0.4,9.6v5c0,0.3,0,0.5,0,0.7c0,0.2,0,0.4-0.1,0.7c0,0.2-0.1,0.4-0.1,0.6c0,0.2-0.1,0.4-0.1,0.6c-0.1,0.4-0.3,0.8-0.5,1.1
		c-0.3,0.7-0.7,1.2-1.4,1.6c-0.7,0.4-1.5,0.6-2.6,0.6c-0.3,0.1-0.5,0.1-0.8,0.1c-0.1,0-0.2,0-0.3,0s-0.2,0-0.3-0.1
		c-0.2,0-0.4-0.1-0.6-0.2c-0.2-0.1-0.4-0.2-0.5-0.3c-0.2-0.1-0.3-0.2-0.5-0.3c-0.1-0.1-0.3-0.3-0.4-0.4c-0.1-0.1-0.3-0.2-0.4-0.4
		c-0.1-0.1-0.3-0.3-0.4-0.4c-0.2-0.1-0.3-0.4-0.4-0.9c-0.1-0.3-0.1-0.7-0.2-1.1c0-0.2-0.1-0.4-0.1-0.7c0-0.2,0-0.4-0.1-0.7
		c0-0.2,0-0.5-0.1-0.7c0-0.2,0-0.5,0-0.7c-0.1-1.2-0.1-2.4-0.1-3.8l0-0.1l0.4-4.6v-6.2c0-0.1,0-0.3,0-0.4s0-0.3,0.1-0.4
		c0-0.3,0.1-0.6,0.1-0.7c0.1-0.3,0.2-0.5,0.3-0.7c0.2-0.4,0.5-0.8,0.9-1c0.4-0.2,0.7-0.3,1.1-0.3h0.8c0,0,0.1,0,0.1,0c0,0,0,0,0.1,0
		c0,0,0.1-0.1,0.2-0.1c0.1,0,0.1,0,0.2-0.1l0.5-0.2H30c0.1,0,0.2,0,0.3,0c0.1,0,0.2,0,0.4,0c0.1,0,0.3,0.1,0.5,0.1
		c0.2,0,0.4,0.1,0.6,0.2l0.1,0c0.2,0.1,0.3,0.2,0.5,0.3C32.5,214.4,32.6,214.5,32.7,214.6z M30.4,235.5c0.3-0.5,0.5-1,0.6-1.5
		c0.1-0.7,0.1-1.4,0-2.2l0,0v-14.1c0-0.1-0.1-0.2-0.2-0.3c-0.1-0.2-0.4-0.4-0.6-0.6l-0.1,0l0,0c-0.1-0.1-0.2-0.2-0.2-0.2
		c-0.1-0.1-0.1-0.1-0.2-0.2c-0.2-0.1-0.3-0.1-0.4-0.2v0c0,0-0.1,0-0.2,0c-0.1,0-0.1,0-0.2,0c-0.1,0-0.3,0-0.4,0.1l0,0
		c-0.1,0-0.3,0-0.3,0.1l-0.2,0.2c0,0.1,0,0.2,0,0.4s0,0.3-0.1,0.4c0,0.2,0,0.4-0.1,0.6c0,0.2,0,0.4-0.1,0.6c0,0.2-0.1,0.4-0.1,0.7
		c0,0.2,0,0.5-0.1,0.7v11.9c0,0.5-0.1,0.9,0,1.3c0,0.4,0.1,0.8,0.2,1.1c0,0.2,0.1,0.3,0.1,0.4c0,0.1,0.1,0.3,0.1,0.4
		c0.1,0.2,0.2,0.4,0.3,0.6c0,0.1,0.1,0.2,0.2,0.2c0.1,0.1,0.2,0.1,0.2,0.2c0.2,0.1,0.4,0.1,0.6,0.1
		C29.8,236.1,30.2,235.9,30.4,235.5z"/>
	<path fill="#D76258" d="M45.9,214.4l0.5,1.9l-0.4,0.9v7.2l-0.4,0.8l0,6.4l-0.4,4.8l-0.4,0.4v0.8l-0.1,0.1c-0.1,0.1-0.3,0.3-0.4,0.4
		c-0.1,0.1-0.3,0.2-0.5,0.3c-0.1,0-0.3,0.1-0.4,0.2c-0.1,0.1-0.2,0.2-0.3,0.2l-0.1,0.2h-4.5c-0.5,0-0.9-0.1-1.3-0.3
		c-0.2-0.1-0.3-0.2-0.5-0.3c-0.1-0.1-0.3-0.2-0.4-0.3c-0.1-0.1-0.3-0.3-0.4-0.4c-0.1-0.1-0.2-0.3-0.3-0.5l0-0.1v-22.4
		c0-0.2,0.1-0.5,0.4-0.7c0.1,0,0.1-0.1,0.2-0.1c0.1,0,0.1-0.1,0.2-0.1l0.1,0l0.8-0.3l0.5,0.2l0.1,0.1c0,0,0.1,0,0.1,0
		c0.1,0.1,0.2,0.3,0.2,0.5c0.1,0.2,0.2,0.5,0.2,0.8c0,0.2,0,0.3,0,0.4c0,0.1,0,0.3,0.1,0.4v0c0,0.2,0,0.4,0.1,0.6
		c0,0.2,0,0.4,0.1,0.6v0v9.3l0.5,0.5l-0.5,1.1v0.2l0.4,7.5l0.6,0.6c0,0,0.1,0.1,0.2,0.1c0.1,0,0.2,0.1,0.5,0.1c0.2,0,0.4,0,0.6,0
		c0.2,0,0.4,0,0.5,0c0.1-0.1,0.2-0.1,0.3-0.2c0.1-0.1,0.2-0.2,0.2-0.3l0,0c0,0,0.1-0.1,0.2-0.2v-4.1l0.4-10.9h0.4v-5.8l0.2-0.2
		c0,0,0.1-0.1,0.1-0.1c0,0,0.1-0.1,0.2-0.1l0.1,0c0,0,0.1-0.1,0.2-0.1c0.1,0,0.1-0.1,0.2-0.1c0.1-0.1,0.3-0.2,0.5-0.3l0.1-0.1h0.2
		c0.2,0,0.4,0,0.5,0.1c0,0,0.1,0,0.1,0s0.1,0,0.1,0.1h0L45.9,214.4z"/>
	<path fill="#D76258" d="M50.5,238.7c-0.3-0.1-0.5-0.2-0.7-0.4c-0.2-0.1-0.4-0.3-0.5-0.5c-0.3-0.3-0.4-0.7-0.5-1.1
		c-0.1-0.3-0.1-0.5-0.1-0.7c0-0.1-0.1-0.2-0.1-0.4s-0.1-0.3-0.1-0.5c0-0.2,0-0.4-0.1-0.6c0-0.2,0-0.4,0-0.6c0-0.2,0-0.4,0-0.6
		c0-0.2,0-0.4,0.1-0.5c0.1-0.5,0.2-0.8,0.4-1c0.1-0.1,0.2-0.1,0.3-0.2c0.1-0.1,0.2-0.1,0.4-0.1c0.2,0,0.4,0.1,0.5,0.2
		c0.3,0,0.6,0.1,0.9,0.3c0.1,0.1,0.2,0.2,0.3,0.3c0.1,0.1,0.2,0.2,0.3,0.3l0.2,0.2l0,0.3c0,0.2-0.1,0.4-0.1,0.6
		c0,0.2-0.1,0.4-0.1,0.5v0.1c0,0.3,0,0.6,0,0.9c0,0.2,0,0.3,0,0.4c0,0.1,0,0.1,0.1,0.2l0.1,0.1v0.1v0.1c0.2,0,0.3,0,0.5,0.1
		c0.2,0,0.4,0,0.7,0c0.5,0,0.8-0.1,1-0.3c0.3-0.3,0.6-0.7,0.7-1.2v0c0,0,0-0.1,0-0.1c0,0,0-0.1,0-0.2s0-0.1,0-0.2
		c0-0.2-0.1-0.4-0.1-0.6c0-0.2-0.1-0.4-0.1-0.6c0-0.2-0.1-0.5-0.2-0.7s-0.1-0.5-0.2-0.7c-0.1-0.5-0.2-1-0.2-1.4c0,0,0-0.2-0.1-0.3
		c-0.1-0.2-0.2-0.4-0.4-0.7c-0.2-0.3-0.4-0.5-0.6-0.8c-0.2-0.3-0.4-0.5-0.7-0.8c-0.3-0.3-0.5-0.5-0.8-0.8c-0.2-0.2-0.5-0.5-0.7-0.7
		c-0.3-0.2-0.5-0.4-0.6-0.6c-0.2-0.1-0.3-0.3-0.4-0.4l-0.1-0.1c-0.2-0.2-0.4-0.6-0.7-1.3c-0.1-0.3-0.3-0.6-0.4-0.9
		c-0.1-0.3-0.2-0.6-0.4-1c-0.3-0.7-0.5-1.4-0.6-2c-0.2-0.7-0.3-1.2-0.3-1.5v-0.1l0,0c0-0.2,0.1-0.4,0.2-0.6c0.1-0.2,0.2-0.4,0.3-0.7
		c0.1-0.2,0.2-0.5,0.4-0.7c0.1-0.2,0.3-0.4,0.5-0.6c0.2-0.2,0.4-0.4,0.6-0.6c0.2-0.2,0.4-0.4,0.6-0.5c0.2-0.2,0.5-0.3,0.8-0.4
		c0.3-0.1,0.6-0.2,0.9-0.3h0.1h0c0.8,0,1.5,0.1,2.1,0.4c0.4,0.1,0.7,0.3,1,0.4s0.6,0.3,0.9,0.5c0.5,0.4,1,0.7,1.3,1.1
		c0.4,0.4,0.7,0.7,0.8,0.9h0c0,0.1,0.1,0.3,0.1,0.4c0,0.2,0.1,0.5,0.1,1c0,0.3,0,0.6,0,1s0,0.6,0,1c0,0.4,0,0.8,0,1.2s0,0.9,0,1.3
		v0.3l-0.2,0.2c0,0-0.1,0.1-0.1,0.1c0,0-0.1,0.1-0.1,0.1l0,0.1h-0.1c-0.1,0.1-0.2,0.1-0.4,0.2c-0.2,0.1-0.4,0.1-0.6,0.1
		c-0.2,0-0.4,0-0.6-0.1l-0.3-0.2h-0.1c-0.1,0-0.1-0.1-0.2-0.1s-0.1-0.1-0.2-0.1l-0.2-0.2v-5c0,0-0.1-0.1-0.2-0.2
		c-0.1-0.1-0.2-0.2-0.4-0.4c-0.3-0.3-0.9-0.6-1.7-0.7c-0.1,0-0.2,0-0.3,0c-0.1,0-0.3,0-0.3,0.1c0,0-0.1,0-0.1,0
		c-0.1,0.1-0.3,0.2-0.3,0.4c-0.1,0.1-0.2,0.2-0.2,0.4c-0.2,0.3-0.2,0.8-0.2,1.3v0.2l-0.1,0.1c0,0,0,0.1-0.1,0.1c0,0,0,0.1-0.1,0.1
		c0,0,0,0.1,0,0.1s0,0.1,0,0.1c0,0,0,0.1,0,0.1c0,0,0,0,0,0.1c0,0.1,0.1,0.2,0.2,0.3c0.1,0.1,0.1,0.2,0.2,0.4
		c0.1,0.2,0.2,0.4,0.3,0.6c0.1,0.2,0.2,0.4,0.3,0.6c0.1,0.2,0.2,0.4,0.3,0.5c0.1,0.2,0.2,0.4,0.3,0.5c0.1,0.2,0.1,0.3,0.2,0.3
		c0,0,0.1,0.1,0.1,0.1l0.2,0.2v0.3c0,0,0,0.1,0,0.1c0,0,0,0,0,0.1l0.1,0.1c0.1,0.1,0.3,0.2,0.5,0.4c0.2,0.1,0.4,0.3,0.6,0.5
		c0.2,0.2,0.4,0.4,0.6,0.7c0.2,0.3,0.4,0.5,0.6,0.8c0.2,0.3,0.4,0.6,0.6,0.9c0.2,0.3,0.4,0.6,0.6,1c0.4,0.7,0.7,1.4,1,2.2
		c0.2,0.3,0.3,0.7,0.4,1.1c0.1,0.4,0.2,0.7,0.2,1.1c0.1,0.7,0.2,1.3,0.2,1.9c0,0.3,0,0.6,0,1s0,0.6-0.1,0.9v0v0.1
		c-0.2,0.6-0.8,1.3-1.7,1.9c-0.8,0.5-2,0.8-3.6,1.1l0,0h0c-0.4,0-0.8,0-1.1-0.1S50.7,238.8,50.5,238.7z"/>
	<path fill="#D76258" d="M59.3,223.6h-0.6l0.6-1.8c0-0.4,0-0.8,0-1.2c0-0.4,0-0.8,0-1.1c0-0.3,0-0.6,0.1-1c0-0.3,0-0.6,0-1
		c0-0.3,0.1-0.6,0.1-0.8c0-0.2,0.1-0.4,0.1-0.5c0-0.1,0-0.2,0.1-0.3c0-0.1,0.1-0.2,0.1-0.3c0.1-0.2,0.2-0.3,0.4-0.5
		c0.1-0.1,0.1-0.1,0.2-0.2c0.1-0.1,0.2-0.1,0.2-0.2c0.1-0.1,0.2-0.2,0.3-0.2s0.2-0.1,0.4-0.2c0.2-0.1,0.5-0.2,1-0.3l1-0.3
		c0.1,0,0.3-0.1,0.4-0.1s0.2-0.1,0.3-0.1l0.1-0.1h1.2c0.2,0,0.5,0,0.7,0s0.5,0,0.7,0.1c0.2,0,0.5,0,0.7,0s0.4,0,0.6,0.1
		c0.1,0,0.2,0.1,0.4,0.1c0.2,0,0.3,0.1,0.5,0.2c0.1,0,0.2,0.1,0.3,0.3c0.1,0.2,0.2,0.4,0.2,0.6c0,0.2-0.1,0.4-0.2,0.6
		c-0.1,0.1-0.1,0.2-0.2,0.3c-0.1,0.1-0.3,0.2-0.4,0.3c-0.1,0-0.2,0.1-0.3,0.1s-0.2,0-0.3,0s-0.3,0-0.6,0H66l-0.8,0.4H65
		c-0.1,0-0.3,0-0.5,0.1c-0.1,0-0.3,0.1-0.5,0.1c0,0-0.1,0-0.1,0.1c0,0,0,0-0.1,0.1l0,0l-0.1,0c-0.1,0.1-0.2,0.1-0.3,0.2
		c-0.1,0-0.1,0.1-0.2,0.1c0,0.1-0.1,0.1-0.2,0.2s-0.1,0.1-0.2,0.2c0,0,0,0-0.1,0.1c0,0,0,0.1-0.1,0.1v7.1l1-0.2h0.1
		c0.1,0,0.2,0,0.4-0.1c0.1,0,0.2,0,0.2-0.1c0.1,0,0.1,0,0.2,0c0.2,0,0.4-0.1,0.5,0c0.2,0,0.3,0.1,0.5,0.2c0,0,0.1,0,0.2,0
		c0.1,0,0.1,0,0.2,0c0.1,0,0.2,0,0.3,0.1c0.1,0,0.2,0.1,0.3,0.1c0.1,0,0.2,0.1,0.3,0.1c0.1,0,0.2,0.1,0.3,0.2
		c0.2,0.1,0.3,0.2,0.4,0.4c0.1,0.1,0.1,0.3,0.1,0.4c0,0.2,0,0.3-0.1,0.5c-0.1,0.1-0.2,0.3-0.3,0.4c-0.2,0.2-0.4,0.3-0.6,0.3
		c-0.2,0.1-0.4,0.1-0.6,0.1l-2.4,0.4h0l-0.1,0c0,0-0.1,0.1-0.2,0.1c-0.1,0-0.1,0.1-0.2,0.2h0c0,0-0.1,0-0.1,0.1s-0.1,0.1-0.1,0.1
		l-0.3,6.9v0.8v0.2v0h3.3c0.1,0,0.1,0,0.2-0.1c0.1,0,0.1,0,0.2,0v0c0.1,0,0.1,0,0.2-0.1c0.1,0,0.1,0,0.2-0.1c0.1,0,0.2,0,0.3-0.1
		c0.1,0,0.2,0,0.3,0c0.3,0,0.6,0,0.9,0.1c0.3,0.1,0.6,0.5,0.9,1l0,0.1v0.1c0,0.4-0.1,0.7-0.3,0.9c-0.1,0.1-0.1,0.2-0.2,0.2
		c-0.1,0.1-0.2,0.1-0.3,0.2h-0.1c-0.2,0.1-0.4,0.3-0.7,0.3h-0.1H67c-0.4,0.1-0.8,0.1-1.2,0.1c-0.4,0-0.8,0-1.1,0
		c-0.2,0-0.4,0-0.6,0.1s-0.4,0-0.6,0c-0.1,0-0.2,0-0.3,0c-0.1,0-0.2,0-0.3,0c-0.6,0-1.1-0.1-1.4-0.2c-0.3,0-0.7-0.1-1-0.2
		c-0.3-0.2-0.5-0.3-0.6-0.5c-0.1-0.1-0.2-0.2-0.2-0.4s-0.1-0.3-0.2-0.4V237l-0.5-5.8h0.4V223.6z"/>
	<path fill="#D76258" d="M77.9,238c-0.3,0.4-0.6,0.6-1.1,0.7c-0.2,0.1-0.4,0.2-0.6,0.2c-0.1,0-0.1,0-0.2,0c0,0-0.1,0-0.2-0.1
		c-0.2-0.1-0.3-0.2-0.5-0.4l-0.1-0.1v-10.7l0.4-1.9v-3.1c0-0.7,0.1-1.4,0.1-2.1c0-0.6,0.1-1.3,0.1-1.9c0-0.2,0-0.4,0-0.6
		c0-0.2,0-0.4,0-0.6l0-0.2c0-0.2,0-0.5,0-0.7s0-0.4,0-0.6c0-0.2,0-0.4,0-0.5s0-0.3,0-0.4v-0.4c0-0.4,0.2-0.6,0.6-0.8
		c0,0,0.1,0,0.2,0c0.1,0,0.1,0,0.2-0.1h0l0.9-0.1l0.2,0.2l0.1,0.1c0,0,0,0,0.1,0l0.1,0h0l0.7-0.2l-0.4,8.9v4.1h3.2v-12.5l0.2-0.2
		c0,0,0.1-0.1,0.1-0.1c0,0,0.1-0.1,0.2-0.1l0.1,0c0.1,0,0.1-0.1,0.2-0.1c0.1,0,0.1,0,0.2-0.1c0.1,0,0.2,0,0.3-0.1c0.1,0,0.2,0,0.4,0
		c0.2,0,0.3,0,0.4,0.1c0.1,0,0.2,0.1,0.3,0.1c0.2,0.1,0.4,0.2,0.5,0.4c0.1,0.1,0.1,0.2,0.2,0.2c0.1,0.1,0.1,0.1,0.2,0.2l0.1,0.1
		l-0.4,6.4v1.4l0.4,0.8l0,4.8l-0.4,9.5l-0.1,0.1c-0.1,0.2-0.2,0.4-0.4,0.5c0,0.1-0.1,0.1-0.2,0.2s-0.2,0.1-0.2,0.2
		c-0.3,0.1-0.5,0.2-0.8,0.2c-0.4,0-0.7-0.1-0.9-0.3c0,0-0.1-0.1-0.2-0.2c-0.1-0.1-0.1-0.1-0.2-0.2l-0.1-0.1l-0.5-3.1l0.4-0.4
		l-0.4-4.6h-3.2c0,0.6,0.1,1.1,0.1,1.6c0,0.5,0,1,0.1,1.5c0,0.2,0,0.5,0,0.7c0,0.2,0,0.5,0,0.7s0,0.5,0,0.7c0,0.2,0,0.4,0,0.6
		c0,0.2,0,0.4,0,0.5c0,0.2,0,0.3-0.1,0.4c0,0.1,0,0.2-0.1,0.3c0,0.1,0,0.2-0.1,0.2c0,0.1-0.1,0.3-0.2,0.4
		C78.1,237.7,78,237.8,77.9,238z"/>
	<path fill="#D76258" d="M94.6,214.6c0.2,0.2,0.5,0.4,0.6,0.6c0.1,0.1,0.2,0.2,0.3,0.4c0.1,0.1,0.2,0.2,0.3,0.4l0.1,0.1l0.4,1.7v0.5
		l-0.4,9.6v5c0,0.3,0,0.5,0,0.7c0,0.2,0,0.4-0.1,0.7c0,0.2-0.1,0.4-0.1,0.6c0,0.2-0.1,0.4-0.1,0.6c-0.1,0.4-0.3,0.8-0.5,1.1
		c-0.3,0.7-0.7,1.2-1.4,1.6c-0.7,0.4-1.5,0.6-2.6,0.6c-0.3,0.1-0.5,0.1-0.8,0.1c-0.1,0-0.2,0-0.3,0s-0.2,0-0.3-0.1
		c-0.2,0-0.4-0.1-0.6-0.2c-0.2-0.1-0.4-0.2-0.5-0.3c-0.2-0.1-0.3-0.2-0.5-0.3c-0.1-0.1-0.3-0.3-0.4-0.4c-0.1-0.1-0.3-0.2-0.4-0.4
		c-0.1-0.1-0.3-0.3-0.4-0.4c-0.2-0.1-0.3-0.4-0.4-0.9c-0.1-0.3-0.1-0.7-0.2-1.1c0-0.2-0.1-0.4-0.1-0.7c0-0.2,0-0.4-0.1-0.7
		c0-0.2,0-0.5-0.1-0.7c0-0.2,0-0.5,0-0.7c-0.1-1.2-0.1-2.4-0.1-3.8l0-0.1l0.4-4.6v-6.2c0-0.1,0-0.3,0-0.4s0-0.3,0.1-0.4
		c0-0.3,0.1-0.6,0.1-0.7c0.1-0.3,0.2-0.5,0.3-0.7c0.2-0.4,0.5-0.8,0.9-1c0.4-0.2,0.7-0.3,1.1-0.3h0.8c0,0,0.1,0,0.1,0c0,0,0,0,0.1,0
		c0,0,0.1-0.1,0.2-0.1c0.1,0,0.1,0,0.2-0.1l0.5-0.2h1.3c0.1,0,0.2,0,0.3,0c0.1,0,0.2,0,0.4,0c0.1,0,0.3,0.1,0.5,0.1
		c0.2,0,0.4,0.1,0.6,0.2l0.1,0c0.2,0.1,0.3,0.2,0.5,0.3C94.4,214.4,94.5,214.5,94.6,214.6z M92.3,235.5c0.3-0.5,0.5-1,0.6-1.5
		c0.1-0.7,0.1-1.4,0-2.2l0,0v-14.1c0-0.1-0.1-0.2-0.2-0.3c-0.1-0.2-0.4-0.4-0.6-0.6l-0.1,0l0,0c-0.1-0.1-0.2-0.2-0.2-0.2
		c-0.1-0.1-0.1-0.1-0.2-0.2c-0.2-0.1-0.3-0.1-0.4-0.2v0c0,0-0.1,0-0.2,0c-0.1,0-0.1,0-0.2,0c-0.1,0-0.3,0-0.4,0.1l0,0
		c-0.1,0-0.3,0-0.3,0.1l-0.2,0.2c0,0.1,0,0.2,0,0.4s0,0.3-0.1,0.4c0,0.2,0,0.4-0.1,0.6c0,0.2,0,0.4-0.1,0.6c0,0.2-0.1,0.4-0.1,0.7
		c0,0.2,0,0.5-0.1,0.7v11.9c0,0.5-0.1,0.9,0,1.3c0,0.4,0.1,0.8,0.2,1.1c0,0.2,0.1,0.3,0.1,0.4c0,0.1,0.1,0.3,0.1,0.4
		c0.1,0.2,0.2,0.4,0.3,0.6c0,0.1,0.1,0.2,0.2,0.2c0.1,0.1,0.2,0.1,0.2,0.2c0.2,0.1,0.4,0.1,0.6,0.1
		C91.7,236.1,92.1,235.9,92.3,235.5z"/>
	<path fill="#D76258" d="M96.9,216.2c0-0.1,0-0.2,0-0.3c0-0.1,0-0.2,0-0.3l-0.3-0.7l0.1-0.2c0.1-0.2,0.2-0.4,0.3-0.5
		c0.1-0.1,0.2-0.2,0.3-0.3c0.1-0.1,0.3-0.1,0.5-0.2l0,0h0c0.2,0,0.5-0.1,0.8-0.1c0,0,0,0,0.1,0c0,0,0.1,0,0.1,0
		c0.4,0,0.7,0.2,1.1,0.6v0c0.2,0.2,0.3,0.5,0.3,0.8c0,0.1,0,0.2,0,0.4s0,0.2,0,0.4c0,0.1,0,0.2-0.1,0.4c0,0.1,0,0.3,0,0.4l1.3,6.2
		v0.1c0,0.1,0,0.2,0,0.3c0,0.1,0,0.1,0,0.2v0.1c0,0,0,0.1,0,0.2c0,0.1,0,0.1,0,0.2c0,0.1,0,0.1,0,0.2c0,0.1,0,0.1,0,0.2l0,0.1
		c0,0.1,0,0.1,0.1,0.2c0,0.1,0,0.2,0.1,0.3c0,0.1,0.1,0.2,0.1,0.3c0,0.1,0.1,0.2,0.1,0.3l0,0.1l0.4,2.4c0,0.1,0,0.2,0,0.3
		c0,0.1,0,0.2,0,0.3c0,0.1,0,0.2,0,0.3c0,0.1,0,0.2,0,0.2c0,0.2,0.1,0.3,0.1,0.3c0,0,0,0.3,0.1,0.7c0,0.1,0.1,0.2,0.1,0.4
		c0,0.1,0,0.3,0.1,0.4l0.8-5.7c0.1-0.9,0.2-1.7,0.2-2.5c0.1-0.8,0.1-1.5,0.2-2.2c0-0.3,0-0.6,0.1-0.9c0-0.3,0.1-0.6,0.1-0.9
		c0-0.5,0.1-1,0.1-1.6c0-0.2,0.1-0.4,0.1-0.6c0-0.2,0-0.4,0.1-0.5c0-0.3,0.1-0.5,0.1-0.6c0-0.1,0.1-0.2,0.1-0.3s0-0.2,0.1-0.3
		c0.1-0.2,0.4-0.4,0.6-0.5c0.3-0.1,0.6-0.1,0.8-0.1c0.4,0,0.7,0,1,0.2c0.3,0.1,0.4,0.3,0.5,0.5c0.1,0.3,0.2,0.5,0.2,0.8v0.1l-0.5,5
		L107,222l-0.1,0.5v1.9l-0.1,0.4l-0.3,1.2l0.1,1l-0.1,0.1c0,0,0,0.1,0,0.2c0,0.1-0.1,0.2-0.1,0.2v0.1c0,0,0,0.1,0,0.1s0,0.1,0,0.2
		c0,0.1,0,0.2,0,0.3c0,0.1,0,0.2,0,0.3l-0.1,0.9l-0.3,1.5c-0.1,0.5-0.1,0.9-0.2,1.3s-0.1,0.8-0.2,1.1c-0.1,0.3-0.1,0.6-0.2,0.9
		c-0.1,0.3-0.1,0.6-0.2,0.9c-0.1,0.3-0.1,0.6-0.2,0.8c0,0.2-0.1,0.4-0.2,0.5c-0.1,0.3-0.3,0.6-0.4,0.8c-0.2,0.2-0.4,0.4-0.6,0.6
		c-0.4,0.4-0.9,0.7-1.3,0.8c-0.1,0-0.1,0-0.2,0s-0.1,0-0.2,0c-0.2,0-0.4-0.1-0.6-0.2c-0.1-0.1-0.1-0.2-0.2-0.2
		c-0.1-0.1-0.1-0.1-0.2-0.2v0c-0.1-0.1-0.1-0.2-0.2-0.3c-0.1-0.1-0.1-0.2-0.2-0.3l-0.9-4.6c-0.3-1.5-0.6-2.8-0.8-4.2
		c-0.2-1.3-0.5-2.6-0.7-3.7c-0.1-0.5-0.2-0.9-0.3-1.4c-0.1-0.5-0.2-1-0.3-1.4c-0.1-0.5-0.1-1-0.2-1.4c-0.1-0.4-0.2-0.8-0.2-1.2
		c-0.1-0.4-0.1-0.7-0.2-1c-0.1-0.3-0.1-0.6-0.2-0.8c-0.1-0.4-0.1-0.6-0.1-0.7c0-0.1-0.1-0.3-0.1-0.4c0-0.1,0-0.2,0-0.3
		C96.9,216.4,96.9,216.3,96.9,216.2z"/>
	<path fill="#D76258" d="M108.7,223.6h-0.6l0.6-1.8c0-0.4,0-0.8,0-1.2c0-0.4,0-0.8,0-1.1c0-0.3,0-0.6,0.1-1c0-0.3,0-0.6,0-1
		c0-0.3,0.1-0.6,0.1-0.8c0-0.2,0.1-0.4,0.1-0.5c0-0.1,0-0.2,0.1-0.3c0-0.1,0.1-0.2,0.1-0.3c0.1-0.2,0.2-0.3,0.4-0.5
		c0.1-0.1,0.1-0.1,0.2-0.2c0.1-0.1,0.2-0.1,0.2-0.2c0.1-0.1,0.2-0.2,0.3-0.2c0.1-0.1,0.2-0.1,0.4-0.2c0.2-0.1,0.5-0.2,1-0.3l1-0.3
		c0.1,0,0.3-0.1,0.4-0.1c0.1,0,0.2-0.1,0.3-0.1l0.1-0.1h1.2c0.2,0,0.5,0,0.7,0c0.2,0,0.5,0,0.7,0.1c0.2,0,0.5,0,0.7,0
		c0.2,0,0.4,0,0.6,0.1c0.1,0,0.2,0.1,0.4,0.1c0.2,0,0.3,0.1,0.5,0.2c0.1,0,0.2,0.1,0.3,0.3c0.1,0.2,0.2,0.4,0.2,0.6
		c0,0.2-0.1,0.4-0.2,0.6c-0.1,0.1-0.1,0.2-0.2,0.3c-0.1,0.1-0.3,0.2-0.4,0.3c-0.1,0-0.2,0.1-0.3,0.1c-0.1,0-0.2,0-0.3,0
		c-0.1,0-0.3,0-0.6,0h-1.5l-0.8,0.4h-0.2c-0.1,0-0.3,0-0.5,0.1c-0.1,0-0.3,0.1-0.5,0.1c0,0-0.1,0-0.1,0.1c0,0,0,0-0.1,0.1l0,0
		l-0.1,0c-0.1,0.1-0.2,0.1-0.3,0.2c-0.1,0-0.1,0.1-0.2,0.1c0,0.1-0.1,0.1-0.2,0.2s-0.1,0.1-0.2,0.2c0,0,0,0-0.1,0.1
		c0,0,0,0.1-0.1,0.1v7.1l1-0.2h0.1c0.1,0,0.2,0,0.4-0.1c0.1,0,0.2,0,0.2-0.1s0.1,0,0.2,0c0.2,0,0.4-0.1,0.5,0c0.2,0,0.3,0.1,0.5,0.2
		c0,0,0.1,0,0.2,0s0.1,0,0.2,0c0.1,0,0.2,0,0.3,0.1c0.1,0,0.2,0.1,0.3,0.1c0.1,0,0.2,0.1,0.3,0.1s0.2,0.1,0.3,0.2
		c0.2,0.1,0.3,0.2,0.4,0.4s0.1,0.3,0.1,0.4c0,0.2,0,0.3-0.1,0.5c-0.1,0.1-0.2,0.3-0.3,0.4c-0.2,0.2-0.4,0.3-0.6,0.3
		c-0.2,0.1-0.4,0.1-0.6,0.1l-2.4,0.4h0l-0.1,0c0,0-0.1,0.1-0.2,0.1c-0.1,0-0.1,0.1-0.2,0.2h0c0,0-0.1,0-0.1,0.1s-0.1,0.1-0.1,0.1
		l-0.3,6.9v0.8v0.2v0h3.3c0.1,0,0.1,0,0.2-0.1c0.1,0,0.1,0,0.2,0v0c0.1,0,0.1,0,0.2-0.1c0.1,0,0.1,0,0.2-0.1c0.1,0,0.2,0,0.3-0.1
		c0.1,0,0.2,0,0.3,0c0.3,0,0.6,0,0.9,0.1c0.3,0.1,0.6,0.5,0.9,1l0,0.1v0.1c0,0.4-0.1,0.7-0.3,0.9c-0.1,0.1-0.1,0.2-0.2,0.2
		c-0.1,0.1-0.2,0.1-0.3,0.2h-0.1c-0.2,0.1-0.4,0.3-0.7,0.3h-0.1h-0.1c-0.4,0.1-0.8,0.1-1.2,0.1c-0.4,0-0.8,0-1.1,0
		c-0.2,0-0.4,0-0.6,0.1c-0.2,0-0.4,0-0.6,0c-0.1,0-0.2,0-0.3,0s-0.2,0-0.3,0c-0.6,0-1.1-0.1-1.4-0.2c-0.3,0-0.7-0.1-1-0.2
		c-0.3-0.2-0.5-0.3-0.6-0.5c-0.1-0.1-0.2-0.2-0.2-0.4s-0.1-0.3-0.2-0.4V237l-0.5-5.8h0.4V223.6z"/>
	<path fill="#D76258" d="M120.6,239.1c-0.1,0-0.2-0.1-0.3-0.2c-0.1-0.1-0.2-0.1-0.2-0.2c-0.2-0.1-0.3-0.3-0.4-0.5l-0.1-0.1v-19.3
		l-0.4-2.4v-1.3c0-0.2,0.1-0.4,0.2-0.6c0-0.1,0.1-0.2,0.2-0.3c0.1-0.1,0.1-0.2,0.2-0.2c0.1,0,0.2-0.1,0.3-0.2
		c0.1-0.1,0.2-0.1,0.3-0.1c0.3-0.2,0.6-0.3,0.9-0.3c0.1,0,0.2,0,0.3-0.1c0.1,0,0.2,0,0.3,0h0.8c0.4,0,0.8,0,1.2,0c0.4,0,0.8,0,1.1,0
		c0.6,0,1.2,0,1.8,0.1c0.7,0.1,1.2,0.2,1.5,0.5v0c0.1,0.1,0.2,0.2,0.3,0.4c0.1,0.1,0.2,0.3,0.3,0.5c0.1,0.2,0.1,0.3,0.2,0.5
		c0.1,0.1,0.1,0.3,0.2,0.5c0,0.2,0.1,0.3,0.1,0.5c0,0.1,0.1,0.3,0.1,0.4c0,0.1,0.1,0.3,0.1,0.4s0,0.2,0,0.3v0.6c0,0.2,0,0.3,0,0.5
		c0,0.2,0,0.4,0,0.6c0,0.2,0,0.4,0,0.6c0,0.2,0,0.4,0,0.7l-0.1,1.4c0,0.6-0.1,1.2-0.1,1.8s-0.1,1.3-0.1,1.9v0.1l0,0
		c0,0.2-0.1,0.3-0.1,0.5c0,0.1-0.1,0.3-0.1,0.5c-0.1,0.3-0.2,0.6-0.3,0.8c-0.1,0.3-0.2,0.5-0.3,0.7c0,0.2-0.1,0.3-0.2,0.4
		c-0.1,0.1-0.3,0.2-0.4,0.3c-0.2,0.1-0.3,0.2-0.5,0.3s-0.3,0.2-0.5,0.4h0c-0.1,0.1-0.3,0.2-0.4,0.3s-0.3,0.2-0.5,0.3
		c0.4,0.2,0.8,0.4,1.1,0.6c0.5,0.3,0.9,0.5,1.3,0.8c0.2,0.2,0.4,0.3,0.6,0.5c0.1,0.1,0.2,0.3,0.3,0.4l0.1,0.1v0.1c0,0.1,0,0.2,0,0.3
		c0,0.1,0,0.2,0.1,0.3c0,0.1,0,0.2,0.1,0.3c0,0.2,0.1,0.4,0.1,0.6c0,0.1,0.1,0.2,0.1,0.3c0,0.1,0,0.2,0,0.2v0.1l0,0.1
		c-0.1,0.1-0.1,0.3-0.1,0.4c0,0.1,0,0.2,0,0.3s0,0.2,0.1,0.3c0,0.1,0,0.2,0,0.3s0,0.2,0,0.3c0,0.1,0.1,0.2,0.1,0.3
		c0,0.1,0,0.2,0,0.2v0.3c0.1,0.3,0.1,0.5,0.1,0.8c0,0.2,0,0.5-0.1,0.7c0,0.1-0.1,0.2-0.2,0.4c-0.1,0.1-0.2,0.3-0.4,0.4l-0.1,0.1
		h-0.2c-0.2,0-0.3,0-0.4,0c-0.1,0-0.2,0.1-0.3,0.1c-0.1,0-0.1,0-0.2,0c-0.1,0-0.2,0-0.3,0h-0.2c-0.2,0-0.5-0.1-0.7-0.3l-0.2-0.2
		v-0.1l-0.4-0.1v-0.4c0-0.4,0-0.8-0.1-1.2c0-0.4,0-0.8-0.1-1.1c0-0.3,0-0.6-0.1-0.9s0-0.6-0.1-0.9c0-0.4-0.1-0.6-0.1-0.7
		c0-0.1-0.1-0.2-0.1-0.2l0,0c0-0.1-0.2-0.2-0.5-0.4c-0.2-0.1-0.4-0.2-0.6-0.3c-0.2-0.1-0.4-0.2-0.6-0.3h0c-0.3-0.1-0.6-0.2-0.8-0.4
		v5.7l0,0c0,0.2-0.1,0.5-0.3,0.7c-0.1,0.1-0.2,0.2-0.3,0.2s-0.2,0.1-0.3,0.2c-0.3,0.1-0.6,0.2-1,0.2
		C121.1,239.3,120.8,239.2,120.6,239.1z M125.7,225.6c0,0,0-0.1,0.1-0.1s0-0.1,0-0.1v-0.1v-9.1h-2.5V228h0.2c0,0,0.1-0.1,0.2-0.1
		c0.1,0,0.2-0.1,0.3-0.2c0.1-0.1,0.2-0.1,0.3-0.2c0.2-0.1,0.5-0.3,0.7-0.5c0.1-0.2,0.2-0.5,0.3-0.7l0,0c0-0.1,0.1-0.2,0.1-0.3
		C125.6,225.8,125.6,225.7,125.7,225.6z"/>
	<path fill="#D76258" d="M144.3,214.6c0.2,0.2,0.5,0.4,0.6,0.6c0.1,0.1,0.2,0.2,0.3,0.4c0.1,0.1,0.2,0.2,0.3,0.4l0.1,0.1l0.4,1.7
		v0.5l-0.4,9.6v5c0,0.3,0,0.5,0,0.7c0,0.2,0,0.4-0.1,0.7c0,0.2-0.1,0.4-0.1,0.6c0,0.2-0.1,0.4-0.1,0.6c-0.1,0.4-0.3,0.8-0.5,1.1
		c-0.3,0.7-0.7,1.2-1.4,1.6c-0.7,0.4-1.5,0.6-2.6,0.6c-0.3,0.1-0.5,0.1-0.8,0.1c-0.1,0-0.2,0-0.3,0s-0.2,0-0.3-0.1
		c-0.2,0-0.4-0.1-0.6-0.2c-0.2-0.1-0.4-0.2-0.5-0.3c-0.2-0.1-0.3-0.2-0.5-0.3c-0.1-0.1-0.3-0.3-0.4-0.4c-0.1-0.1-0.3-0.2-0.4-0.4
		c-0.1-0.1-0.3-0.3-0.4-0.4c-0.2-0.1-0.3-0.4-0.4-0.9c-0.1-0.3-0.1-0.7-0.2-1.1c0-0.2-0.1-0.4-0.1-0.7c0-0.2,0-0.4-0.1-0.7
		c0-0.2,0-0.5-0.1-0.7c0-0.2,0-0.5,0-0.7c-0.1-1.2-0.1-2.4-0.1-3.8l0-0.1l0.4-4.6v-6.2c0-0.1,0-0.3,0-0.4s0-0.3,0.1-0.4
		c0-0.3,0.1-0.6,0.1-0.7c0.1-0.3,0.2-0.5,0.3-0.7c0.2-0.4,0.5-0.8,0.9-1c0.4-0.2,0.7-0.3,1.1-0.3h0.8c0,0,0.1,0,0.1,0c0,0,0,0,0.1,0
		c0,0,0.1-0.1,0.2-0.1c0.1,0,0.1,0,0.2-0.1l0.5-0.2h1.3c0.1,0,0.2,0,0.3,0c0.1,0,0.2,0,0.4,0c0.1,0,0.3,0.1,0.5,0.1s0.4,0.1,0.6,0.2
		l0.1,0c0.2,0.1,0.3,0.2,0.5,0.3C144.1,214.4,144.2,214.5,144.3,214.6z M142,235.5c0.3-0.5,0.5-1,0.6-1.5c0.1-0.7,0.1-1.4,0-2.2l0,0
		v-14.1c0-0.1-0.1-0.2-0.2-0.3c-0.1-0.2-0.4-0.4-0.6-0.6l-0.1,0l0,0c-0.1-0.1-0.2-0.2-0.2-0.2c-0.1-0.1-0.1-0.1-0.2-0.2
		c-0.2-0.1-0.3-0.1-0.4-0.2v0c0,0-0.1,0-0.2,0c-0.1,0-0.1,0-0.2,0c-0.1,0-0.3,0-0.4,0.1l0,0c-0.1,0-0.2,0-0.3,0.1l-0.2,0.2
		c0,0.1,0,0.2,0,0.4s0,0.3-0.1,0.4c0,0.2,0,0.4-0.1,0.6c0,0.2,0,0.4-0.1,0.6c0,0.2-0.1,0.4-0.1,0.7c0,0.2,0,0.5-0.1,0.7v11.9
		c0,0.5-0.1,0.9,0,1.3c0,0.4,0.1,0.8,0.2,1.1c0,0.2,0.1,0.3,0.1,0.4c0,0.1,0.1,0.3,0.1,0.4c0.1,0.2,0.2,0.4,0.3,0.6
		c0,0.1,0.1,0.2,0.2,0.2c0.1,0.1,0.2,0.1,0.2,0.2c0.2,0.1,0.4,0.1,0.6,0.1C141.4,236.1,141.8,235.9,142,235.5z"/>
	<path fill="#D76258" d="M146.6,216.2c0-0.1,0-0.2,0-0.3c0-0.1,0-0.2,0-0.3l-0.3-0.7l0.1-0.2c0.1-0.2,0.2-0.4,0.3-0.5
		c0.1-0.1,0.2-0.2,0.3-0.3c0.1-0.1,0.3-0.1,0.5-0.2l0,0h0c0.2,0,0.5-0.1,0.8-0.1c0,0,0,0,0.1,0s0.1,0,0.1,0c0.4,0,0.7,0.2,1.1,0.6v0
		c0.2,0.2,0.3,0.5,0.3,0.8c0,0.1,0,0.2,0,0.4s0,0.2,0,0.4c0,0.1,0,0.2-0.1,0.4c0,0.1,0,0.3,0,0.4l1.3,6.2v0.1c0,0.1,0,0.2,0,0.3
		s0,0.1,0,0.2v0.1c0,0,0,0.1,0,0.2c0,0.1,0,0.1,0,0.2c0,0.1,0,0.1,0,0.2s0,0.1,0,0.2l0,0.1c0,0.1,0,0.1,0.1,0.2c0,0.1,0,0.2,0.1,0.3
		c0,0.1,0.1,0.2,0.1,0.3c0,0.1,0.1,0.2,0.1,0.3l0,0.1l0.4,2.4c0,0.1,0,0.2,0,0.3c0,0.1,0,0.2,0,0.3c0,0.1,0,0.2,0,0.3
		c0,0.1,0,0.2,0,0.2c0,0.2,0.1,0.3,0.1,0.3c0,0,0,0.3,0.1,0.7c0,0.1,0.1,0.2,0.1,0.4c0,0.1,0,0.3,0.1,0.4l0.8-5.7
		c0.1-0.9,0.2-1.7,0.2-2.5c0.1-0.8,0.1-1.5,0.2-2.2c0-0.3,0-0.6,0.1-0.9c0-0.3,0.1-0.6,0.1-0.9c0-0.5,0.1-1,0.1-1.6
		c0-0.2,0.1-0.4,0.1-0.6c0-0.2,0-0.4,0.1-0.5c0-0.3,0.1-0.5,0.1-0.6c0-0.1,0.1-0.2,0.1-0.3c0-0.1,0-0.2,0.1-0.3
		c0.1-0.2,0.4-0.4,0.6-0.5s0.6-0.1,0.8-0.1c0.4,0,0.7,0,1,0.2c0.2,0.1,0.4,0.3,0.5,0.5c0.1,0.3,0.2,0.5,0.2,0.8v0.1l-0.5,5l-0.2,2.1
		l-0.1,0.5v1.9l-0.1,0.4l-0.3,1.2l0.1,1l-0.1,0.1c0,0,0,0.1,0,0.2c0,0.1-0.1,0.2-0.1,0.2v0.1c0,0,0,0.1,0,0.1s0,0.1,0,0.2
		c0,0.1,0,0.2,0,0.3c0,0.1,0,0.2,0,0.3l-0.1,0.9l-0.3,1.5c-0.1,0.5-0.1,0.9-0.2,1.3s-0.1,0.8-0.2,1.1c-0.1,0.3-0.1,0.6-0.2,0.9
		c-0.1,0.3-0.1,0.6-0.2,0.9c-0.1,0.3-0.1,0.6-0.2,0.8c0,0.2-0.1,0.4-0.2,0.5c-0.1,0.3-0.3,0.6-0.4,0.8c-0.2,0.2-0.4,0.4-0.6,0.6
		c-0.4,0.4-0.9,0.7-1.3,0.8c-0.1,0-0.1,0-0.2,0s-0.1,0-0.2,0c-0.2,0-0.4-0.1-0.6-0.2c-0.1-0.1-0.1-0.2-0.2-0.2s-0.1-0.1-0.2-0.2v0
		c-0.1-0.1-0.1-0.2-0.2-0.3c-0.1-0.1-0.1-0.2-0.2-0.3l-0.9-4.6c-0.3-1.5-0.6-2.8-0.8-4.2c-0.2-1.3-0.5-2.6-0.7-3.7
		c-0.1-0.5-0.2-0.9-0.3-1.4c-0.1-0.5-0.2-1-0.3-1.4c-0.1-0.5-0.1-1-0.2-1.4c-0.1-0.4-0.2-0.8-0.2-1.2c-0.1-0.4-0.1-0.7-0.2-1
		c-0.1-0.3-0.1-0.6-0.2-0.8c-0.1-0.4-0.1-0.6-0.1-0.7c0-0.1-0.1-0.3-0.1-0.4c0-0.1,0-0.2,0-0.3C146.6,216.4,146.6,216.3,146.6,216.2
		z"/>
	<path fill="#D76258" d="M158.5,223.6h-0.6l0.6-1.8c0-0.4,0-0.8,0-1.2c0-0.4,0-0.8,0-1.1c0-0.3,0-0.6,0.1-1c0-0.3,0-0.6,0-1
		c0-0.3,0.1-0.6,0.1-0.8c0-0.2,0.1-0.4,0.1-0.5c0-0.1,0-0.2,0.1-0.3c0-0.1,0.1-0.2,0.1-0.3c0.1-0.2,0.2-0.3,0.4-0.5
		c0.1-0.1,0.1-0.1,0.2-0.2c0.1-0.1,0.2-0.1,0.2-0.2c0.1-0.1,0.2-0.2,0.3-0.2c0.1-0.1,0.2-0.1,0.4-0.2c0.2-0.1,0.5-0.2,1-0.3l1-0.3
		c0.1,0,0.3-0.1,0.4-0.1c0.1,0,0.2-0.1,0.3-0.1l0.1-0.1h1.2c0.2,0,0.5,0,0.7,0c0.2,0,0.5,0,0.7,0.1c0.2,0,0.5,0,0.7,0
		c0.2,0,0.4,0,0.6,0.1c0.1,0,0.2,0.1,0.4,0.1c0.2,0,0.3,0.1,0.5,0.2c0.1,0,0.2,0.1,0.3,0.3c0.1,0.2,0.2,0.4,0.2,0.6
		c0,0.2-0.1,0.4-0.2,0.6c-0.1,0.1-0.1,0.2-0.2,0.3c-0.1,0.1-0.3,0.2-0.4,0.3c-0.1,0-0.2,0.1-0.3,0.1c-0.1,0-0.2,0-0.3,0
		c-0.1,0-0.3,0-0.6,0h-1.5l-0.8,0.4h-0.2c-0.1,0-0.3,0-0.5,0.1c-0.1,0-0.3,0.1-0.5,0.1c0,0-0.1,0-0.1,0.1c0,0,0,0-0.1,0.1l0,0
		l-0.1,0c-0.1,0.1-0.2,0.1-0.3,0.2c-0.1,0-0.1,0.1-0.2,0.1c0,0.1-0.1,0.1-0.2,0.2s-0.1,0.1-0.2,0.2c0,0,0,0-0.1,0.1
		c0,0,0,0.1-0.1,0.1v7.1l1-0.2h0.1c0.1,0,0.2,0,0.4-0.1c0.1,0,0.2,0,0.2-0.1s0.1,0,0.2,0c0.2,0,0.4-0.1,0.5,0c0.2,0,0.3,0.1,0.5,0.2
		c0,0,0.1,0,0.2,0s0.1,0,0.2,0c0.1,0,0.2,0,0.3,0.1c0.1,0,0.2,0.1,0.3,0.1c0.1,0,0.2,0.1,0.3,0.1s0.2,0.1,0.3,0.2
		c0.2,0.1,0.3,0.2,0.4,0.4s0.1,0.3,0.1,0.4c0,0.2,0,0.3-0.1,0.5c-0.1,0.1-0.2,0.3-0.3,0.4c-0.2,0.2-0.4,0.3-0.6,0.3
		c-0.2,0.1-0.4,0.1-0.6,0.1l-2.4,0.4h0l-0.1,0c0,0-0.1,0.1-0.2,0.1c-0.1,0-0.1,0.1-0.2,0.2h0c0,0-0.1,0-0.1,0.1s-0.1,0.1-0.1,0.1
		l-0.3,6.9v0.8v0.2v0h3.3c0.1,0,0.1,0,0.2-0.1c0.1,0,0.1,0,0.2,0v0c0.1,0,0.1,0,0.2-0.1c0.1,0,0.1,0,0.2-0.1c0.1,0,0.2,0,0.3-0.1
		c0.1,0,0.2,0,0.3,0c0.3,0,0.6,0,0.9,0.1c0.3,0.1,0.6,0.5,0.9,1l0,0.1v0.1c0,0.4-0.1,0.7-0.3,0.9c-0.1,0.1-0.1,0.2-0.2,0.2
		c-0.1,0.1-0.2,0.1-0.3,0.2H167c-0.2,0.1-0.4,0.3-0.7,0.3h-0.1h-0.1c-0.4,0.1-0.8,0.1-1.2,0.1c-0.4,0-0.8,0-1.1,0
		c-0.2,0-0.4,0-0.6,0.1c-0.2,0-0.4,0-0.6,0c-0.1,0-0.2,0-0.3,0s-0.2,0-0.3,0c-0.6,0-1.1-0.1-1.4-0.2c-0.3,0-0.7-0.1-1-0.2
		c-0.3-0.2-0.5-0.3-0.6-0.5c-0.1-0.1-0.2-0.2-0.2-0.4s-0.1-0.3-0.2-0.4V237l-0.5-5.8h0.4V223.6z"/>
	<path fill="#D76258" d="M170.3,239.1c-0.1,0-0.2-0.1-0.3-0.2c-0.1-0.1-0.2-0.1-0.2-0.2c-0.2-0.1-0.3-0.3-0.4-0.5l-0.1-0.1v-19.3
		l-0.4-2.4v-1.3c0-0.2,0.1-0.4,0.2-0.6c0-0.1,0.1-0.2,0.2-0.3c0.1-0.1,0.1-0.2,0.2-0.2c0.1,0,0.2-0.1,0.3-0.2
		c0.1-0.1,0.2-0.1,0.3-0.1c0.3-0.2,0.6-0.3,0.9-0.3c0.1,0,0.2,0,0.3-0.1c0.1,0,0.2,0,0.3,0h0.8c0.4,0,0.8,0,1.2,0c0.4,0,0.8,0,1.1,0
		c0.6,0,1.2,0,1.8,0.1c0.7,0.1,1.2,0.2,1.5,0.5v0c0.1,0.1,0.2,0.2,0.3,0.4c0.1,0.1,0.2,0.3,0.3,0.5c0.1,0.2,0.1,0.3,0.2,0.5
		c0.1,0.1,0.1,0.3,0.2,0.5c0,0.2,0.1,0.3,0.1,0.5c0,0.1,0.1,0.3,0.1,0.4c0,0.1,0.1,0.3,0.1,0.4s0,0.2,0,0.3v0.6c0,0.2,0,0.3,0,0.5
		c0,0.2,0,0.4,0,0.6c0,0.2,0,0.4,0,0.6c0,0.2,0,0.4,0,0.7l-0.1,1.4c0,0.6-0.1,1.2-0.1,1.8s-0.1,1.3-0.1,1.9v0.1l0,0
		c0,0.2-0.1,0.3-0.1,0.5c0,0.1-0.1,0.3-0.1,0.5c-0.1,0.3-0.2,0.6-0.3,0.8c-0.1,0.3-0.2,0.5-0.3,0.7c0,0.2-0.1,0.3-0.2,0.4
		c-0.1,0.1-0.3,0.2-0.4,0.3c-0.2,0.1-0.3,0.2-0.5,0.3s-0.3,0.2-0.5,0.4h0c-0.1,0.1-0.3,0.2-0.4,0.3s-0.3,0.2-0.5,0.3
		c0.4,0.2,0.8,0.4,1.1,0.6c0.5,0.3,0.9,0.5,1.3,0.8c0.2,0.2,0.4,0.3,0.6,0.5c0.1,0.1,0.2,0.3,0.3,0.4l0.1,0.1v0.1c0,0.1,0,0.2,0,0.3
		c0,0.1,0,0.2,0.1,0.3c0,0.1,0,0.2,0.1,0.3c0,0.2,0.1,0.4,0.1,0.6c0,0.1,0.1,0.2,0.1,0.3c0,0.1,0,0.2,0,0.2v0.1l0,0.1
		c-0.1,0.1-0.1,0.3-0.1,0.4c0,0.1,0,0.2,0,0.3s0,0.2,0.1,0.3c0,0.1,0,0.2,0,0.3s0,0.2,0,0.3c0,0.1,0.1,0.2,0.1,0.3
		c0,0.1,0,0.2,0,0.2v0.3c0.1,0.3,0.1,0.5,0.1,0.8c0,0.2,0,0.5-0.1,0.7c0,0.1-0.1,0.2-0.2,0.4c-0.1,0.1-0.2,0.3-0.4,0.4l-0.1,0.1
		h-0.2c-0.2,0-0.3,0-0.4,0c-0.1,0-0.2,0.1-0.3,0.1c-0.1,0-0.1,0-0.2,0c-0.1,0-0.2,0-0.3,0h-0.2c-0.2,0-0.5-0.1-0.7-0.3l-0.2-0.2
		v-0.1l-0.4-0.1v-0.4c0-0.4,0-0.8-0.1-1.2c0-0.4,0-0.8-0.1-1.1c0-0.3,0-0.6-0.1-0.9s0-0.6-0.1-0.9c0-0.4-0.1-0.6-0.1-0.7
		c0-0.1-0.1-0.2-0.1-0.2l0,0c0-0.1-0.2-0.2-0.5-0.4c-0.2-0.1-0.4-0.2-0.6-0.3c-0.2-0.1-0.4-0.2-0.6-0.3h0c-0.3-0.1-0.6-0.2-0.8-0.4
		v5.7l0,0c0,0.2-0.1,0.5-0.3,0.7c-0.1,0.1-0.2,0.2-0.3,0.2s-0.2,0.1-0.3,0.2c-0.3,0.1-0.6,0.2-1,0.2
		C170.8,239.3,170.6,239.2,170.3,239.1z M175.4,225.6c0,0,0-0.1,0.1-0.1s0-0.1,0-0.1v-0.1v-9.1H173V228h0.2c0,0,0.1-0.1,0.2-0.1
		c0.1,0,0.2-0.1,0.3-0.2c0.1-0.1,0.2-0.1,0.3-0.2c0.2-0.1,0.5-0.3,0.7-0.5c0.1-0.2,0.2-0.5,0.3-0.7l0,0c0-0.1,0.1-0.2,0.1-0.3
		C175.3,225.8,175.3,225.7,175.4,225.6z"/>
	<path fill="#D76258" d="M28.3,262.2c0-0.7-0.1-1.5-0.2-2.3c-0.1-0.8-0.2-1.6-0.2-2.4l-3.1,0h-0.1c-0.1-0.1-0.2-0.1-0.4-0.2
		c-0.1-0.1-0.3-0.1-0.4-0.2c-0.3-0.1-0.5-0.2-0.6-0.4c-0.3-0.2-0.5-0.4-0.5-0.6c-0.1-0.3-0.1-0.5,0.1-0.8c0.1-0.2,0.2-0.3,0.3-0.4
		c0.2-0.1,0.4-0.2,0.6-0.3h0.1l11-0.4l0.1,0.1c0,0,0.1,0,0.3,0.1c0.1,0.1,0.2,0.1,0.3,0.2c0.1,0.1,0.1,0.1,0.2,0.2h0v0.1
		c0,0.1,0.1,0.2,0.2,0.2c0.1,0.1,0.2,0.2,0.2,0.4c0.1,0.1,0.1,0.3,0.1,0.5c0,0.2,0,0.3-0.1,0.5c0,0.1-0.1,0.3-0.1,0.4
		c-0.1,0.2-0.2,0.3-0.4,0.4c-0.1,0.1-0.3,0.2-0.5,0.2c-0.1,0-0.2,0-0.3,0c-0.1,0-0.4,0-0.7,0h-1.5h-1.4c0.1,0.8,0.1,1.5,0.2,2.2
		c0.1,0.7,0.1,1.4,0.2,2.1c0,0.3,0,0.6,0.1,0.9c0,0.3,0,0.6,0.1,0.9c0.1,0.7,0.1,1.3,0.1,1.7l0,0.2c0,0.2,0,0.4,0.1,0.6
		c0,0.2,0,0.3,0,0.5c0,0.2,0,0.3,0.1,0.4c0,0.1,0,0.2,0,0.2c0,0.3,0,0.6,0.1,1c0.2,0.4,0.3,0.9,0,1.4v0l-0.2,0.7l0.2,8l-0.1,0.2
		c-0.1,0.1-0.2,0.2-0.3,0.3c-0.1,0.1-0.1,0.2-0.3,0.3c-0.1,0.1-0.3,0.3-0.5,0.4c-0.2,0.2-0.4,0.3-0.6,0.3c0,0-0.1,0-0.2,0
		c-0.2,0-0.4,0-0.6-0.1c-0.1,0-0.1-0.1-0.2-0.1c-0.1,0-0.2-0.1-0.2-0.1c-0.1,0-0.1-0.1-0.2-0.2s-0.2-0.1-0.3-0.2l-0.1-0.2l0.2-8.6
		v-2.6v-0.6c0-0.2,0-0.4-0.1-0.6c0-0.2,0-0.4-0.1-0.7c0-0.2-0.1-0.5-0.1-0.8c0-0.3,0-0.6-0.1-0.9c0-0.3-0.1-0.6-0.1-1
		S28.3,262.5,28.3,262.2z"/>
	<path fill="#D76258" d="M43.2,255.6c0.2,0.2,0.5,0.4,0.6,0.6c0.1,0.1,0.2,0.2,0.3,0.4c0.1,0.1,0.2,0.2,0.3,0.4l0.1,0.1l0.4,1.7v0.5
		l-0.4,9.6v5c0,0.3,0,0.5,0,0.7c0,0.2,0,0.4-0.1,0.7c0,0.2-0.1,0.4-0.1,0.6c0,0.2-0.1,0.4-0.1,0.6c-0.1,0.4-0.3,0.8-0.5,1.1
		c-0.3,0.7-0.7,1.2-1.4,1.6c-0.7,0.4-1.5,0.6-2.6,0.6c-0.3,0.1-0.5,0.1-0.8,0.1c-0.1,0-0.2,0-0.3,0s-0.2,0-0.3-0.1
		c-0.2,0-0.4-0.1-0.6-0.2c-0.2-0.1-0.4-0.2-0.5-0.3c-0.2-0.1-0.3-0.2-0.5-0.3c-0.1-0.1-0.3-0.3-0.4-0.4c-0.1-0.1-0.3-0.2-0.4-0.4
		c-0.1-0.1-0.3-0.3-0.4-0.4c-0.2-0.1-0.3-0.4-0.4-0.9c-0.1-0.3-0.1-0.7-0.2-1.1c0-0.2-0.1-0.4-0.1-0.7c0-0.2,0-0.4-0.1-0.7
		c0-0.2,0-0.5-0.1-0.7c0-0.2,0-0.5,0-0.7c-0.1-1.2-0.1-2.4-0.1-3.8l0-0.1l0.4-4.6v-6.2c0-0.1,0-0.3,0-0.4s0-0.3,0.1-0.4
		c0-0.3,0.1-0.6,0.1-0.7c0.1-0.3,0.2-0.5,0.3-0.7c0.2-0.4,0.5-0.8,0.9-1c0.4-0.2,0.7-0.3,1.1-0.3h0.8c0,0,0.1,0,0.1,0c0,0,0,0,0.1,0
		c0,0,0.1-0.1,0.2-0.1c0.1,0,0.1,0,0.2-0.1l0.5-0.2h1.3c0.1,0,0.2,0,0.3,0c0.1,0,0.2,0,0.4,0c0.1,0,0.3,0.1,0.5,0.1
		c0.2,0,0.4,0.1,0.6,0.2l0.1,0c0.2,0.1,0.3,0.2,0.5,0.3C43,255.3,43.1,255.4,43.2,255.6z M40.9,276.5c0.3-0.5,0.5-1,0.6-1.5
		c0.1-0.7,0.1-1.4,0-2.2l0,0v-14.1c0-0.1-0.1-0.2-0.2-0.3c-0.1-0.2-0.4-0.4-0.6-0.6l-0.1,0l0,0c-0.1-0.1-0.2-0.2-0.2-0.2
		c-0.1-0.1-0.1-0.1-0.2-0.2c-0.2-0.1-0.3-0.1-0.4-0.2v0c0,0-0.1,0-0.2,0c-0.1,0-0.1,0-0.2,0c-0.1,0-0.3,0-0.4,0.1l0,0
		c-0.1,0-0.3,0-0.3,0.1l-0.2,0.2c0,0.1,0,0.2,0,0.4s0,0.3-0.1,0.4c0,0.2,0,0.4-0.1,0.6c0,0.2,0,0.4-0.1,0.6c0,0.2-0.1,0.4-0.1,0.7
		c0,0.2,0,0.5-0.1,0.7v11.9c0,0.5-0.1,0.9,0,1.3c0,0.4,0.1,0.8,0.2,1.1c0,0.2,0.1,0.3,0.1,0.4c0,0.1,0.1,0.3,0.1,0.4
		c0.1,0.2,0.2,0.4,0.3,0.6c0,0.1,0.1,0.2,0.2,0.2c0.1,0.1,0.2,0.1,0.2,0.2c0.2,0.1,0.4,0.1,0.6,0.1C40.3,277,40.7,276.8,40.9,276.5z
		"/>
	<path fill="#D76258" d="M51.2,265l-0.4-9.3l0.2-0.2c0,0,0.1,0,0.1,0c0,0,0.1,0,0.1-0.1c0.3-0.2,0.6-0.3,0.9-0.3h1.2l1.7,4.9
		l0.7,3.3l0.8,2.2v0.1l0.8-8.2l0.4-2.5l0.2-0.1c0.1,0,0.2-0.1,0.4-0.2l0.1,0c0,0,0.1,0,0.2,0c0.1,0,0.1,0,0.2-0.1
		c0.1,0,0.2-0.1,0.3-0.1c0.1,0,0.2,0,0.3,0c0.2,0,0.5,0.1,0.8,0.2c0.1,0,0.2,0.1,0.3,0.2c0.1,0.1,0.2,0.1,0.3,0.2
		c0,0.1,0.1,0.1,0.2,0.2s0.1,0.1,0.2,0.2l0.1,0.1v5.6c0,0.1,0.1,0.3,0.1,0.4c0,0.2,0.1,0.4,0.1,0.7c0,0.2,0.1,0.5,0.1,0.8
		c0,0.3,0.1,0.6,0.1,0.9c0.1,0.8,0.2,1.6,0.3,2.5l1.1,11.2v0.9l0,0.1c-0.1,0.3-0.2,0.5-0.4,0.7c-0.1,0.2-0.3,0.4-0.4,0.5
		c-0.3,0.2-0.5,0.3-0.9,0.3c-0.3,0-0.5-0.1-0.6-0.2c0,0-0.1-0.1-0.2-0.2s-0.1-0.1-0.2-0.2c-0.1-0.1-0.2-0.3-0.3-0.4l0-0.1V277
		l-0.8-6.7l0-0.3c0,0,0,0.1,0,0.1c0,0.2-0.1,0.5-0.1,0.8c-0.1,0.3-0.1,0.5-0.2,0.7v0.3c0,0.1,0,0.2,0,0.3c0,0.1,0,0.2,0,0.4
		c0,0.2,0,0.3-0.1,0.5c0,0.2,0,0.3,0,0.5l-0.1,1c0,0.4-0.1,0.9-0.1,1.3c0,0.5-0.1,1-0.1,1.5v1.6l-0.1,0.1c-0.1,0.2-0.2,0.3-0.3,0.4
		c-0.1,0.1-0.2,0.1-0.3,0.2s-0.2,0.1-0.3,0.2c-0.2,0.1-0.4,0.2-0.7,0.2c-0.3,0-0.5,0-0.6-0.1c-0.2-0.1-0.3-0.1-0.4-0.2
		c-0.1-0.1-0.1-0.2-0.1-0.3c0-0.1,0-0.1-0.1-0.2c0-0.2-0.1-0.3-0.1-0.5c0-0.2-0.1-0.3-0.1-0.5v0c0-0.1,0-0.2-0.1-0.4
		c0-0.1,0-0.3-0.1-0.4c0-0.1,0-0.2,0-0.3s0-0.2,0-0.3v-3.3l-0.8-2.8v6.5v0.1c0,0.1-0.1,0.2-0.1,0.3s-0.1,0.2-0.1,0.3h0l-0.2,0.5
		c0,0.1-0.1,0.2-0.2,0.3s-0.1,0.2-0.2,0.2c-0.1,0.1-0.3,0.3-0.5,0.4c-0.1,0-0.2,0-0.2,0.1c-0.1,0-0.1,0-0.2,0
		c-0.2,0.1-0.4,0.1-0.6,0.1l-0.4-0.1V265z"/>
	<path fill="#D76258" d="M64.5,279.8c0,0-0.1-0.1-0.2-0.1c-0.1,0-0.1-0.1-0.2-0.2l-0.1-0.2v-0.2c0-0.7,0.1-1.3,0.1-1.9
		c0-0.6,0-1.2,0.1-1.7c0-0.2,0-0.5,0.1-0.7c0-0.2,0-0.5,0-0.7c0-0.2,0.1-0.5,0.1-0.7c0-0.2,0-0.5,0.1-0.7c0-0.2,0-0.4,0-0.6
		c0-0.2,0-0.4,0-0.5c0-0.2,0.1-0.3,0.1-0.5c0-0.1,0-0.3,0.1-0.4c0-0.2,0.1-0.3,0.1-0.5c0-0.2,0.1-0.4,0.1-0.7c0-0.3,0.1-0.5,0.1-0.8
		c0-0.3,0.1-0.6,0.1-0.9c0-0.3,0.1-0.6,0.1-0.9c0-0.2,0.1-0.5,0.1-0.8c0-0.2,0.1-0.5,0.1-0.6c0-0.2,0-0.3,0.1-0.4
		c0-0.3,0.1-0.6,0.1-0.9c0-0.2,0-0.3,0.1-0.5c0-0.2,0-0.4,0-0.5c0-0.2,0-0.4,0.1-0.6c0-0.2,0-0.3,0.1-0.5c0-0.2,0-0.3,0-0.4
		c0-0.1,0-0.2,0-0.3c0-0.2,0-0.3,0.1-0.5c0-0.2,0-0.4,0.1-0.8c0.1-0.3,0.1-0.6,0.2-1c0.1-0.3,0.1-0.6,0.2-1c0.1-0.3,0.1-0.7,0.2-1
		c0.1-0.3,0.1-0.6,0.2-0.9c0.1-0.4,0.1-0.6,0.2-0.8c0.1-0.1,0.1-0.2,0.1-0.3c0.1-0.2,0.2-0.4,0.4-0.5c0.1-0.1,0.2-0.1,0.4-0.2
		c0.1-0.1,0.2-0.1,0.3-0.1c0.1,0,0.2,0,0.3,0h0.2l0.2,0.1c0.1,0.1,0.2,0.2,0.3,0.3s0.2,0.2,0.3,0.3h0c0.1,0.1,0.2,0.2,0.3,0.3
		s0.1,0.2,0.2,0.2c0.2,0.2,0.4,0.4,0.4,0.6l0,0v0c0,0.1,0.1,0.2,0.1,0.3c0,0.1,0,0.3,0.1,0.5c0,0.2,0.1,0.4,0.1,0.6
		c0,0.2,0,0.4,0.1,0.6c0,0.2,0,0.4,0.1,0.6c0,0.2,0.1,0.5,0.1,0.7c0.2,0.8,0.3,1.6,0.5,2.3c0.1,0.7,0.3,1.4,0.4,2.1
		c0.1,0.6,0.2,1.1,0.3,1.7c0,0.3,0.1,0.5,0.2,0.8c0.1,0.2,0.1,0.5,0.2,0.7c0,0.2,0.1,0.4,0.1,0.6c0,0.2,0.1,0.3,0.1,0.5
		c0.1,0.3,0.1,0.4,0.1,0.5c0,0.1,0,0.1,0,0.2v0.3c0,0.1,0,0.2,0,0.3c0,0.1,0,0.2,0,0.3v0.6v0.4v0.1c0,0.1,0,0.2,0,0.3
		c0,0.1,0,0.2,0.1,0.4c0,0.1,0,0.3,0.1,0.5c0,0.2,0.1,0.3,0.1,0.5c0,0.2,0,0.4,0.1,0.6c0,0.2,0.1,0.4,0.1,0.6c0,0.2,0,0.4,0.1,0.7
		c0.1,0.5,0.2,1,0.2,1.6c0.1,0.5,0.2,1.1,0.3,1.8v0.1l0,0.1c0,0.2-0.1,0.3-0.1,0.4c0,0.1-0.1,0.3-0.1,0.4v0
		c-0.1,0.1-0.2,0.2-0.2,0.3s-0.1,0.2-0.2,0.3c-0.2,0.3-0.4,0.5-0.7,0.6c-0.3,0.1-0.6,0.1-0.9,0c-0.1,0-0.2-0.1-0.3-0.1
		c-0.1,0-0.1-0.1-0.2-0.1c-0.2-0.2-0.4-0.4-0.5-0.5l0-0.1v-0.1c0-0.2,0-0.3,0-0.5c0-0.1,0-0.3,0-0.5v-0.8c0-0.2,0-0.3,0-0.5
		s0-0.3,0-0.4c0-0.1,0-0.2,0-0.3c0-0.1,0-0.3,0-0.6c0-0.2-0.1-0.4-0.1-0.6c0-0.2-0.1-0.4-0.1-0.6c0-0.2-0.1-0.4-0.1-0.6
		c0-0.2-0.1-0.4-0.1-0.5l-2.7,0.2l-0.2,5.9l-0.1,0.2c0,0.1-0.1,0.1-0.2,0.2c-0.1,0.1-0.1,0.1-0.2,0.2l0,0h0
		c-0.1,0.1-0.2,0.1-0.4,0.2c-0.1,0-0.2,0.1-0.3,0.1c-0.1,0-0.2,0.1-0.3,0.1h0c-0.2,0-0.4,0.1-0.5,0.1c-0.1,0-0.1,0-0.2,0
		c-0.1,0-0.2,0-0.3-0.1C64.7,279.9,64.6,279.9,64.5,279.8L64.5,279.8L64.5,279.8z M69.9,270c0-0.3-0.1-0.5-0.1-0.8
		c0-0.2-0.1-0.5-0.1-0.7c-0.1-0.3-0.1-0.6-0.2-0.9c0-0.2-0.1-0.5-0.1-0.8c-0.1-0.3-0.1-0.6-0.1-0.7c0-0.1,0-0.2,0-0.3
		c0,0,0-0.1,0-0.2c0,0,0-0.1,0-0.2s0-0.2,0-0.4l-0.2-0.7l-0.8,5.4L69.9,270z"/>
	<path fill="#D76258" d="M75.1,279.9l-0.8-0.7l0.4-6.8v-4.9l0.3-0.3l-0.3-4.8v-7c0-0.4,0.2-0.7,0.7-1c0.4-0.2,0.7-0.3,1.1-0.3
		c0.2,0,0.4,0.1,0.6,0.2c0.1,0.1,0.2,0.2,0.3,0.4c0.1,0.1,0.2,0.2,0.2,0.3l0.5,0.5v7.6l0.5-1.1l0.8-1.5l2.7-5
		c0.1-0.2,0.2-0.3,0.2-0.4c0.1-0.2,0.2-0.3,0.4-0.4c0.2-0.2,0.4-0.2,0.6-0.2c0.2,0,0.4,0.1,0.6,0.2c0.1,0,0.2,0.1,0.3,0.2
		c0.1,0.1,0.2,0.2,0.3,0.3c0.1,0.1,0.2,0.2,0.3,0.4c0.1,0.2,0.2,0.4,0.2,0.5c0.2,0.4,0.1,0.8-0.2,1.1c-0.1,0.1-0.2,0.1-0.3,0.2
		l-2.6,5.1v0.8l-2.6,5.7l0.2,0.5l3.5,5.4l0.7,1.7c0.1,0.1,0.2,0.2,0.3,0.2c0.1,0.1,0.2,0.1,0.2,0.2c0.1,0.1,0.1,0.2,0.2,0.3
		c0,0.1,0.1,0.2,0.2,0.3c0.1,0.1,0.2,0.2,0.2,0.3l0.2,0.3l-0.2,0.3c0,0.1-0.1,0.2-0.2,0.3c-0.1,0.1-0.1,0.2-0.2,0.3h0
		c-0.1,0.1-0.2,0.2-0.4,0.4c-0.1,0.1-0.1,0.2-0.2,0.2c-0.1,0.1-0.2,0.1-0.3,0.2l-0.1,0.1h-0.2c-0.3,0-0.6-0.1-0.9-0.2
		c-0.2-0.1-0.5-0.2-0.7-0.4c-0.1-0.1-0.3-0.2-0.4-0.3c-0.1-0.1-0.2-0.2-0.3-0.3l-0.1-0.1l-2.3-4.7l-0.9-1.2v6l-0.1,0.3l0,0.1
		c0,0.1,0,0.2-0.1,0.2c0,0.2-0.1,0.3-0.3,0.4l-0.2,0.2H75.1z"/>
	<path fill="#D76258" d="M86,264.6h-0.6l0.6-1.8c0-0.4,0-0.8,0-1.2c0-0.4,0-0.8,0-1.1c0-0.3,0-0.6,0.1-1c0-0.3,0-0.6,0-1
		c0-0.3,0.1-0.6,0.1-0.8c0-0.2,0.1-0.4,0.1-0.5c0-0.1,0-0.2,0.1-0.3c0-0.1,0.1-0.2,0.1-0.3c0.1-0.2,0.2-0.3,0.4-0.5
		c0.1-0.1,0.1-0.1,0.2-0.2c0.1-0.1,0.2-0.1,0.2-0.2c0.1-0.1,0.2-0.2,0.3-0.2s0.2-0.1,0.4-0.2c0.2-0.1,0.5-0.2,1-0.3l1-0.3
		c0.1,0,0.3-0.1,0.4-0.1s0.2-0.1,0.3-0.1l0.1-0.1H92c0.2,0,0.5,0,0.7,0s0.5,0,0.7,0.1c0.2,0,0.5,0,0.7,0s0.4,0,0.6,0.1
		c0.1,0,0.2,0.1,0.4,0.1c0.2,0,0.3,0.1,0.5,0.2c0.1,0,0.2,0.1,0.3,0.3c0.1,0.2,0.2,0.4,0.2,0.6c0,0.2-0.1,0.4-0.2,0.6
		c-0.1,0.1-0.1,0.2-0.2,0.3c-0.1,0.1-0.3,0.2-0.4,0.3c-0.1,0-0.2,0.1-0.3,0.1s-0.2,0-0.3,0s-0.3,0-0.6,0h-1.5l-0.8,0.4h-0.2
		c-0.1,0-0.3,0-0.5,0.1c-0.1,0-0.3,0.1-0.5,0.1c0,0-0.1,0-0.1,0.1c0,0,0,0-0.1,0.1l0,0l-0.1,0c-0.1,0.1-0.2,0.1-0.3,0.2
		c-0.1,0-0.1,0.1-0.2,0.1c0,0.1-0.1,0.1-0.2,0.2s-0.1,0.1-0.2,0.2c0,0,0,0-0.1,0.1c0,0,0,0.1-0.1,0.1v7.1l1-0.2h0.1
		c0.1,0,0.2,0,0.4-0.1c0.1,0,0.2,0,0.2-0.1c0.1,0,0.1,0,0.2,0c0.2,0,0.4-0.1,0.5,0c0.2,0,0.3,0.1,0.5,0.2c0,0,0.1,0,0.2,0
		c0.1,0,0.1,0,0.2,0c0.1,0,0.2,0,0.3,0.1c0.1,0,0.2,0.1,0.3,0.1c0.1,0,0.2,0.1,0.3,0.1c0.1,0,0.2,0.1,0.3,0.2
		c0.2,0.1,0.3,0.2,0.4,0.4c0.1,0.1,0.1,0.3,0.1,0.4c0,0.2,0,0.3-0.1,0.5c-0.1,0.1-0.2,0.3-0.3,0.4c-0.2,0.2-0.4,0.3-0.6,0.3
		c-0.2,0.1-0.4,0.1-0.6,0.1l-2.4,0.4h0l-0.1,0c0,0-0.1,0.1-0.2,0.1c-0.1,0-0.1,0.1-0.2,0.2h0c0,0-0.1,0-0.1,0.1s-0.1,0.1-0.1,0.1
		l-0.3,6.9v0.8v0.2v0h3.3c0.1,0,0.1,0,0.2-0.1c0.1,0,0.1,0,0.2,0v0c0.1,0,0.1,0,0.2-0.1c0.1,0,0.1,0,0.2-0.1c0.1,0,0.2,0,0.3-0.1
		c0.1,0,0.2,0,0.3,0c0.3,0,0.6,0,0.9,0.1c0.3,0.1,0.6,0.5,0.9,1l0,0.1v0.1c0,0.4-0.1,0.7-0.3,0.9c-0.1,0.1-0.1,0.2-0.2,0.2
		c-0.1,0.1-0.2,0.1-0.3,0.2h-0.1c-0.2,0.1-0.4,0.3-0.7,0.3h-0.1h-0.1c-0.4,0.1-0.8,0.1-1.2,0.1c-0.4,0-0.8,0-1.1,0
		c-0.2,0-0.4,0-0.6,0.1s-0.4,0-0.6,0c-0.1,0-0.2,0-0.3,0c-0.1,0-0.2,0-0.3,0c-0.6,0-1.1-0.1-1.4-0.2c-0.3,0-0.7-0.1-1-0.2
		c-0.3-0.2-0.5-0.3-0.6-0.5c-0.1-0.1-0.2-0.2-0.2-0.4s-0.1-0.3-0.2-0.4V278l-0.5-5.8H86V264.6z"/>
	<path fill="#D76258" d="M105.8,279c0,0.2-0.1,0.4-0.2,0.6c-0.1,0.2-0.4,0.3-0.8,0.4c-0.1,0-0.2,0-0.4,0c-0.1,0-0.2,0-0.4,0
		c-0.1,0-0.2,0.1-0.3,0.1c-0.1,0-0.2,0-0.2,0c-0.2,0-0.3,0-0.3,0c-0.2,0-0.3-0.1-0.5-0.2h0l0-0.1c-0.2-0.1-0.3-0.3-0.4-0.5l-0.1-0.2
		l0.3-0.7l-0.3-0.3v-12.8v-0.4c0-0.1,0-0.2,0-0.4s0-0.3,0-0.5c0-0.2,0-0.4,0-0.6c0-0.2,0-0.4,0-0.6c0-0.2,0-0.4,0-0.6
		c0-0.2,0-0.4,0-0.7c0-0.4,0.1-0.8,0.1-1.3c0-0.5,0.1-1,0.1-1.5h-0.3v-3.5l0.1-0.2c0.2-0.2,0.4-0.3,0.6-0.4c0,0,0.1-0.1,0.2-0.1
		s0.1,0,0.2-0.1c0.1,0,0.2,0,0.3-0.1c0.1,0,0.2,0,0.3,0h0.2l0.6,0.6l0.5,0.5v15.7l0.4,5.9V279z"/>
	<path fill="#D76258" d="M109.7,262.2c0-0.7-0.1-1.5-0.2-2.3c-0.1-0.8-0.2-1.6-0.2-2.4l-3.1,0h-0.1c-0.1-0.1-0.2-0.1-0.4-0.2
		s-0.3-0.1-0.4-0.2c-0.3-0.1-0.5-0.2-0.6-0.4c-0.3-0.2-0.5-0.4-0.5-0.6c-0.1-0.3-0.1-0.5,0.1-0.8c0.1-0.2,0.2-0.3,0.3-0.4
		c0.2-0.1,0.4-0.2,0.6-0.3h0.1l11-0.4l0.1,0.1c0,0,0.1,0,0.3,0.1c0.1,0.1,0.2,0.1,0.3,0.2s0.1,0.1,0.2,0.2h0v0.1
		c0,0.1,0.1,0.2,0.2,0.2c0.1,0.1,0.2,0.2,0.2,0.4c0.1,0.1,0.1,0.3,0.1,0.5c0,0.2,0,0.3-0.1,0.5c0,0.1-0.1,0.3-0.1,0.4
		c-0.1,0.2-0.2,0.3-0.4,0.4c-0.1,0.1-0.3,0.2-0.5,0.2c-0.1,0-0.2,0-0.3,0s-0.4,0-0.7,0h-1.5h-1.4c0.1,0.8,0.1,1.5,0.2,2.2
		c0.1,0.7,0.1,1.4,0.2,2.1c0,0.3,0,0.6,0.1,0.9c0,0.3,0,0.6,0.1,0.9c0.1,0.7,0.1,1.3,0.1,1.7l0,0.2c0,0.2,0,0.4,0.1,0.6
		c0,0.2,0,0.3,0,0.5c0,0.2,0,0.3,0.1,0.4c0,0.1,0,0.2,0,0.2c0,0.3,0,0.6,0.1,1c0.2,0.4,0.3,0.9,0,1.4v0l-0.2,0.7l0.2,8l-0.1,0.2
		c-0.1,0.1-0.2,0.2-0.3,0.3s-0.1,0.2-0.3,0.3c-0.1,0.1-0.3,0.3-0.5,0.4c-0.2,0.2-0.4,0.3-0.6,0.3c0,0-0.1,0-0.2,0
		c-0.2,0-0.4,0-0.6-0.1c-0.1,0-0.1-0.1-0.2-0.1c-0.1,0-0.2-0.1-0.2-0.1s-0.1-0.1-0.2-0.2c-0.1-0.1-0.2-0.1-0.3-0.2l-0.1-0.2l0.2-8.6
		v-2.6v-0.6c0-0.2,0-0.4-0.1-0.6c0-0.2,0-0.4-0.1-0.7c0-0.2-0.1-0.5-0.1-0.8c0-0.3,0-0.6-0.1-0.9c0-0.3-0.1-0.6-0.1-1
		S109.7,262.5,109.7,262.2z"/>
	<path fill="#D76258" d="M124.9,279.6c-0.3-0.1-0.5-0.2-0.7-0.4s-0.4-0.3-0.5-0.5c-0.2-0.3-0.4-0.7-0.5-1.1
		c-0.1-0.3-0.1-0.5-0.1-0.7c0-0.1-0.1-0.2-0.1-0.4s-0.1-0.3-0.1-0.5c0-0.2,0-0.4-0.1-0.6s0-0.4,0-0.6c0-0.2,0-0.4,0-0.6
		c0-0.2,0-0.4,0.1-0.5c0.1-0.5,0.2-0.8,0.4-1c0.1-0.1,0.2-0.1,0.3-0.2c0.1-0.1,0.2-0.1,0.4-0.1c0.2,0,0.4,0.1,0.5,0.2
		c0.3,0,0.6,0.1,0.9,0.3c0.1,0.1,0.2,0.2,0.3,0.3c0.1,0.1,0.2,0.2,0.3,0.3l0.2,0.2l0,0.3c0,0.2-0.1,0.4-0.1,0.6
		c0,0.2-0.1,0.4-0.1,0.5v0.1c0,0.3,0,0.6,0,0.9c0,0.2,0,0.3,0,0.4c0,0.1,0,0.1,0.1,0.2l0.1,0.1v0.1v0.1c0.2,0,0.3,0,0.5,0.1
		c0.2,0,0.4,0,0.7,0c0.5,0,0.8-0.1,1-0.3c0.3-0.3,0.6-0.7,0.7-1.2v0c0,0,0-0.1,0-0.1c0,0,0-0.1,0-0.2s0-0.1,0-0.2
		c0-0.2-0.1-0.4-0.1-0.6c0-0.2-0.1-0.4-0.1-0.6c0-0.2-0.1-0.5-0.2-0.7s-0.1-0.5-0.2-0.7c-0.1-0.5-0.2-1-0.2-1.4c0,0,0-0.2-0.1-0.3
		c-0.1-0.2-0.2-0.4-0.4-0.7c-0.2-0.3-0.4-0.5-0.6-0.8c-0.2-0.3-0.4-0.5-0.7-0.8c-0.3-0.3-0.5-0.5-0.8-0.8c-0.2-0.2-0.5-0.5-0.7-0.7
		c-0.2-0.2-0.5-0.4-0.6-0.6c-0.2-0.1-0.3-0.3-0.4-0.4l-0.1-0.1c-0.2-0.2-0.4-0.6-0.7-1.3c-0.1-0.3-0.3-0.6-0.4-0.9
		c-0.1-0.3-0.2-0.6-0.4-1c-0.3-0.7-0.5-1.4-0.6-2c-0.2-0.7-0.3-1.2-0.3-1.5v-0.1l0,0c0-0.2,0.1-0.4,0.2-0.6c0.1-0.2,0.2-0.4,0.3-0.7
		c0.1-0.2,0.2-0.5,0.4-0.7c0.1-0.2,0.3-0.4,0.5-0.6c0.2-0.2,0.4-0.4,0.6-0.6c0.2-0.2,0.4-0.4,0.6-0.5c0.2-0.2,0.5-0.3,0.8-0.4
		c0.3-0.1,0.6-0.2,0.9-0.3h0.1h0c0.8,0,1.5,0.1,2.1,0.4c0.4,0.1,0.7,0.3,1,0.4s0.6,0.3,0.9,0.5c0.5,0.4,1,0.7,1.3,1.1
		c0.4,0.4,0.7,0.7,0.8,0.9h0c0,0.1,0.1,0.3,0.1,0.4c0,0.2,0.1,0.5,0.1,1c0,0.3,0,0.6,0,1s0,0.6,0,1c0,0.4,0,0.8,0,1.2s0,0.9,0,1.3
		v0.3l-0.2,0.2c0,0-0.1,0.1-0.1,0.1s-0.1,0.1-0.1,0.1l0,0.1h-0.1c-0.1,0.1-0.2,0.1-0.4,0.2c-0.2,0.1-0.4,0.1-0.6,0.1
		c-0.2,0-0.4,0-0.6-0.1l-0.3-0.2h-0.1c-0.1,0-0.1-0.1-0.2-0.1s-0.1-0.1-0.2-0.1l-0.2-0.2v-5c0,0-0.1-0.1-0.2-0.2s-0.2-0.2-0.4-0.4
		c-0.3-0.3-0.9-0.6-1.7-0.7c-0.1,0-0.2,0-0.3,0c-0.1,0-0.3,0-0.3,0.1c0,0-0.1,0-0.1,0c-0.1,0.1-0.2,0.2-0.3,0.4s-0.2,0.2-0.2,0.4
		c-0.2,0.3-0.2,0.8-0.2,1.3v0.2l-0.1,0.1c0,0,0,0.1-0.1,0.1s0,0.1-0.1,0.1c0,0,0,0.1,0,0.1s0,0.1,0,0.1c0,0,0,0.1,0,0.1
		c0,0,0,0,0,0.1c0,0.1,0.1,0.2,0.2,0.3c0.1,0.1,0.1,0.2,0.2,0.4c0.1,0.2,0.2,0.4,0.3,0.6c0.1,0.2,0.2,0.4,0.3,0.6
		c0.1,0.2,0.2,0.4,0.3,0.5c0.1,0.2,0.2,0.4,0.3,0.5c0.1,0.2,0.1,0.3,0.2,0.3c0,0,0.1,0.1,0.1,0.1l0.2,0.2v0.3c0,0,0,0.1,0,0.1
		c0,0,0,0,0,0.1l0.1,0.1c0.1,0.1,0.3,0.2,0.5,0.4c0.2,0.1,0.4,0.3,0.6,0.5c0.2,0.2,0.4,0.4,0.6,0.7c0.2,0.3,0.4,0.5,0.6,0.8
		c0.2,0.3,0.4,0.6,0.6,0.9c0.2,0.3,0.4,0.6,0.6,1c0.4,0.7,0.7,1.4,1,2.2c0.2,0.3,0.3,0.7,0.4,1.1c0.1,0.4,0.2,0.7,0.2,1.1
		c0.1,0.7,0.2,1.3,0.2,1.9c0,0.3,0,0.6,0,1s0,0.6-0.1,0.9v0v0.1c-0.2,0.6-0.8,1.3-1.7,1.9c-0.8,0.5-2,0.8-3.6,1.1l0,0h0
		c-0.4,0-0.8,0-1.1-0.1S125.1,279.7,124.9,279.6z"/>
	<path fill="#D76258" d="M133.7,265l-0.4-9.3l0.2-0.2c0,0,0.1,0,0.1,0c0,0,0.1,0,0.1-0.1c0.3-0.2,0.6-0.3,0.9-0.3h1.2l1.7,4.9
		l0.7,3.3l0.8,2.2v0.1l0.8-8.2l0.4-2.5l0.2-0.1c0.1,0,0.2-0.1,0.4-0.2l0.1,0c0,0,0.1,0,0.2,0c0.1,0,0.1,0,0.2-0.1
		c0.1,0,0.2-0.1,0.3-0.1c0.1,0,0.2,0,0.3,0c0.2,0,0.5,0.1,0.8,0.2c0.1,0,0.2,0.1,0.3,0.2c0.1,0.1,0.2,0.1,0.3,0.2
		c0,0.1,0.1,0.1,0.2,0.2c0.1,0.1,0.1,0.1,0.2,0.2l0.1,0.1v5.6c0,0.1,0.1,0.3,0.1,0.4c0,0.2,0.1,0.4,0.1,0.7c0,0.2,0.1,0.5,0.1,0.8
		c0,0.3,0.1,0.6,0.1,0.9c0.1,0.8,0.2,1.6,0.3,2.5l1.1,11.2v0.9l0,0.1c-0.1,0.3-0.2,0.5-0.4,0.7c-0.1,0.2-0.3,0.4-0.4,0.5
		c-0.2,0.2-0.5,0.3-0.9,0.3c-0.3,0-0.5-0.1-0.6-0.2c0,0-0.1-0.1-0.2-0.2s-0.1-0.1-0.2-0.2c-0.1-0.1-0.2-0.3-0.3-0.4l0-0.1V277
		l-0.8-6.7l0-0.3c0,0,0,0.1,0,0.1c0,0.2-0.1,0.5-0.1,0.8c-0.1,0.3-0.1,0.5-0.2,0.7v0.3c0,0.1,0,0.2,0,0.3c0,0.1,0,0.2,0,0.4
		c0,0.2,0,0.3-0.1,0.5s0,0.3,0,0.5l-0.1,1c0,0.4-0.1,0.9-0.1,1.3c0,0.5-0.1,1-0.1,1.5v1.6l-0.1,0.1c-0.1,0.2-0.2,0.3-0.3,0.4
		c-0.1,0.1-0.2,0.1-0.3,0.2s-0.2,0.1-0.3,0.2c-0.2,0.1-0.4,0.2-0.7,0.2c-0.3,0-0.5,0-0.6-0.1c-0.2-0.1-0.3-0.1-0.4-0.2
		c-0.1-0.1-0.1-0.2-0.1-0.3c0-0.1,0-0.1-0.1-0.2c0-0.2-0.1-0.3-0.1-0.5c0-0.2-0.1-0.3-0.1-0.5v0c0-0.1,0-0.2-0.1-0.4
		c0-0.1,0-0.3-0.1-0.4c0-0.1,0-0.2,0-0.3s0-0.2,0-0.3v-3.3l-0.8-2.8v6.5v0.1c0,0.1-0.1,0.2-0.1,0.3s-0.1,0.2-0.1,0.3h0l-0.2,0.5
		c0,0.1-0.1,0.2-0.2,0.3s-0.1,0.2-0.2,0.2c-0.1,0.1-0.3,0.3-0.5,0.4c-0.1,0-0.2,0-0.2,0.1c-0.1,0-0.1,0-0.2,0
		c-0.2,0.1-0.4,0.1-0.6,0.1l-0.4-0.1V265z"/>
	<path fill="#D76258" d="M150.3,279c0,0.2-0.1,0.4-0.2,0.6c-0.1,0.2-0.4,0.3-0.8,0.4c-0.1,0-0.2,0-0.4,0s-0.2,0-0.4,0
		c-0.1,0-0.2,0.1-0.3,0.1c-0.1,0-0.2,0-0.2,0c-0.2,0-0.3,0-0.3,0c-0.2,0-0.3-0.1-0.5-0.2h0l0-0.1c-0.2-0.1-0.3-0.3-0.4-0.5l-0.1-0.2
		l0.3-0.7l-0.3-0.3v-12.8v-0.4c0-0.1,0-0.2,0-0.4s0-0.3,0-0.5c0-0.2,0-0.4,0-0.6c0-0.2,0-0.4,0-0.6c0-0.2,0-0.4,0-0.6
		c0-0.2,0-0.4,0-0.7c0-0.4,0.1-0.8,0.1-1.3c0-0.5,0.1-1,0.1-1.5h-0.3v-3.5l0.1-0.2c0.2-0.2,0.4-0.3,0.6-0.4c0,0,0.1-0.1,0.2-0.1
		s0.1,0,0.2-0.1c0.1,0,0.2,0,0.3-0.1c0.1,0,0.2,0,0.3,0h0.2l0.6,0.6l0.5,0.5v15.7l0.4,5.9V279z"/>
	<path fill="#D76258" d="M161.9,277.5c0,0.1,0.1,0.3,0.1,0.4s0,0.2,0,0.3c0,0.2-0.1,0.4-0.2,0.5c0,0-0.1,0.1-0.2,0.1
		s-0.1,0.1-0.2,0.1c0,0,0,0-0.1,0c-0.2,0.1-0.5,0.3-0.9,0.4c-0.2,0-0.3,0-0.4,0.1c-0.1,0-0.2,0-0.3,0h-0.1c0,0-0.1,0-0.2,0
		s-0.2,0-0.3,0.1l-0.1,0c-0.3,0.1-0.8,0.1-1.3,0.2c-0.3,0-0.5,0.1-0.8,0.2c-0.3,0.1-0.5,0.1-0.8,0.2c-0.2,0-0.3,0-0.4,0
		c-0.1,0-0.3,0-0.4,0c-0.1,0-0.2,0-0.3,0c-0.1,0-0.1,0-0.2,0c-0.2,0-0.3,0-0.5-0.1c-0.1,0-0.3-0.1-0.5-0.2c-0.2-0.1-0.3-0.1-0.5-0.2
		c-0.1-0.1-0.3-0.1-0.4-0.2c-0.1-0.1-0.2-0.1-0.3-0.2c-0.1-0.1-0.2-0.1-0.3-0.2c-0.3-0.2-0.4-0.3-0.5-0.5c-0.1-0.1-0.1-0.2-0.1-0.3
		c0-0.1,0-0.3,0-0.6c0-0.2,0-0.4,0-0.6c0-0.2,0-0.4,0-0.6v-1.9c0-0.1,0-0.2,0-0.3c0-0.1,0-0.2,0-0.3c0-0.1,0-0.3,0-0.4s0-0.3,0-0.5
		s0-0.3,0.1-0.5c0-0.1,0-0.3,0.1-0.4v-0.4v-1.1v-1.9v-2.7v0l0.2-0.7c0-0.1,0-0.1-0.1-0.2c0-0.1,0-0.1-0.1-0.2c0-0.1,0-0.1,0-0.2
		v-0.1l-0.1-0.1l0.1-1.3c0-0.7,0-1.3,0.1-1.9c0-0.6,0-1.1,0-1.7c0-0.2,0-0.5,0.1-0.7c0-0.2,0-0.4,0-0.6c0-0.2,0-0.5,0-0.7
		c0-0.2,0-0.4,0-0.6s0-0.4,0.1-0.5c0-0.2,0-0.3,0-0.4c0-0.2,0-0.3,0.1-0.4c0-0.1,0-0.1,0.1-0.2c0-0.1,0.1-0.2,0.1-0.3
		s0.1-0.2,0.2-0.2c0,0,0.1-0.1,0.2-0.2s0.1-0.1,0.2-0.2c0.2-0.1,0.4-0.2,0.6-0.3l0.3-0.1l0.3,0.2c0.1,0.1,0.2,0.2,0.3,0.3
		c0.1,0.1,0.2,0.2,0.3,0.2l0,0c0.1,0.1,0.1,0.2,0.2,0.3c0.1,0.1,0.1,0.2,0.2,0.2c0.1,0.1,0.2,0.2,0.2,0.3c0.1,0.1,0.1,0.2,0.1,0.4
		v0.4c0,0.2-0.1,0.3-0.1,0.5l-0.1,0.6l0.1,4.9l0.1,0.8l-0.3,0.7c0,1-0.1,2-0.1,2.8c0,0.9,0,1.7-0.1,2.4c0,0.4,0,0.7,0,1.1
		c0,0.3,0,0.7-0.1,1c0,0.3,0,0.7,0,0.9c0,0.3,0,0.6,0,0.8c0,0.3,0,0.5,0,0.7c0,0.2,0,0.4,0,0.6v0.4c0,0,0,0.1,0,0.2
		c0,0.1,0,0.1,0.1,0.2c0,0.1,0.1,0.2,0.1,0.3c0,0.1,0,0.2,0,0.3v0.2c0,0.2,0,0.3,0,0.4c0,0.1,0,0.1,0,0.2c0,0.2,0,0.3,0,0.4v0.1v0.1
		c0.1,0,0.3,0,0.3,0c0.3,0,0.6-0.1,0.9-0.2c0.3-0.1,0.6-0.1,0.9-0.2c0.3,0,0.6-0.1,1-0.1c0.3,0,0.6-0.1,0.9-0.1
		c0.6-0.1,1.1-0.1,1.4,0c0.1,0,0.1,0,0.2,0c0.1,0,0.1,0,0.1,0c0.1,0,0.2,0.1,0.4,0.1c0.1,0,0.2,0.1,0.3,0.1s0.2,0.1,0.2,0.2
		c0,0.1,0.1,0.1,0.1,0.2C161.7,277.3,161.8,277.4,161.9,277.5L161.9,277.5z"/>
	<path fill="#D76258" d="M161.2,264.6h-0.6l0.6-1.8c0-0.4,0-0.8,0-1.2c0-0.4,0-0.8,0-1.1c0-0.3,0-0.6,0.1-1c0-0.3,0-0.6,0-1
		c0-0.3,0.1-0.6,0.1-0.8c0-0.2,0.1-0.4,0.1-0.5c0-0.1,0-0.2,0.1-0.3c0-0.1,0.1-0.2,0.1-0.3c0.1-0.2,0.2-0.3,0.4-0.5
		c0.1-0.1,0.1-0.1,0.2-0.2c0.1-0.1,0.2-0.1,0.2-0.2c0.1-0.1,0.2-0.2,0.3-0.2c0.1-0.1,0.2-0.1,0.4-0.2c0.2-0.1,0.5-0.2,1-0.3l1-0.3
		c0.1,0,0.3-0.1,0.4-0.1c0.1,0,0.2-0.1,0.3-0.1l0.1-0.1h1.2c0.2,0,0.5,0,0.7,0c0.2,0,0.5,0,0.7,0.1c0.2,0,0.5,0,0.7,0
		c0.2,0,0.4,0,0.6,0.1c0.1,0,0.2,0.1,0.4,0.1c0.2,0,0.3,0.1,0.5,0.2c0.1,0,0.2,0.1,0.3,0.3c0.1,0.2,0.2,0.4,0.2,0.6
		c0,0.2-0.1,0.4-0.2,0.6c-0.1,0.1-0.1,0.2-0.2,0.3c-0.1,0.1-0.3,0.2-0.4,0.3c-0.1,0-0.2,0.1-0.3,0.1c-0.1,0-0.2,0-0.3,0
		c-0.1,0-0.3,0-0.6,0h-1.5l-0.8,0.4h-0.2c-0.1,0-0.3,0-0.5,0.1c-0.1,0-0.3,0.1-0.5,0.1c0,0-0.1,0-0.1,0.1c0,0,0,0-0.1,0.1l0,0
		l-0.1,0c-0.1,0.1-0.2,0.1-0.3,0.2c-0.1,0-0.1,0.1-0.2,0.1c0,0.1-0.1,0.1-0.2,0.2s-0.1,0.1-0.2,0.2c0,0,0,0-0.1,0.1
		c0,0,0,0.1-0.1,0.1v7.1l1-0.2h0.1c0.1,0,0.2,0,0.4-0.1c0.1,0,0.2,0,0.2-0.1s0.1,0,0.2,0c0.2,0,0.4-0.1,0.5,0c0.2,0,0.3,0.1,0.5,0.2
		c0,0,0.1,0,0.2,0s0.1,0,0.2,0c0.1,0,0.2,0,0.3,0.1c0.1,0,0.2,0.1,0.3,0.1c0.1,0,0.2,0.1,0.3,0.1s0.2,0.1,0.3,0.2
		c0.2,0.1,0.3,0.2,0.4,0.4s0.1,0.3,0.1,0.4c0,0.2,0,0.3-0.1,0.5c-0.1,0.1-0.2,0.3-0.3,0.4c-0.2,0.2-0.4,0.3-0.6,0.3
		c-0.2,0.1-0.4,0.1-0.6,0.1l-2.4,0.4h0l-0.1,0c0,0-0.1,0.1-0.2,0.1c-0.1,0-0.1,0.1-0.2,0.2h0c0,0-0.1,0-0.1,0.1s-0.1,0.1-0.1,0.1
		l-0.3,6.9v0.8v0.2v0h3.3c0.1,0,0.1,0,0.2-0.1c0.1,0,0.1,0,0.2,0v0c0.1,0,0.1,0,0.2-0.1c0.1,0,0.1,0,0.2-0.1c0.1,0,0.2,0,0.3-0.1
		c0.1,0,0.2,0,0.3,0c0.3,0,0.6,0,0.9,0.1c0.3,0.1,0.6,0.5,0.9,1l0,0.1v0.1c0,0.4-0.1,0.7-0.3,0.9c-0.1,0.1-0.1,0.2-0.2,0.2
		c-0.1,0.1-0.2,0.1-0.3,0.2h-0.1c-0.2,0.1-0.4,0.3-0.7,0.3H169h-0.1c-0.4,0.1-0.8,0.1-1.2,0.1c-0.4,0-0.8,0-1.1,0
		c-0.2,0-0.4,0-0.6,0.1c-0.2,0-0.4,0-0.6,0c-0.1,0-0.2,0-0.3,0s-0.2,0-0.3,0c-0.6,0-1.1-0.1-1.4-0.2c-0.3,0-0.7-0.1-1-0.2
		c-0.3-0.2-0.5-0.3-0.6-0.5c-0.1-0.1-0.2-0.2-0.2-0.4s-0.1-0.3-0.2-0.4V278l-0.5-5.8h0.4V264.6z"/>
</g>
<g>
	<g>
		<path fill="#D76258" d="M96.3,33.6c-1.1,0-1.9-0.9-1.9-1.9s0.9-1.9,1.9-1.9s1.9,0.9,1.9,1.9S97.4,33.6,96.3,33.6z M96.3,46.3
			c-1.1,0-1.9-0.9-1.9-1.9s0.9-1.9,1.9-1.9s1.9,0.9,1.9,1.9S97.4,46.3,96.3,46.3z"/>
		<path fill="#D76258" d="M123.7,45.9c-0.1,0-0.2-0.1-0.3-0.2c-0.1-0.1-0.2-0.1-0.2-0.2c-0.2-0.1-0.3-0.3-0.4-0.5l-0.1-0.1V25.7
			l-0.4-2.4v-1.3c0-0.2,0.1-0.4,0.2-0.6c0-0.1,0.1-0.2,0.2-0.3c0.1-0.1,0.1-0.2,0.2-0.2c0.1,0,0.2-0.1,0.3-0.2s0.2-0.1,0.3-0.1
			c0.3-0.2,0.6-0.3,0.9-0.3c0.1,0,0.2,0,0.3-0.1c0.1,0,0.2,0,0.3,0h0.8c0.4,0,0.8,0,1.2,0c0.4,0,0.8,0,1.1,0c0.6,0,1.2,0,1.8,0.1
			c0.7,0.1,1.2,0.2,1.5,0.5v0c0.1,0.1,0.2,0.2,0.3,0.4c0.1,0.1,0.2,0.3,0.3,0.5c0.1,0.2,0.1,0.3,0.2,0.5c0.1,0.1,0.1,0.3,0.2,0.5
			c0,0.2,0.1,0.3,0.1,0.5c0,0.1,0.1,0.3,0.1,0.4c0,0.1,0.1,0.3,0.1,0.4s0,0.2,0,0.3v0.6c0,0.2,0,0.3,0,0.5c0,0.2,0,0.4,0,0.6
			c0,0.2,0,0.4,0,0.6c0,0.2,0,0.4,0,0.7l-0.1,1.4c0,0.6-0.1,1.2-0.1,1.8s-0.1,1.3-0.1,1.9v0.1l0,0c0,0.2-0.1,0.3-0.1,0.5
			c0,0.1-0.1,0.3-0.1,0.5c-0.1,0.3-0.2,0.6-0.3,0.8c-0.1,0.3-0.2,0.5-0.3,0.7c0,0.2-0.1,0.3-0.2,0.4c-0.1,0.1-0.2,0.2-0.4,0.3
			c-0.2,0.1-0.3,0.2-0.5,0.3c-0.2,0.1-0.3,0.2-0.5,0.4h0c-0.1,0.1-0.3,0.2-0.4,0.3c-0.1,0.1-0.3,0.2-0.5,0.3
			c0.4,0.2,0.8,0.4,1.1,0.6c0.5,0.3,0.9,0.5,1.3,0.8c0.2,0.2,0.4,0.3,0.6,0.5c0.1,0.1,0.2,0.3,0.3,0.4l0.1,0.1v0.1
			c0,0.1,0,0.2,0,0.3c0,0.1,0,0.2,0.1,0.3c0,0.1,0,0.2,0.1,0.3c0,0.2,0.1,0.4,0.1,0.6c0,0.1,0.1,0.2,0.1,0.3c0,0.1,0,0.2,0,0.2v0.1
			l0,0.1c-0.1,0.1-0.1,0.3-0.1,0.4c0,0.1,0,0.2,0,0.3s0,0.2,0.1,0.3c0,0.1,0,0.2,0,0.3s0,0.2,0,0.3c0,0.1,0.1,0.2,0.1,0.3
			c0,0.1,0,0.2,0,0.2v0.3c0.1,0.3,0.1,0.5,0.1,0.8c0,0.2,0,0.5-0.1,0.7c0,0.1-0.1,0.2-0.2,0.4c-0.1,0.1-0.2,0.3-0.4,0.4l-0.1,0.1
			h-0.2c-0.2,0-0.3,0-0.4,0c-0.1,0-0.2,0.1-0.3,0.1c-0.1,0-0.1,0-0.2,0c-0.1,0-0.2,0-0.3,0h-0.2c-0.2,0-0.5-0.1-0.7-0.3l-0.2-0.2
			v-0.1l-0.4-0.1v-0.4c0-0.4,0-0.8-0.1-1.2c0-0.4,0-0.8-0.1-1.1c0-0.3,0-0.6-0.1-0.9s0-0.6-0.1-0.9c0-0.4-0.1-0.6-0.1-0.7
			s-0.1-0.2-0.1-0.2l0,0c0-0.1-0.2-0.2-0.5-0.4c-0.2-0.1-0.4-0.2-0.6-0.3c-0.2-0.1-0.4-0.2-0.6-0.3h0c-0.3-0.1-0.6-0.2-0.8-0.4v5.7
			l0,0c0,0.2-0.1,0.5-0.3,0.7c-0.1,0.1-0.2,0.2-0.3,0.2c-0.1,0.1-0.2,0.1-0.3,0.2c-0.3,0.1-0.6,0.2-1,0.2
			C124.2,46.1,124,46.1,123.7,45.9z M128.8,32.4c0,0,0-0.1,0.1-0.1s0-0.1,0-0.1v-0.1V23h-2.5v11.9h0.2c0,0,0.1-0.1,0.2-0.1
			c0.1,0,0.2-0.1,0.3-0.2c0.1-0.1,0.2-0.1,0.3-0.2c0.2-0.1,0.5-0.3,0.7-0.5c0.1-0.2,0.2-0.5,0.3-0.7l0,0c0-0.1,0.1-0.2,0.1-0.3
			C128.7,32.6,128.8,32.5,128.8,32.4z"/>
		<path fill="#D76258" d="M137.9,44.9c0,0.2-0.1,0.4-0.2,0.6s-0.4,0.3-0.8,0.4c-0.1,0-0.2,0-0.4,0s-0.2,0-0.4,0
			c-0.1,0-0.2,0.1-0.3,0.1s-0.2,0-0.2,0c-0.2,0-0.3,0-0.3,0c-0.2,0-0.3-0.1-0.5-0.2h0l0-0.1c-0.2-0.1-0.3-0.3-0.4-0.5l-0.1-0.2
			l0.3-0.7l-0.3-0.3V31.1v-0.4c0-0.1,0-0.2,0-0.4s0-0.3,0-0.5c0-0.2,0-0.4,0-0.6c0-0.2,0-0.4,0-0.6c0-0.2,0-0.4,0-0.6
			c0-0.2,0-0.4,0-0.7c0-0.4,0.1-0.8,0.1-1.3c0-0.5,0.1-1,0.1-1.5h-0.3v-3.5l0.1-0.2c0.2-0.2,0.4-0.3,0.6-0.4c0,0,0.1-0.1,0.2-0.1
			s0.1,0,0.2-0.1c0.1,0,0.2,0,0.3-0.1c0.1,0,0.2,0,0.3,0h0.2l0.6,0.6l0.5,0.5V37l0.4,5.9V44.9z"/>
		<path fill="#D76258" d="M142.8,45.7c-0.2,0-0.3,0-0.5,0c-0.1,0-0.3,0-0.4,0c-0.7,0-1.3-0.3-1.7-0.8c-0.2-0.2-0.4-0.4-0.5-0.6
			c-0.1-0.2-0.3-0.4-0.4-0.6l0,0c-0.1-0.3-0.2-0.6-0.3-0.9c-0.1-0.3-0.2-0.6-0.2-1l0,0l0.3-12.8c0-0.5,0.1-1,0.1-1.4
			c0-0.5,0.1-0.9,0.1-1.4c0-0.4,0.1-0.8,0.2-1.2c0.1-0.4,0.1-0.8,0.2-1.2c0.1-0.4,0.2-0.8,0.3-1.2c0.1-0.3,0.3-0.6,0.4-0.9
			c0.2-0.3,0.4-0.5,0.7-0.7c0.3-0.2,0.6-0.4,0.9-0.5c0.3-0.1,0.6-0.2,1-0.3c0.3-0.1,0.6-0.1,1-0.1c0.7,0,1.3,0,1.8,0.1
			c0.2,0,0.4,0.1,0.7,0.2s0.5,0.3,0.5,0.6v0.1c0,0.1,0,0.3-0.1,0.5c-0.1,0.2-0.3,0.4-0.6,0.6c-0.2,0.1-0.4,0.1-0.5,0.2
			c-0.2,0.1-0.4,0.2-0.6,0.2c-0.2,0-0.4,0.1-0.6,0.1c-0.2,0-0.4,0.1-0.7,0.2c-0.4,0.1-0.7,0.2-0.9,0.3h0c-0.1,0-0.2,0.1-0.2,0.2
			c0,0.1-0.1,0.2-0.1,0.2c0,0.2-0.1,0.4-0.1,0.6c0,0.2-0.1,0.4-0.1,0.7c0,0.3,0,0.5-0.1,0.8s0,0.6,0,0.9v0c0,1.3,0,2.6-0.1,3.7
			c0,1.1,0,2.2-0.1,3.3v2.6c0,0.4,0,0.8,0,1.2s0,0.8,0,1.1v1.8v0.8c0,0.4,0.1,0.7,0.2,1c0.1,0.1,0.1,0.2,0.2,0.3
			c0.1,0.1,0.2,0.2,0.4,0.2c0,0,0.2,0.1,0.3,0.1h0.2c0.2,0,0.4,0,0.5-0.1c0.2,0,0.3-0.1,0.5-0.1c0.2,0,0.4-0.1,0.5-0.1
			c0.2,0,0.3-0.1,0.5-0.1c0.1,0,0.2-0.1,0.2-0.1v-0.8c0-0.2,0-0.3,0-0.5s0-0.3,0-0.5c0-0.2,0-0.4,0-0.6s0-0.4,0-0.6
			c0-0.4-0.1-0.8-0.1-1.2c0-0.4,0-0.9-0.1-1.3c-0.2,0-0.5,0-0.7-0.1c-0.2,0-0.4-0.1-0.6-0.2c-0.5-0.2-0.8-0.4-1-0.7
			c-0.2-0.2-0.3-0.5-0.4-0.9c0-0.1,0-0.3,0-0.4c0-0.1,0.1-0.3,0.2-0.4c0.1-0.1,0.4-0.2,0.9-0.3c0.2,0,0.4-0.1,0.5-0.1s0.4,0,0.6-0.1
			c0.2,0,0.4,0,0.5-0.1c0.2,0,0.4,0,0.6-0.1h0.8c0.2,0,0.4,0,0.5,0c0.2,0,0.3,0,0.4,0c0.2,0.1,0.4,0.2,0.5,0.4
			c0.1,0.2,0.2,0.4,0.3,0.6v0.1c0,0.1,0,0.2,0,0.3c0,0.1,0.1,0.4,0.1,0.8c0,0.2,0,0.5,0,0.8c0,0.3,0,0.6,0.1,1c0,0.3,0,0.6,0,1
			c0,0.3,0,0.7,0,1c0,0.4,0,0.7,0,1c0,0.3,0,0.7-0.1,1c0,0.3,0,0.6-0.1,0.9c0,0.3-0.1,0.5-0.1,0.8c0,0.3-0.1,0.5-0.2,0.7
			s-0.1,0.3-0.2,0.4l0,0c-0.2,0.3-0.6,0.5-1.1,0.7c-0.2,0.1-0.5,0.2-0.7,0.2c-0.2,0.1-0.5,0.1-0.9,0.2c-0.3,0-0.6,0.1-0.9,0.1
			c-0.3,0-0.6,0-0.9,0.1c-0.2,0-0.3,0-0.5,0S142.9,45.7,142.8,45.7z"/>
		<path fill="#D76258" d="M152.8,44.8c-0.2,0.4-0.6,0.6-1.1,0.7c-0.2,0.1-0.4,0.2-0.6,0.2c-0.1,0-0.1,0-0.2,0c0,0-0.1,0-0.2-0.1
			c-0.2-0.1-0.3-0.2-0.5-0.4l-0.1-0.1V34.4l0.4-1.9v-3.1c0-0.7,0.1-1.4,0.1-2.1s0.1-1.3,0.1-1.9c0-0.2,0-0.4,0-0.6
			c0-0.2,0-0.4,0-0.6l0-0.2c0-0.2,0-0.5,0-0.7s0-0.4,0-0.6c0-0.2,0-0.4,0-0.5s0-0.3,0-0.4v-0.4c0-0.4,0.2-0.6,0.6-0.8
			c0,0,0.1,0,0.2,0c0.1,0,0.1,0,0.2-0.1h0l0.9-0.1l0.2,0.2l0.1,0.1c0,0,0,0,0.1,0l0.1,0h0l0.7-0.2l-0.4,8.9v4.1h3.2V21l0.2-0.2
			c0,0,0.1-0.1,0.1-0.1c0,0,0.1-0.1,0.2-0.1l0.1,0c0.1,0,0.1-0.1,0.2-0.1c0.1,0,0.1,0,0.2-0.1c0.1,0,0.2,0,0.3-0.1s0.2,0,0.4,0
			c0.2,0,0.3,0,0.4,0.1c0.1,0,0.2,0.1,0.3,0.1c0.2,0.1,0.4,0.2,0.5,0.4c0.1,0.1,0.1,0.2,0.2,0.2s0.1,0.1,0.2,0.2l0.1,0.1l-0.4,6.4
			v1.4l0.4,0.8l0,4.8l-0.4,9.5l-0.1,0.1c-0.1,0.2-0.2,0.4-0.4,0.5c0,0.1-0.1,0.1-0.2,0.2c-0.1,0.1-0.2,0.1-0.2,0.2
			c-0.3,0.1-0.5,0.2-0.8,0.2c-0.4,0-0.7-0.1-0.9-0.3c0,0-0.1-0.1-0.2-0.2s-0.1-0.1-0.2-0.2l-0.1-0.1l-0.5-3.1l0.4-0.4l-0.4-4.6h-3.2
			c0,0.6,0.1,1.1,0.1,1.6s0,1,0.1,1.5c0,0.2,0,0.5,0,0.7c0,0.2,0,0.5,0,0.7s0,0.5,0,0.7c0,0.2,0,0.4,0,0.6c0,0.2,0,0.4,0,0.5
			c0,0.2,0,0.3-0.1,0.4c0,0.1,0,0.2-0.1,0.3s0,0.2-0.1,0.2c0,0.1-0.1,0.3-0.2,0.4C153,44.5,152.9,44.7,152.8,44.8z"/>
		<path fill="#D76258" d="M164.2,28.1c0-0.7-0.1-1.5-0.2-2.3c-0.1-0.8-0.2-1.6-0.2-2.4l-3.1,0h-0.1c-0.1-0.1-0.2-0.1-0.4-0.2
			c-0.1-0.1-0.3-0.1-0.4-0.2c-0.3-0.1-0.5-0.2-0.6-0.4c-0.3-0.2-0.5-0.4-0.5-0.6c-0.1-0.3-0.1-0.5,0.1-0.8c0.1-0.2,0.2-0.3,0.3-0.4
			c0.2-0.1,0.4-0.2,0.6-0.3h0.1l11-0.4l0.1,0.1c0,0,0.1,0,0.3,0.1c0.1,0.1,0.2,0.1,0.3,0.2s0.1,0.1,0.2,0.2h0v0.1
			c0,0.1,0.1,0.2,0.2,0.2c0.1,0.1,0.2,0.2,0.2,0.4c0.1,0.1,0.1,0.3,0.1,0.5c0,0.2,0,0.3-0.1,0.5c0,0.1-0.1,0.3-0.1,0.4
			c-0.1,0.2-0.2,0.3-0.4,0.4c-0.1,0.1-0.3,0.2-0.5,0.2c-0.1,0-0.2,0-0.3,0s-0.4,0-0.7,0h-1.5h-1.4c0.1,0.8,0.1,1.5,0.2,2.2
			c0.1,0.7,0.1,1.4,0.2,2.1c0,0.3,0,0.6,0.1,0.9c0,0.3,0,0.6,0.1,0.9c0.1,0.7,0.1,1.3,0.1,1.7l0,0.2c0,0.2,0,0.4,0.1,0.6
			c0,0.2,0,0.3,0,0.5c0,0.2,0,0.3,0.1,0.4c0,0.1,0,0.2,0,0.2c0,0.3,0,0.6,0.1,1c0.2,0.4,0.3,0.9,0,1.4v0l-0.2,0.7l0.2,8l-0.1,0.2
			c-0.1,0.1-0.2,0.2-0.3,0.3s-0.1,0.2-0.3,0.3c-0.1,0.1-0.3,0.3-0.5,0.4c-0.2,0.2-0.4,0.3-0.6,0.3c0,0-0.1,0-0.2,0
			c-0.2,0-0.4,0-0.6-0.1c-0.1,0-0.1-0.1-0.2-0.1c-0.1,0-0.2-0.1-0.2-0.1s-0.1-0.1-0.2-0.2c-0.1-0.1-0.2-0.1-0.3-0.2l-0.1-0.2
			l0.2-8.6v-2.6v-0.6c0-0.2,0-0.4-0.1-0.6c0-0.2,0-0.4-0.1-0.7c0-0.2-0.1-0.5-0.1-0.8c0-0.3,0-0.6-0.1-0.9c0-0.3-0.1-0.6-0.1-1
			S164.2,28.4,164.2,28.1z"/>
	</g>
</g>
<g>
	<g>
		<path fill="#D76258" d="M97.5,95.6c-1.1,0-1.9-0.9-1.9-1.9s0.9-1.9,1.9-1.9s1.9,0.9,1.9,1.9S98.6,95.6,97.5,95.6z M97.5,108.3
			c-1.1,0-1.9-0.9-1.9-1.9s0.9-1.9,1.9-1.9s1.9,0.9,1.9,1.9S98.6,108.3,97.5,108.3z"/>
		<path fill="#D76258" d="M134.4,105.4c0,0.1,0.1,0.3,0.1,0.4c0,0.1,0,0.2,0,0.3c0,0.2-0.1,0.4-0.2,0.5c0,0-0.1,0.1-0.2,0.1
			s-0.1,0.1-0.2,0.1c0,0,0,0-0.1,0c-0.2,0.1-0.5,0.3-0.9,0.4c-0.2,0-0.3,0-0.4,0.1c-0.1,0-0.2,0-0.3,0H132c0,0-0.1,0-0.2,0
			s-0.2,0-0.3,0.1l-0.1,0c-0.3,0.1-0.8,0.1-1.3,0.2c-0.3,0-0.5,0.1-0.8,0.2c-0.3,0.1-0.5,0.1-0.8,0.2c-0.2,0-0.3,0-0.4,0
			s-0.3,0-0.4,0c-0.1,0-0.2,0-0.3,0c-0.1,0-0.1,0-0.2,0c-0.2,0-0.3,0-0.5-0.1c-0.1,0-0.3-0.1-0.5-0.2c-0.2-0.1-0.3-0.1-0.5-0.2
			c-0.1-0.1-0.3-0.1-0.4-0.2c-0.1-0.1-0.2-0.1-0.3-0.2s-0.2-0.1-0.3-0.2c-0.3-0.2-0.4-0.3-0.5-0.5c-0.1-0.1-0.1-0.2-0.1-0.3
			c0-0.1,0-0.3,0-0.6c0-0.2,0-0.4,0-0.6c0-0.2,0-0.4,0-0.6v-1.9c0-0.1,0-0.2,0-0.3s0-0.2,0-0.3c0-0.1,0-0.3,0-0.4s0-0.3,0-0.5
			c0-0.2,0-0.3,0.1-0.5c0-0.1,0-0.3,0.1-0.4v-0.4v-1.1v-1.9v-2.7v0l0.2-0.7c0-0.1,0-0.1-0.1-0.2c0-0.1,0-0.1-0.1-0.2
			c0-0.1,0-0.1,0-0.2v-0.1l-0.1-0.1l0.1-1.3c0-0.7,0-1.3,0.1-1.9s0-1.1,0-1.7c0-0.2,0-0.5,0.1-0.7c0-0.2,0-0.4,0-0.6
			c0-0.2,0-0.5,0-0.7c0-0.2,0-0.4,0-0.6s0-0.4,0.1-0.5c0-0.2,0-0.3,0-0.4c0-0.2,0-0.3,0.1-0.4s0-0.1,0.1-0.2c0-0.1,0.1-0.2,0.1-0.3
			s0.1-0.2,0.2-0.2c0,0,0.1-0.1,0.2-0.2s0.1-0.1,0.2-0.2c0.2-0.1,0.4-0.2,0.6-0.3l0.3-0.1l0.3,0.2c0.1,0.1,0.2,0.2,0.3,0.3
			c0.1,0.1,0.2,0.2,0.3,0.2l0,0c0.1,0.1,0.1,0.2,0.2,0.3c0.1,0.1,0.1,0.2,0.2,0.2c0.1,0.1,0.2,0.2,0.2,0.3c0.1,0.1,0.1,0.2,0.1,0.4
			v0.4c0,0.2-0.1,0.3-0.1,0.5l-0.1,0.6l0.1,4.9l0.1,0.8l-0.3,0.7c0,1-0.1,2-0.1,2.8c0,0.9,0,1.7-0.1,2.4c0,0.4,0,0.7,0,1.1
			c0,0.3,0,0.7-0.1,1c0,0.3,0,0.7,0,0.9c0,0.3,0,0.6,0,0.8c0,0.3,0,0.5,0,0.7c0,0.2,0,0.4,0,0.6v0.4c0,0,0,0.1,0,0.2s0,0.1,0.1,0.2
			c0,0.1,0.1,0.2,0.1,0.3c0,0.1,0,0.2,0,0.3v0.2c0,0.2,0,0.3,0,0.4c0,0.1,0,0.1,0,0.2c0,0.2,0,0.3,0,0.4v0.1v0.1c0.1,0,0.2,0,0.3,0
			c0.3,0,0.6-0.1,0.9-0.2c0.3-0.1,0.6-0.1,0.9-0.2c0.3,0,0.6-0.1,1-0.1c0.3,0,0.6-0.1,0.9-0.1c0.6-0.1,1.1-0.1,1.4,0
			c0.1,0,0.1,0,0.2,0s0.1,0,0.1,0c0.1,0,0.2,0.1,0.4,0.1c0.1,0,0.2,0.1,0.3,0.1c0.1,0.1,0.2,0.1,0.2,0.2c0,0.1,0.1,0.1,0.1,0.2
			C134.3,105.2,134.3,105.3,134.4,105.4L134.4,105.4z"/>
		<path fill="#D76258" d="M133.8,92.4h-0.6l0.6-1.8c0-0.4,0-0.8,0-1.2c0-0.4,0-0.8,0-1.1c0-0.3,0-0.6,0.1-1s0-0.6,0-1
			c0-0.3,0.1-0.6,0.1-0.8c0-0.2,0.1-0.4,0.1-0.5c0-0.1,0-0.2,0.1-0.3c0-0.1,0.1-0.2,0.1-0.3c0.1-0.2,0.2-0.3,0.4-0.5
			c0.1-0.1,0.1-0.1,0.2-0.2c0.1-0.1,0.2-0.1,0.2-0.2c0.1-0.1,0.2-0.2,0.3-0.2c0.1-0.1,0.2-0.1,0.4-0.2c0.2-0.1,0.5-0.2,1-0.3l1-0.3
			c0.1,0,0.3-0.1,0.4-0.1s0.2-0.1,0.3-0.1l0.1-0.1h1.2c0.2,0,0.5,0,0.7,0c0.2,0,0.5,0,0.7,0.1c0.2,0,0.5,0,0.7,0
			c0.2,0,0.4,0,0.6,0.1c0.1,0,0.2,0.1,0.4,0.1c0.2,0,0.3,0.1,0.5,0.2c0.1,0,0.2,0.1,0.3,0.3c0.1,0.2,0.2,0.4,0.2,0.6
			c0,0.2-0.1,0.4-0.2,0.6c-0.1,0.1-0.1,0.2-0.2,0.3c-0.1,0.1-0.3,0.2-0.4,0.3c-0.1,0-0.2,0.1-0.3,0.1c-0.1,0-0.2,0-0.3,0
			c-0.1,0-0.3,0-0.6,0h-1.5l-0.8,0.4h-0.2c-0.1,0-0.3,0-0.5,0.1c-0.1,0-0.3,0.1-0.5,0.1c0,0-0.1,0-0.1,0.1c0,0,0,0-0.1,0.1l0,0
			l-0.1,0c-0.1,0.1-0.2,0.1-0.3,0.2c-0.1,0-0.1,0.1-0.2,0.1c0,0.1-0.1,0.1-0.2,0.2s-0.1,0.1-0.2,0.2c0,0,0,0-0.1,0.1
			c0,0,0,0.1-0.1,0.1v7.1l1-0.2h0.1c0.1,0,0.2,0,0.4-0.1c0.1,0,0.2,0,0.2-0.1s0.1,0,0.2,0c0.2,0,0.4-0.1,0.5,0
			c0.2,0,0.3,0.1,0.5,0.2c0,0,0.1,0,0.2,0s0.1,0,0.2,0c0.1,0,0.2,0,0.3,0.1c0.1,0,0.2,0.1,0.3,0.1c0.1,0,0.2,0.1,0.3,0.1
			s0.2,0.1,0.3,0.2c0.2,0.1,0.3,0.2,0.4,0.4s0.1,0.3,0.1,0.4c0,0.2,0,0.3-0.1,0.5c-0.1,0.1-0.2,0.3-0.3,0.4
			c-0.2,0.2-0.4,0.3-0.6,0.3c-0.2,0.1-0.4,0.1-0.6,0.1l-2.4,0.4h0l-0.1,0c0,0-0.1,0.1-0.2,0.1c-0.1,0-0.1,0.1-0.2,0.2h0
			c0,0-0.1,0-0.1,0.1s-0.1,0.1-0.1,0.1l-0.3,6.9v0.8v0.2v0h3.3c0.1,0,0.1,0,0.2-0.1c0.1,0,0.1,0,0.2,0v0c0.1,0,0.1,0,0.2-0.1
			c0.1,0,0.1,0,0.2-0.1c0.1,0,0.2,0,0.3-0.1c0.1,0,0.2,0,0.3,0c0.3,0,0.6,0,0.9,0.1c0.3,0.1,0.6,0.5,0.9,1l0,0.1v0.1
			c0,0.4-0.1,0.7-0.3,0.9c-0.1,0.1-0.1,0.2-0.2,0.2c-0.1,0.1-0.2,0.1-0.3,0.2h-0.1c-0.2,0.1-0.4,0.3-0.7,0.3h-0.1h-0.1
			c-0.4,0.1-0.8,0.1-1.2,0.1c-0.4,0-0.8,0-1.1,0c-0.2,0-0.4,0-0.6,0.1c-0.2,0-0.4,0-0.6,0c-0.1,0-0.2,0-0.3,0s-0.2,0-0.3,0
			c-0.6,0-1.1-0.1-1.4-0.2c-0.3,0-0.7-0.1-1-0.2c-0.3-0.2-0.5-0.3-0.6-0.5c-0.1-0.1-0.2-0.2-0.2-0.4s-0.1-0.3-0.2-0.4v-0.1l-0.5-5.8
			h0.4V92.4z"/>
		<path fill="#D76258" d="M145.1,104.1l-0.4-13.8l0-0.4c0-0.4,0.1-0.7,0.1-1.1s0.1-0.7,0.1-1c0-0.3,0.1-0.6,0.1-0.9
			c0-0.3,0.1-0.5,0.1-0.8c0-0.3,0.1-0.5,0.1-0.7s0.1-0.4,0.1-0.6c0-0.4,0.2-0.7,0.4-1c0.2-0.3,0.5-0.5,0.8-0.7
			c0.1-0.1,0.3-0.2,0.4-0.3c0.1-0.1,0.3-0.1,0.4-0.2c0.3-0.1,0.6-0.2,0.8-0.2h0.1c0,0,0.1,0,0.2,0c0.1,0,0.2,0,0.4,0
			c0.2,0,0.5-0.1,0.7-0.1c0.2,0,0.5,0,0.8-0.1c0.3,0,0.5,0,0.8-0.1c0.2,0,0.5,0,0.7-0.1c0.3,0,0.5,0,0.6-0.1c0.1,0,0.2,0,0.2,0h0.3
			l0.2,0.2c0,0,0,0,0,0h0.1c0.1,0,0.1,0.1,0.2,0.1c0.1,0,0.2,0,0.2,0.1c0.1,0,0.2,0.1,0.3,0.1c0.1,0,0.2,0.1,0.3,0.1
			c0.2,0.1,0.4,0.2,0.5,0.4c0.1,0.1,0.1,0.2,0.1,0.3c0,0.3,0,0.5-0.1,0.6c-0.1,0.2-0.1,0.3-0.2,0.4c-0.1,0.1-0.2,0.2-0.3,0.2
			c-0.1,0-0.2,0.1-0.3,0.1c-0.5,0-0.9,0.1-1.3,0.1c-0.4,0-0.8,0.1-1.2,0.1c-0.2,0-0.3,0-0.5,0.1c-0.1,0-0.3,0-0.5,0
			c-0.2,0-0.3,0.1-0.4,0.1s-0.3,0-0.4,0.1c-0.1,0-0.2,0-0.3,0.1c-0.1,0-0.2,0-0.3,0c0,0,0,0-0.1,0h0l-0.1,0.1h-0.2l0,0
			c0,0-0.1,0.1-0.1,0.2c0,0.1,0,0.3,0,0.5c0,0.1,0,0.2,0,0.2c0,0,0,0.1,0,0.1c0,0,0,0.1,0,0.2c0,0.1,0,0.3-0.1,0.5
			c0,0.2-0.1,0.4-0.1,0.5c0,0.2,0,0.3-0.1,0.5l0,0c0,0.2,0,0.4-0.1,0.6c0,0.2,0,0.5-0.1,0.7v4.3l3.2-0.3l0.1,0c0.1,0,0.3,0,0.4,0.1
			c0.1,0.1,0.2,0.1,0.3,0.2c0.2,0.1,0.3,0.3,0.4,0.5c0,0.1,0.1,0.2,0.1,0.4c0,0.1,0.1,0.3,0.1,0.5c0.1,0.3,0.1,0.6-0.1,0.9
			c-0.1,0.1-0.1,0.2-0.2,0.2c0,0.1-0.1,0.1-0.2,0.2v0l-0.1,0c-0.2,0.1-0.4,0.3-0.6,0.4l-0.1,0h-3.3v1.7l0.4,3.9v3.4
			c0,0.2-0.1,0.4-0.3,0.7c0,0.1-0.2,0.3-0.3,0.4c-0.1,0.1-0.2,0.1-0.3,0.2c-0.1,0.1-0.2,0.1-0.3,0.2c-0.3,0.1-0.5,0.2-0.6,0.2
			c-0.4,0-0.7-0.1-0.9-0.3c-0.1-0.1-0.1-0.2-0.2-0.3s-0.2-0.2-0.2-0.3l0,0c0-0.1-0.1-0.2-0.2-0.3c-0.1-0.1-0.1-0.2-0.2-0.3l0-0.1
			V104.1z"/>
		<path fill="#D76258" d="M157.7,90.1c0-0.7-0.1-1.5-0.2-2.3c-0.1-0.8-0.2-1.6-0.2-2.4l-3.1,0h-0.1c-0.1-0.1-0.2-0.1-0.4-0.2
			c-0.1-0.1-0.3-0.1-0.4-0.2c-0.3-0.1-0.5-0.2-0.6-0.4c-0.3-0.2-0.5-0.4-0.5-0.6c-0.1-0.3-0.1-0.5,0.1-0.8c0.1-0.2,0.2-0.3,0.3-0.4
			c0.2-0.1,0.4-0.2,0.6-0.3h0.1l11-0.4l0.1,0.1c0,0,0.1,0,0.3,0.1c0.1,0.1,0.2,0.1,0.3,0.2s0.1,0.1,0.2,0.2h0v0.1
			c0,0.1,0.1,0.2,0.2,0.2c0.1,0.1,0.2,0.2,0.2,0.4c0.1,0.1,0.1,0.3,0.1,0.5c0,0.2,0,0.3-0.1,0.5c0,0.1-0.1,0.3-0.1,0.4
			c-0.1,0.2-0.2,0.3-0.4,0.4c-0.1,0.1-0.3,0.2-0.5,0.2c-0.1,0-0.2,0-0.3,0s-0.4,0-0.7,0h-1.5h-1.4c0.1,0.8,0.1,1.5,0.2,2.2
			c0.1,0.7,0.1,1.4,0.2,2.1c0,0.3,0,0.6,0.1,0.9c0,0.3,0,0.6,0.1,0.9c0.1,0.7,0.1,1.3,0.1,1.7l0,0.2c0,0.2,0,0.4,0.1,0.6
			c0,0.2,0,0.3,0,0.5c0,0.2,0,0.3,0.1,0.4c0,0.1,0,0.2,0,0.2c0,0.3,0,0.6,0.1,1c0.2,0.4,0.3,0.9,0,1.4v0l-0.2,0.7l0.2,8l-0.1,0.2
			c-0.1,0.1-0.2,0.2-0.3,0.3s-0.1,0.2-0.3,0.3c-0.1,0.1-0.3,0.3-0.5,0.4c-0.2,0.2-0.4,0.3-0.6,0.3c0,0-0.1,0-0.2,0
			c-0.2,0-0.4,0-0.6-0.1c-0.1,0-0.1-0.1-0.2-0.1c-0.1,0-0.2-0.1-0.2-0.1s-0.1-0.1-0.2-0.2c-0.1-0.1-0.2-0.1-0.3-0.2l-0.1-0.2
			l0.2-8.6v-2.6v-0.6c0-0.2,0-0.4-0.1-0.6c0-0.2,0-0.4-0.1-0.7c0-0.2-0.1-0.5-0.1-0.8c0-0.3,0-0.6-0.1-0.9c0-0.3-0.1-0.6-0.1-1
			S157.7,90.4,157.7,90.1z"/>
	</g>
</g>
<g>
	<g>
		<path fill="#D76258" d="M99,160.9c-1.1,0-1.9-0.9-1.9-1.9s0.9-1.9,1.9-1.9s1.9,0.9,1.9,1.9S100,160.9,99,160.9z M99,173.6
			c-1.1,0-1.9-0.9-1.9-1.9s0.9-1.9,1.9-1.9s1.9,0.9,1.9,1.9S100,173.6,99,173.6z"/>
		<path fill="#D76258" d="M128.6,172.8c-0.3-0.1-0.5-0.2-0.7-0.4c-0.2-0.1-0.4-0.3-0.5-0.5c-0.3-0.3-0.4-0.7-0.5-1.1
			c-0.1-0.3-0.1-0.5-0.1-0.7c0-0.1-0.1-0.2-0.1-0.4s-0.1-0.3-0.1-0.5c0-0.2,0-0.4-0.1-0.6s0-0.4,0-0.6c0-0.2,0-0.4,0-0.6
			c0-0.2,0-0.4,0.1-0.5c0.1-0.5,0.2-0.8,0.4-1c0.1-0.1,0.2-0.1,0.3-0.2c0.1-0.1,0.2-0.1,0.4-0.1c0.2,0,0.4,0.1,0.5,0.2
			c0.3,0,0.6,0.1,0.9,0.3c0.1,0.1,0.2,0.2,0.3,0.3c0.1,0.1,0.2,0.2,0.3,0.3l0.2,0.2l0,0.3c0,0.2-0.1,0.4-0.1,0.6
			c0,0.2-0.1,0.4-0.1,0.5v0.1c0,0.3,0,0.6,0,0.9c0,0.2,0,0.3,0,0.4c0,0.1,0,0.1,0.1,0.2l0.1,0.1v0.1v0.1c0.2,0,0.3,0,0.5,0.1
			c0.2,0,0.4,0,0.7,0c0.5,0,0.8-0.1,1-0.3c0.3-0.3,0.6-0.7,0.7-1.2v0c0,0,0-0.1,0-0.1c0,0,0-0.1,0-0.2s0-0.1,0-0.2
			c0-0.2-0.1-0.4-0.1-0.6c0-0.2-0.1-0.4-0.1-0.6c0-0.2-0.1-0.5-0.2-0.7s-0.1-0.5-0.2-0.7c-0.1-0.5-0.2-1-0.2-1.4c0,0,0-0.2-0.1-0.3
			c-0.1-0.2-0.2-0.4-0.4-0.7c-0.2-0.3-0.4-0.5-0.6-0.8c-0.2-0.3-0.4-0.5-0.7-0.8c-0.3-0.3-0.5-0.5-0.8-0.8c-0.2-0.2-0.5-0.5-0.7-0.7
			c-0.3-0.2-0.5-0.4-0.6-0.6c-0.2-0.1-0.3-0.3-0.4-0.4l-0.1-0.1c-0.2-0.2-0.4-0.6-0.7-1.3c-0.1-0.3-0.3-0.6-0.4-0.9
			c-0.1-0.3-0.2-0.6-0.4-1c-0.2-0.7-0.5-1.4-0.6-2c-0.2-0.7-0.3-1.2-0.3-1.5v-0.1l0,0c0-0.2,0.1-0.4,0.2-0.6
			c0.1-0.2,0.2-0.4,0.3-0.7c0.1-0.2,0.2-0.5,0.4-0.7c0.1-0.2,0.3-0.4,0.5-0.6c0.2-0.2,0.4-0.4,0.6-0.6c0.2-0.2,0.4-0.4,0.6-0.5
			c0.2-0.2,0.5-0.3,0.8-0.4c0.3-0.1,0.6-0.2,0.9-0.3h0.1h0c0.8,0,1.5,0.1,2.1,0.4c0.4,0.1,0.7,0.3,1,0.4c0.3,0.1,0.6,0.3,0.9,0.5
			c0.5,0.4,1,0.7,1.3,1.1c0.4,0.4,0.7,0.7,0.8,0.9h0c0,0.1,0.1,0.3,0.1,0.4c0,0.2,0.1,0.5,0.1,1c0,0.3,0,0.6,0,1s0,0.6,0,1
			c0,0.4,0,0.8,0,1.2s0,0.9,0,1.3v0.3l-0.2,0.2c0,0-0.1,0.1-0.1,0.1s-0.1,0.1-0.1,0.1l0,0.1h-0.1c-0.1,0.1-0.2,0.1-0.4,0.2
			c-0.2,0.1-0.4,0.1-0.6,0.1c-0.2,0-0.4,0-0.6-0.1l-0.3-0.2h-0.1c-0.1,0-0.1-0.1-0.2-0.1s-0.1-0.1-0.2-0.1l-0.2-0.2v-5
			c0,0-0.1-0.1-0.2-0.2c-0.1-0.1-0.2-0.2-0.4-0.4c-0.3-0.3-0.9-0.6-1.7-0.7c-0.1,0-0.2,0-0.3,0c-0.1,0-0.2,0-0.3,0.1
			c0,0-0.1,0-0.1,0c-0.1,0.1-0.3,0.2-0.3,0.4c-0.1,0.1-0.2,0.2-0.2,0.4c-0.2,0.3-0.2,0.8-0.2,1.3v0.2l-0.1,0.1c0,0,0,0.1-0.1,0.1
			s0,0.1-0.1,0.1c0,0,0,0.1,0,0.1s0,0.1,0,0.1c0,0,0,0.1,0,0.1c0,0,0,0,0,0.1c0,0.1,0.1,0.2,0.2,0.3s0.1,0.2,0.2,0.4
			c0.1,0.2,0.2,0.4,0.3,0.6c0.1,0.2,0.2,0.4,0.3,0.6c0.1,0.2,0.2,0.4,0.3,0.5c0.1,0.2,0.2,0.4,0.3,0.5c0.1,0.2,0.1,0.3,0.2,0.3
			c0,0,0.1,0.1,0.1,0.1l0.2,0.2v0.3c0,0,0,0.1,0,0.1c0,0,0,0,0,0.1l0.1,0.1c0.1,0.1,0.3,0.2,0.5,0.4c0.2,0.1,0.4,0.3,0.6,0.5
			c0.2,0.2,0.4,0.4,0.6,0.7s0.4,0.5,0.6,0.8c0.2,0.3,0.4,0.6,0.6,0.9c0.2,0.3,0.4,0.6,0.6,1c0.4,0.7,0.7,1.4,1,2.2
			c0.2,0.3,0.3,0.7,0.4,1.1c0.1,0.4,0.2,0.7,0.2,1.1c0.1,0.7,0.2,1.3,0.2,1.9c0,0.3,0,0.6,0,1s0,0.6-0.1,0.9v0v0.1
			c-0.2,0.6-0.8,1.3-1.7,1.9c-0.8,0.5-2,0.8-3.6,1.1l0,0h0c-0.4,0-0.8,0-1.1-0.1C129.1,173,128.9,172.9,128.6,172.8z"/>
		<path fill="#D76258" d="M140.2,155.4c0-0.7-0.1-1.5-0.2-2.3c-0.1-0.8-0.2-1.6-0.2-2.4l-3.1,0h-0.1c-0.1-0.1-0.2-0.1-0.4-0.2
			c-0.1-0.1-0.3-0.1-0.4-0.2c-0.3-0.1-0.5-0.2-0.6-0.4c-0.3-0.2-0.5-0.4-0.5-0.6c-0.1-0.3-0.1-0.5,0.1-0.8c0.1-0.2,0.2-0.3,0.3-0.4
			c0.2-0.1,0.4-0.2,0.6-0.3h0.1l11-0.4l0.1,0.1c0,0,0.1,0,0.3,0.1c0.1,0.1,0.2,0.1,0.3,0.2s0.1,0.1,0.2,0.2h0v0.1
			c0,0.1,0.1,0.2,0.2,0.2c0.1,0.1,0.2,0.2,0.2,0.4c0.1,0.1,0.1,0.3,0.1,0.5c0,0.2,0,0.3-0.1,0.5c0,0.1-0.1,0.3-0.1,0.4
			c-0.1,0.2-0.2,0.3-0.4,0.4c-0.1,0.1-0.3,0.2-0.5,0.2c-0.1,0-0.2,0-0.3,0s-0.4,0-0.7,0h-1.5h-1.4c0.1,0.8,0.1,1.5,0.2,2.2
			c0.1,0.7,0.1,1.4,0.2,2.1c0,0.3,0,0.6,0.1,0.9c0,0.3,0,0.6,0.1,0.9c0.1,0.7,0.1,1.3,0.1,1.7l0,0.2c0,0.2,0,0.4,0.1,0.6
			c0,0.2,0,0.3,0,0.5c0,0.2,0,0.3,0.1,0.4c0,0.1,0,0.2,0,0.2c0,0.3,0,0.6,0.1,1c0.2,0.4,0.3,0.9,0,1.4v0l-0.2,0.7l0.2,8l-0.1,0.2
			c-0.1,0.1-0.2,0.2-0.3,0.3s-0.1,0.2-0.3,0.3c-0.1,0.1-0.3,0.3-0.5,0.4c-0.2,0.2-0.4,0.3-0.6,0.3c0,0-0.1,0-0.2,0
			c-0.2,0-0.4,0-0.6-0.1c-0.1,0-0.1-0.1-0.2-0.1c-0.1,0-0.2-0.1-0.2-0.1c-0.1,0-0.1-0.1-0.2-0.2s-0.2-0.1-0.3-0.2l-0.1-0.2l0.2-8.6
			V161v-0.6c0-0.2,0-0.4-0.1-0.6c0-0.2,0-0.4-0.1-0.7c0-0.2-0.1-0.5-0.1-0.8c0-0.3,0-0.6-0.1-0.9c0-0.3-0.1-0.6-0.1-1
			S140.2,155.7,140.2,155.4z"/>
		<path fill="#D76258" d="M155.2,148.8c0.2,0.2,0.5,0.4,0.6,0.6c0.1,0.1,0.2,0.2,0.3,0.4c0.1,0.1,0.2,0.2,0.3,0.4l0.1,0.1l0.4,1.7
			v0.5l-0.4,9.6v5c0,0.3,0,0.5,0,0.7c0,0.2,0,0.4-0.1,0.7c0,0.2-0.1,0.4-0.1,0.6c0,0.2-0.1,0.4-0.1,0.6c-0.1,0.4-0.3,0.8-0.5,1.1
			c-0.3,0.7-0.7,1.2-1.4,1.6c-0.7,0.4-1.5,0.6-2.6,0.6c-0.3,0.1-0.5,0.1-0.8,0.1c-0.1,0-0.2,0-0.3,0s-0.2,0-0.3-0.1
			c-0.2,0-0.4-0.1-0.6-0.2c-0.2-0.1-0.4-0.2-0.5-0.3c-0.2-0.1-0.3-0.2-0.5-0.3c-0.1-0.1-0.3-0.3-0.4-0.4c-0.1-0.1-0.3-0.2-0.4-0.4
			c-0.1-0.1-0.3-0.3-0.4-0.4c-0.2-0.1-0.3-0.4-0.4-0.9c-0.1-0.3-0.1-0.7-0.2-1.1c0-0.2-0.1-0.4-0.1-0.7c0-0.2,0-0.4-0.1-0.7
			c0-0.2,0-0.5-0.1-0.7c0-0.2,0-0.5,0-0.7c-0.1-1.2-0.1-2.4-0.1-3.8l0-0.1l0.4-4.6v-6.2c0-0.1,0-0.3,0-0.4s0-0.3,0.1-0.4
			c0-0.3,0.1-0.6,0.1-0.7c0.1-0.3,0.2-0.5,0.3-0.7c0.2-0.4,0.5-0.8,0.9-1c0.4-0.2,0.7-0.3,1.1-0.3h0.8c0,0,0.1,0,0.1,0
			c0,0,0,0,0.1,0c0,0,0.1-0.1,0.2-0.1c0.1,0,0.1,0,0.2-0.1l0.5-0.2h1.3c0.1,0,0.2,0,0.3,0c0.1,0,0.2,0,0.4,0c0.1,0,0.3,0.1,0.5,0.1
			s0.4,0.1,0.6,0.2l0.1,0c0.2,0.1,0.3,0.2,0.5,0.3C154.9,148.5,155,148.7,155.2,148.8z M152.8,169.7c0.3-0.5,0.5-1,0.6-1.5
			c0.1-0.7,0.1-1.4,0-2.2l0,0v-14.1c0-0.1-0.1-0.2-0.2-0.3c-0.1-0.2-0.4-0.4-0.6-0.6l-0.1,0l0,0c-0.1-0.1-0.2-0.2-0.2-0.2
			c-0.1-0.1-0.1-0.1-0.2-0.2c-0.2-0.1-0.3-0.1-0.4-0.2v0c0,0-0.1,0-0.2,0c-0.1,0-0.1,0-0.2,0c-0.1,0-0.3,0-0.4,0.1l0,0
			c-0.1,0-0.2,0-0.3,0.1l-0.2,0.2c0,0.1,0,0.2,0,0.4s0,0.3-0.1,0.4c0,0.2,0,0.4-0.1,0.6c0,0.2,0,0.4-0.1,0.6c0,0.2-0.1,0.4-0.1,0.7
			c0,0.2,0,0.5-0.1,0.7v11.9c0,0.5-0.1,0.9,0,1.3c0,0.4,0.1,0.8,0.2,1.1c0,0.2,0.1,0.3,0.1,0.4c0,0.1,0.1,0.3,0.1,0.4
			c0.1,0.2,0.2,0.4,0.3,0.6c0,0.1,0.1,0.2,0.2,0.2c0.1,0.1,0.2,0.1,0.2,0.2c0.2,0.1,0.4,0.1,0.6,0.1
			C152.3,170.2,152.7,170,152.8,169.7z"/>
		<path fill="#D76258" d="M163.6,165.4l-2.5,0.2l0.2,6.1l-0.1,0.1c-0.1,0.1-0.1,0.2-0.2,0.3c-0.1,0.1-0.1,0.2-0.2,0.3
			c-0.3,0.4-0.7,0.6-1.3,0.6c0,0-0.1,0-0.1,0s0,0-0.1,0c-0.3,0-0.5-0.1-0.6-0.2c-0.2-0.2-0.4-0.3-0.5-0.5c-0.1-0.2-0.2-0.5-0.2-0.7
			c0-2.1-0.1-4.1-0.1-5.9c0-1.9,0-3.6-0.1-5.2v-4.1v-3.7c0-0.5,0-1,0-1.5c0-0.4,0-0.8,0-1.2c0-0.5,0-0.9,0-1c0-0.1,0-0.2,0-0.3l0,0
			c0.1-0.2,0.3-0.4,0.6-0.6c0.1-0.1,0.2-0.2,0.4-0.2c0.1-0.1,0.3-0.1,0.4-0.2h0c0.3-0.1,0.6-0.2,0.9-0.3l0.2,0h0.1
			c0.6,0.1,1.2,0.2,1.8,0.3h0c0.2,0.1,0.5,0.1,0.7,0.2c0.2,0,0.5,0.1,0.7,0.1c0.2,0,0.5,0.1,0.6,0.1c0.2,0,0.3,0.1,0.5,0.1
			c0.3,0.1,0.7,0.3,1,0.7c0.2,0.3,0.4,0.7,0.6,1v0c0.1,0.4,0.3,0.8,0.4,1.4l0,0.1c0,0.9,0,1.7-0.1,2.5c0,0.8,0,1.6-0.1,2.3l0,1.9
			c0,0.3,0,0.6,0,0.9c0,0.3,0,0.6,0,0.8c0,0.3,0,0.5-0.1,0.8c0,0.2,0,0.5-0.1,0.7c0,0.2,0,0.4-0.1,0.5s0,0.3-0.1,0.4v0
			c-0.1,0.5-0.3,1-0.7,1.4c-0.2,0.2-0.4,0.3-0.5,0.5c-0.2,0.1-0.3,0.3-0.5,0.4c-0.2,0.1-0.4,0.3-0.6,0.4c-0.2,0.1-0.4,0.2-0.7,0.3
			L163.6,165.4z M161.1,162.8l1.7-0.1c0,0,0.1-0.1,0.1-0.1c0,0,0.1,0,0.1-0.1c0,0,0.1-0.1,0.1-0.2s0.1-0.2,0.1-0.3
			c0-0.1,0.1-0.2,0.1-0.3s0.1-0.3,0.1-0.4c0,0,0-0.1,0-0.3c0-0.1,0-0.3,0.1-0.5c0-0.3,0.1-0.7,0.1-1.2c0-0.2,0-0.5,0-0.7
			c0-0.2,0-0.5,0-0.8c0-0.3,0-0.5,0-0.8c0-0.3,0-0.5,0-0.8c0-0.6,0-1.2,0-1.9c0-0.7,0-1.4,0-2.1c0-0.1,0-0.3,0-0.4s0-0.3,0-0.4
			c0-0.1,0-0.2-0.1-0.3c0-0.1,0-0.2-0.1-0.3c0,0-0.1-0.1-0.1-0.1s0,0-0.1-0.1l0,0c0,0-0.1-0.1-0.2-0.1c-0.1,0-0.2-0.1-0.4-0.1
			c-0.2,0-0.3-0.1-0.5-0.1c-0.1,0-0.3,0-0.5-0.1h-0.7L161.1,162.8z"/>
	</g>
</g>
</svg>
